<?xml version="1.0" encoding="utf-8"?>
<!-- Generator: Adobe Illustrator 25.2.1, SVG Export Plug-In . SVG Version: 6.00 Build 0)  -->
<svg version="1.1" id="Layer_1" xmlns="http://www.w3.org/2000/svg" xmlns:xlink="http://www.w3.org/1999/xlink" x="0px" y="0px"
	 viewBox="0 0 195 203" style="enable-background:new 0 0 195 203;" xml:space="preserve">
<style type="text/css">
	.st0{fill:#020203;}
	.st1{stroke:#FFFFFF;stroke-width:0.8;stroke-miterlimit:10;}
	.st2{fill:#FFFFFF;}
	.st3{fill:#282727;stroke:#FFFFFF;stroke-width:0.8;stroke-miterlimit:10;}
	.st4{fill:#3C3C3B;stroke:#FFFFFF;stroke-width:0.8;stroke-miterlimit:10;}
	.st5{fill:#4A4A49;stroke:#FFFFFF;stroke-width:0.8;stroke-miterlimit:10;}
	.st6{fill:#575756;stroke:#FFFFFF;stroke-width:0.8;stroke-miterlimit:10;}
</style>
<g>
	<path class="st0" d="M32.1,89.6c0,3.3-2.1,5.2-5.5,5.2h-3.1V84.4h3.1C30.1,84.4,32.1,86.3,32.1,89.6z M26.6,94c3,0,4.5-1.6,4.5-4.3
		c0-2.7-1.5-4.4-4.5-4.4h-2.1V94H26.6z"/>
	<path class="st0" d="M33.8,84.3c0-0.5,0.3-0.8,0.8-0.8s0.8,0.3,0.8,0.8s-0.3,0.8-0.8,0.8S33.8,84.8,33.8,84.3z M34.1,86.7h1v8.2h-1
		V86.7z"/>
	<path class="st0" d="M37.6,86.7l2.8,7.2l2.8-7.2h1.1L41,94.8h-1.2l-3.3-8.2L37.6,86.7L37.6,86.7z"/>
	<path class="st0" d="M49.2,95c-2.3,0-4-1.6-4-4.2s1.7-4.2,4-4.2c2.4,0,3.9,1.7,3.9,3.8c0,0.3,0,0.5,0,0.8h-6.8
		c0.1,1.9,1.4,2.9,3,2.9c1.4,0,2.3-0.7,2.6-1.8H53C52.6,93.8,51.3,95,49.2,95z M46.3,90.3H52c0-1.9-1.3-2.9-2.9-2.9
		C47.7,87.4,46.4,88.4,46.3,90.3z"/>
	<path class="st0" d="M56.1,94.8h-1v-8.2h1v1.5c0.5-1,1.4-1.6,2.8-1.6v1.1h-0.3c-1.4,0-2.5,0.6-2.5,2.7V94.8z"/>
	<path class="st0" d="M63.3,95c-1.9,0-3.2-0.9-3.3-2.4h1.1c0.1,0.9,0.9,1.5,2.2,1.5c1.2,0,1.8-0.6,1.8-1.4c0-2-4.9-0.8-4.9-3.9
		c0-1.2,1.2-2.2,2.9-2.2c1.8,0,2.9,0.9,3,2.5h-1c-0.1-0.9-0.7-1.6-2-1.6c-1.1,0-1.8,0.6-1.8,1.3c0,2.2,4.8,1,4.9,3.9
		C66.1,94,65,95,63.3,95z"/>
	<path class="st0" d="M67.9,84.3c0-0.5,0.3-0.8,0.8-0.8s0.8,0.3,0.8,0.8s-0.3,0.8-0.8,0.8S67.9,84.8,67.9,84.3z M68.1,86.7h1v8.2h-1
		V86.7z"/>
	<path class="st0" d="M71.8,87.5h-1.1v-0.9h1.1V86c0-1.8,0.8-2.6,2.9-2.6v0.9c-1.4,0-1.8,0.5-1.8,1.7v0.6h4.6v8.2h-1v-7.3H73v7.3h-1
		v-7.3C72,87.5,71.8,87.5,71.8,87.5z M76.2,84.3c0-0.5,0.3-0.8,0.8-0.8s0.8,0.3,0.8,0.8s-0.3,0.8-0.8,0.8S76.2,84.8,76.2,84.3z"/>
	<path class="st0" d="M83.3,95c-2.3,0-4-1.6-4-4.2s1.7-4.2,4-4.2c2.4,0,3.9,1.7,3.9,3.8c0,0.3,0,0.5,0,0.8h-6.8
		c0.1,1.9,1.4,2.9,3,2.9c1.4,0,2.3-0.7,2.6-1.8h1C86.7,93.8,85.4,95,83.3,95z M80.3,90.3h5.8c0-1.9-1.3-2.9-2.9-2.9
		C81.8,87.4,80.5,88.4,80.3,90.3z"/>
	<path class="st0" d="M92.5,86.5c1.5,0,2.7,0.8,3.2,1.9v-4.7h1v11.1h-1V93c-0.5,1.1-1.6,2-3.2,2c-2.2,0-3.9-1.7-3.9-4.2
		C88.6,88.2,90.3,86.5,92.5,86.5z M92.7,87.5c-1.7,0-3,1.2-3,3.3c0,2.1,1.3,3.3,3,3.3s3-1.3,3-3.3S94.4,87.5,92.7,87.5z"/>
	<path class="st0" d="M106.9,94.8h-3.6V84.4h3.5c2.2,0,3.3,1.2,3.3,2.6s-0.9,2.1-1.9,2.4c1.2,0.2,2.1,1.3,2.1,2.6
		C110.3,93.6,109.2,94.8,106.9,94.8z M106.8,85.2h-2.4V89h2.4c1.4,0,2.2-0.7,2.2-1.9C109,86,108.3,85.2,106.8,85.2z M106.8,89.9
		h-2.5V94h2.5c1.5,0,2.4-0.8,2.4-2S108.3,89.9,106.8,89.9z"/>
	<path class="st0" d="M119.4,94.8h-1v-1.4c-0.5,1-1.6,1.6-2.8,1.6c-1.9,0-3.3-1.1-3.3-3.5v-4.8h1v4.7c0,1.8,1,2.7,2.5,2.7
		s2.6-1,2.6-3v-4.5h1C119.4,86.6,119.4,94.8,119.4,94.8z"/>
	<path class="st0" d="M124.6,95c-1.9,0-3.2-0.9-3.3-2.4h1.1c0.1,0.9,0.9,1.5,2.2,1.5c1.2,0,1.8-0.6,1.8-1.4c0-2-4.9-0.8-4.9-3.9
		c0-1.2,1.2-2.2,2.9-2.2c1.8,0,2.9,0.9,3,2.5h-1.1c-0.1-0.9-0.7-1.6-2-1.6c-1.1,0-1.8,0.6-1.8,1.3c0,2.2,4.8,1,4.9,3.9
		C127.4,94,126.3,95,124.6,95z"/>
	<path class="st0" d="M129.2,84.3c0-0.5,0.3-0.8,0.8-0.8s0.8,0.3,0.8,0.8s-0.3,0.8-0.8,0.8S129.2,84.8,129.2,84.3z M129.4,86.7h1
		v8.2h-1V86.7z"/>
	<path class="st0" d="M139,90.2c0-1.8-1-2.7-2.5-2.7s-2.6,1-2.6,3V95h-1v-8.2h1v1.4c0.5-1,1.6-1.5,2.8-1.5c1.9,0,3.3,1.1,3.3,3.5V95
		h-1V90.2z"/>
	<path class="st0" d="M145.9,95c-2.3,0-4-1.6-4-4.2s1.7-4.2,4-4.2c2.4,0,3.9,1.7,3.9,3.8c0,0.3,0,0.5,0,0.8H143
		c0.1,1.9,1.4,2.9,3,2.9c1.4,0,2.3-0.7,2.6-1.8h1.1C149.3,93.8,147.9,95,145.9,95z M142.9,90.3h5.8c0-1.9-1.3-2.9-2.8-2.9
		S143.1,88.4,142.9,90.3z"/>
	<path class="st0" d="M154.5,95c-1.9,0-3.2-0.9-3.3-2.4h1.1c0.1,0.9,0.9,1.5,2.2,1.5c1.2,0,1.8-0.6,1.8-1.4c0-2-4.9-0.8-4.9-3.9
		c0-1.2,1.2-2.2,2.9-2.2c1.8,0,2.9,0.9,3,2.5h-1c-0.1-0.9-0.7-1.6-2-1.6c-1.1,0-1.8,0.6-1.8,1.3c0,2.2,4.8,1,4.9,3.9
		C157.3,94,156.2,95,154.5,95z"/>
	<path class="st0" d="M162.1,95c-1.9,0-3.2-0.9-3.3-2.4h1.1c0.1,0.9,0.9,1.5,2.2,1.5c1.2,0,1.8-0.6,1.8-1.4c0-2-4.9-0.8-4.9-3.9
		c0-1.2,1.2-2.2,2.9-2.2c1.8,0,2.9,0.9,3,2.5h-1c-0.1-0.9-0.7-1.6-2-1.6c-1.1,0-1.8,0.6-1.8,1.3c0,2.2,4.8,1,4.9,3.9
		C165,94,163.8,95,162.1,95z"/>
	<path class="st0" d="M30.7,105.4h1.1l-4,10.5h-1.2l-4-10.5h1.1l3.4,9.3L30.7,105.4z"/>
	<path class="st0" d="M36.9,116c-2.3,0-4-1.6-4-4.2s1.7-4.2,4-4.2c2.4,0,3.9,1.7,3.9,3.8c0,0.3,0,0.5,0,0.8H34
		c0.1,1.9,1.4,2.9,3,2.9c1.4,0,2.3-0.7,2.6-1.8h1.1C40.3,114.8,38.9,116,36.9,116z M33.9,111.3h5.8c0-1.9-1.3-2.9-2.9-2.9
		C35.4,108.4,34.1,109.4,33.9,111.3z"/>
	<path class="st0" d="M43.7,115.8h-1v-8.2h1v1.5c0.5-1,1.4-1.6,2.8-1.6v1.1h-0.3c-1.4,0-2.5,0.6-2.5,2.7V115.8z"/>
	<path class="st0" d="M48.4,108.5h-1.1v-0.9h1.1v-2.1h1.1v2.1h2.2v0.9h-2.2v5.1c0,1,0.3,1.3,1.3,1.3h1v0.9h-1.1
		c-1.4,0-2.2-0.6-2.2-2.2L48.4,108.5L48.4,108.5z"/>
	<path class="st0" d="M53.2,105.3c0-0.5,0.3-0.8,0.8-0.8s0.8,0.3,0.8,0.8s-0.3,0.8-0.8,0.8S53.2,105.8,53.2,105.3z M53.4,107.7h1
		v8.2h-1V107.7z"/>
	<path class="st0" d="M60.4,107.5c2.1,0,3.4,1.1,3.8,2.8H63c-0.3-1.2-1.3-1.9-2.6-1.9c-1.6,0-2.9,1.1-2.9,3.3s1.3,3.3,2.9,3.3
		c1.4,0,2.4-0.7,2.6-1.9h1.1c-0.4,1.6-1.7,2.8-3.8,2.8c-2.3,0-4-1.6-4-4.2S58.1,107.5,60.4,107.5z"/>
	<path class="st0" d="M69.5,107.5c1.7,0,2.8,0.9,3.2,1.9v-1.8h1v8.2h-1V114c-0.5,1-1.6,1.9-3.3,1.9c-2.2,0-3.9-1.7-3.9-4.2
		C65.6,109.2,67.3,107.5,69.5,107.5z M69.7,108.5c-1.7,0-3,1.2-3,3.3c0,2.1,1.3,3.3,3,3.3s3-1.3,3-3.3S71.4,108.5,69.7,108.5z"/>
	<path class="st0" d="M76.2,104.7h1v11.1h-1V104.7z"/>
	<path class="st0" d="M82.5,116c-1.9,0-3.2-0.9-3.3-2.4h1.1c0.1,0.9,0.9,1.5,2.2,1.5c1.2,0,1.8-0.6,1.8-1.4c0-2-4.9-0.8-4.9-3.9
		c0-1.2,1.2-2.2,2.9-2.2c1.8,0,2.9,0.9,3,2.5h-1c-0.1-0.9-0.7-1.6-2-1.6c-1.1,0-1.8,0.6-1.8,1.3c0,2.2,4.8,1,4.9,3.9
		C85.3,115,84.1,116,82.5,116z"/>
</g>
<g>
	<g>
		<path class="st0" d="M46.2,33.7v4.8H30.1V48c1.3-1.7,4.1-3.2,7.2-3.2c8.6,0,11.2,6.4,11.2,11.7c0,7-4,12.2-12.1,12.2
			c-7.2,0-11.4-4-12.2-9.5h5.3c0.7,3,3.2,4.9,6.9,4.9c4.7,0,6.8-3.2,6.8-7.5c0-4.6-2.3-7.2-6.8-7.2c-3.2,0-5.4,1.8-6.3,4.4H25V33.7
			H46.2z"/>
	</g>
</g>
<g>
	<circle class="st1" cx="40.4" cy="159.2" r="18.1"/>
	<g>
		<path class="st2" d="M32,158.9c0-0.6,0-1.2,0-1.8c-0.2,0-0.4,0-0.6,0c-0.5,0-0.9,0-1.4,0c-0.4,0-0.6-0.1-0.6-0.4
			c0-0.3,0.2-0.4,0.6-0.4c0.6,0,1.2,0,1.7,0c0.1,0,0.2,0,0.3,0c0-0.6,0-1.2,0-1.8c-0.1,0-0.2,0-0.2,0c-0.6,0-1.3,0-1.9,0
			c-0.3,0-0.4-0.1-0.4-0.4s0.2-0.4,0.4-0.4c0.7,0,1.4,0,2.2,0c0-0.1,0-0.2,0-0.3c0-0.7,0-1.5,0-2.2c0-0.5,0.1-0.6,0.5-0.6
			c0.7,0,1.5,0,2.2,0c0.1,0,0.2,0,0.3,0c0-0.4,0-0.8,0-1.2c0-0.3,0-0.7,0-1c0-0.2,0.1-0.4,0.3-0.4s0.4,0.2,0.4,0.4
			c0,0.6,0,1.3,0,1.9c0,0.1,0,0.2,0,0.3c0.6,0,1.2,0,1.8,0c0-0.1,0-0.3,0-0.4c0-0.6,0-1.2,0-1.8c0-0.3,0.1-0.4,0.3-0.4
			s0.4,0.2,0.4,0.4c0,0.1,0,0.1,0,0.2c0,0.6,0,1.2,0,1.8c0,0.1,0,0.2,0,0.2c0.6,0,1.2,0,1.8,0c0-0.2,0-0.4,0-0.6c0-0.5,0-1.1,0-1.6
			c0-0.3,0.1-0.4,0.4-0.4c0.2,0,0.3,0.2,0.3,0.4c0,0.6,0,1.3,0,1.9c0,0.1,0,0.2,0,0.3c0.6,0,1.2,0,1.8,0c0-0.1,0-0.2,0-0.2
			c0-0.7,0-1.3,0-2c0-0.2,0.1-0.4,0.3-0.4s0.3,0.1,0.4,0.2c0,0.1,0,0.2,0,0.3c0,0.6,0,1.2,0,1.9c0,0.1,0,0.2,0,0.3
			c0.6,0,1.2,0,1.8,0c0-0.1,0-0.2,0-0.2c0-0.6,0-1.3,0-1.9c0-0.3,0.1-0.4,0.4-0.4c0.2,0,0.4,0.2,0.4,0.4c0,0.6,0,1.3,0,1.9
			c0,0.1,0,0.1,0,0.2c0.1,0,0.2,0,0.3,0c0.8,0,1.5,0,2.3,0c0.3,0,0.5,0.1,0.5,0.5c0,0.8,0,1.7,0,2.6c0.1,0,0.2,0,0.2,0
			c0.6,0,1.3,0,1.9,0c0.3,0,0.4,0.1,0.4,0.4s-0.2,0.4-0.4,0.4c-0.7,0-1.4,0-2.2,0c0,0.6,0,1.2,0,1.8c0.1,0,0.2,0,0.2,0
			c0.6,0,1.2,0,1.8,0c0.1,0,0.1,0,0.2,0c0.2,0,0.3,0.2,0.3,0.3c0,0.2-0.1,0.3-0.3,0.3c-0.3,0-0.6,0-1,0s-0.9,0-1.3,0
			c0,0.6,0,1.2,0,1.8c0.1,0,0.2,0,0.2,0c0.6,0,1.3,0,1.9,0c0.3,0,0.4,0.1,0.4,0.4s-0.2,0.4-0.4,0.4c-0.7,0-1.4,0-2.2,0
			c0,0.6,0,1.2,0,1.8c0.1,0,0.3,0,0.4,0c0.6,0,1.1,0,1.7,0c0.3,0,0.5,0.1,0.5,0.3s-0.2,0.4-0.5,0.4c-0.6,0-1.2,0-1.9,0
			c-0.1,0-0.2,0-0.3,0c0,0.6,0,1.2,0,1.8c0.1,0,0.1,0,0.2,0c0.6,0,1.3,0,1.9,0c0.3,0,0.4,0.1,0.5,0.4c0,0.2-0.2,0.4-0.4,0.4
			c-0.7,0-1.4,0-2.2,0c0,0.1,0,0.2,0,0.3c0,0.7,0,1.5,0,2.2c0,0.5-0.1,0.6-0.5,0.6c-0.7,0-1.5,0-2.2,0c-0.1,0-0.2,0-0.3,0
			c0,0.5,0,1,0,1.5c0,0.2,0,0.5,0,0.7s-0.1,0.4-0.3,0.4s-0.4-0.2-0.4-0.4c0-0.6,0-1.3,0-1.9c0-0.1,0-0.2,0-0.3c-0.6,0-1.2,0-1.8,0
			c0,0.2,0,0.3,0,0.5c0,0.6,0,1.1,0,1.7c0,0.3-0.1,0.4-0.3,0.4s-0.4-0.2-0.4-0.4c0-0.6,0-1.3,0-1.9c0-0.1,0-0.2,0-0.3
			c-0.6,0-1.2,0-1.8,0c0,0.3,0,0.6,0,0.9c0,0.5,0,0.9,0,1.4c0,0.2-0.2,0.4-0.4,0.4s-0.3-0.2-0.3-0.4c0-0.7,0-1.5,0-2.2
			c-0.6,0-1.2,0-1.8,0c0,0.1,0,0.2,0,0.3c0,0.6,0,1.3,0,1.9c0,0.2-0.1,0.4-0.3,0.4s-0.3-0.1-0.4-0.3c0-0.1,0-0.1,0-0.2
			c0-0.6,0-1.2,0-1.8c0-0.1,0-0.2,0-0.3c-0.6,0-1.2,0-1.8,0c0,0.1,0,0.3,0,0.4c0,0.6,0,1.2,0,1.8c0,0.3-0.1,0.4-0.4,0.4
			c-0.2,0-0.3-0.2-0.3-0.4c0-0.6,0-1.3,0-1.9c0-0.1,0-0.1,0-0.2c-0.4,0-0.7,0-1.1,0c-0.5,0-1,0-1.5,0c-0.4,0-0.5-0.1-0.5-0.5
			c0-0.8,0-1.7,0-2.5c-0.1,0-0.2,0-0.3,0c-0.6,0-1.3,0-1.9,0c-0.3,0-0.4-0.1-0.4-0.4s0.2-0.4,0.4-0.4c0.6,0,1.3,0,1.9,0
			c0.1,0,0.1,0,0.2,0c0-0.6,0-1.2,0-1.8c-0.1,0-0.2,0-0.2,0c-0.6,0-1.2,0-1.8,0c-0.1,0-0.1,0-0.2,0c-0.2,0-0.4-0.2-0.4-0.4
			s0.2-0.3,0.4-0.3c0.4,0,0.8,0,1.2,0c0.3,0,0.7,0,1,0c0-0.6,0-1.2,0-1.8c-0.1,0-0.2,0-0.2,0c-0.6,0-1.3,0-1.9,0
			c-0.3,0-0.4-0.1-0.4-0.4s0.2-0.4,0.4-0.4C30.6,158.9,31.3,158.9,32,158.9z M48.1,166.9c0-5.1,0-10.2,0-15.3c-5.1,0-10.2,0-15.3,0
			c0,5.1,0,10.2,0,15.3C37.9,166.9,43,166.9,48.1,166.9z"/>
		<path class="st2" d="M40.4,165.8c-2,0-4,0-6.1,0c-0.4,0-0.5-0.1-0.5-0.5c0-4,0-8.1,0-12.1c0-0.4,0.1-0.5,0.5-0.5c4,0,8.1,0,12.1,0
			c0.4,0,0.5,0.1,0.5,0.5c0,4,0,8.1,0,12.1c0,0.4-0.1,0.5-0.5,0.5C44.5,165.8,42.4,165.8,40.4,165.8z M34.6,165.1
			c3.9,0,7.8,0,11.7,0c0-3.9,0-7.8,0-11.7c-3.9,0-7.8,0-11.7,0C34.6,157.3,34.6,161.2,34.6,165.1z"/>
		<path class="st2" d="M42.7,159.6c0,0.4,0,0.8,0,1.2c0,0.5-0.2,0.8-0.8,0.8h-0.1c0,0.3,0,0.5,0,0.8c0.2,0,0.4,0,0.5,0
			s0.1-0.1,0.2-0.2c0.3-0.5,0.8-0.7,1.3-0.5s0.8,0.7,0.7,1.2s-0.6,0.9-1.1,0.9c-0.4,0-0.7-0.2-0.9-0.6c-0.1-0.1-0.1-0.2-0.3-0.2
			s-0.5,0-0.7,0c-0.3,0-0.4-0.1-0.5-0.4c0-0.3,0-0.7,0-1c-0.5,0-0.9,0-1.4,0c0,0.3,0,0.6,0,1s-0.1,0.5-0.5,0.5c-0.1,0-0.2,0-0.2,0
			c-0.3,0-0.6,0-0.8,0.3c-0.4,0.5-1.1,0.5-1.6,0.1c-0.4-0.4-0.4-1.2,0.1-1.6c0.5-0.4,1.2-0.4,1.5,0.2c0.2,0.4,0.5,0.3,0.8,0.3
			c0-0.3,0-0.5,0-0.7c-0.1,0-0.2,0-0.3,0c-0.4,0-0.6-0.3-0.6-0.7s0-0.7,0-1c0-0.1,0-0.2,0-0.3c-0.2,0-0.4,0-0.5,0s-0.1,0.1-0.2,0.2
			c-0.3,0.4-0.7,0.6-1.2,0.5s-0.8-0.5-0.8-1s0.3-0.9,0.8-1c0.4-0.1,0.9,0.1,1.2,0.5c0.1,0.2,0.2,0.3,0.4,0.2c0.1,0,0.2,0,0.3,0
			c0-0.2,0-0.4,0-0.6c0-0.2,0-0.4,0-0.7c0-0.4,0.3-0.7,0.7-0.7c0.2,0,0.3-0.1,0.2-0.2c0-0.2,0-0.3,0-0.5c-0.2,0-0.4,0-0.5,0
			s-0.1,0.1-0.2,0.2c-0.2,0.4-0.6,0.6-1,0.5c-0.5,0-0.8-0.3-0.9-0.7c-0.2-0.4-0.1-0.8,0.2-1.1c0.5-0.6,1.4-0.4,1.7,0.2
			c0.1,0.1,0.1,0.2,0.3,0.2s0.4,0,0.7,0s0.5,0.1,0.5,0.5s0,0.7,0,1c0.5,0,0.9,0,1.4,0c0-0.3,0-0.7,0-1c0-0.4,0.1-0.5,0.5-0.5
			c0.1,0,0.2,0,0.3,0c0.3,0,0.6,0,0.8-0.3c0.4-0.5,1.1-0.5,1.6-0.1c0.4,0.4,0.4,1.1,0,1.6c-0.5,0.4-1.2,0.4-1.6-0.1
			c-0.3-0.3-0.3-0.3-0.8-0.3c0,0.2,0,0.4,0,0.6c0,0,0.1,0.1,0.2,0.1c0.6,0,0.8,0.3,0.8,0.8c0,0.4,0,0.7,0,1.1c0,0,0,0,0,0.1
			c0.2,0,0.3,0,0.5,0c0.1,0,0.1-0.1,0.2-0.2c0.3-0.6,1-0.7,1.6-0.4c0.5,0.4,0.6,1.1,0.2,1.6c-0.5,0.6-1.3,0.5-1.7-0.1
			c-0.1-0.2-0.3-0.3-0.5-0.2C42.9,159.6,42.9,159.6,42.7,159.6z M38.8,157.6c0,1.1,0,2.1,0,3.2c1.1,0,2.1,0,3.2,0c0-1.1,0-2.1,0-3.2
			C41,157.6,39.9,157.6,38.8,157.6z M37.4,155.4c-0.2,0-0.4,0.2-0.4,0.4s0.2,0.4,0.4,0.4s0.4-0.2,0.4-0.4
			C37.8,155.6,37.6,155.4,37.4,155.4z M43.8,155.8c0-0.2-0.2-0.4-0.4-0.4s-0.4,0.2-0.4,0.4s0.2,0.4,0.4,0.4
			C43.6,156.1,43.8,156,43.8,155.8z M36.5,159.6c0.2,0,0.4-0.1,0.4-0.3s-0.1-0.4-0.3-0.4s-0.4,0.1-0.4,0.3
			C36.1,159.4,36.2,159.6,36.5,159.6z M37.4,162.3c-0.2,0-0.4,0.2-0.4,0.4s0.2,0.4,0.4,0.4s0.4-0.2,0.4-0.4
			C37.8,162.5,37.6,162.3,37.4,162.3z M43.8,162.7c0-0.2-0.2-0.4-0.4-0.4s-0.4,0.2-0.4,0.4s0.2,0.4,0.4,0.4
			C43.7,163,43.8,162.9,43.8,162.7z M44.4,158.9c-0.2,0-0.4,0.1-0.4,0.4c0,0.2,0.1,0.4,0.4,0.4c0.2,0,0.4-0.1,0.4-0.4
			C44.7,159,44.6,158.9,44.4,158.9z"/>
	</g>
	<circle class="st3" cx="69" cy="159.2" r="18.1"/>
	<g>
		<path class="st2" d="M60.8,159c0.2-1.3,0.9-2.1,2-2.1c0.6,0,1.1,0.2,1.6,0.6c0.4,0.4,0.6,0.9,0.6,1.6c0.1,0,0.2,0,0.3,0
			c0.8,0,1.6,0,2.3,0c0.3,0,0.4,0.1,0.5,0.4c0.2,1.3,0.3,2.6,0.5,3.8c0.1,0.7,0.2,1.4,0.3,2.1c0.1,0,0.2,0,0.3,0c2,0,4.1,0,6.2,0
			c0.9,0,1.4-0.4,1.6-1.3c0.3-1.7,0.7-3.5,1-5.2c0-0.1,0-0.1,0-0.2c-0.1,0-0.2,0-0.3,0c-4,0-7.9,0-11.9,0c-0.1,0-0.2,0-0.3,0
			c-0.2,0-0.3-0.2-0.3-0.3c0-0.2,0.1-0.3,0.3-0.3c0.1,0,0.2,0,0.3,0c4.4,0,8.8,0,13.2,0c0.4,0,0.4,0,0.4-0.4c0-0.2,0-0.4,0-0.6
			c0-0.2-0.1-0.2-0.2-0.2s-0.2,0-0.2,0c-5.3,0-10.7,0-16,0c-0.1,0-0.2,0-0.3,0c-0.2,0-0.4-0.2-0.4-0.3s0.1-0.3,0.3-0.4
			c0.2,0,0.5,0,0.7,0c0,0,0.1,0,0.2,0c0-0.1,0-0.2,0-0.2c0-0.9,0-1.8,0-2.7c0-0.8,0.2-1.1,1-1.3c-0.1-0.6,0.1-1.1,0.8-1.2
			c0-0.4,0-0.8,0-1.2c-0.2,0-0.3,0-0.5,0c-0.3,0-0.6,0-0.9,0c-0.2,0-0.3-0.2-0.3-0.3c0-0.2,0.1-0.3,0.3-0.4c0.1,0,0.1,0,0.2,0
			c0.9,0,1.7,0,2.6,0c0.4,0,0.5,0.1,0.5,0.5c0,0.5,0,0.9,0,1.4c0.7,0.1,0.8,0.6,0.8,1.3h0.1c0-0.1,0.1-0.1,0.1-0.2
			c0.2-0.5,0.5-1.1,0.8-1.6c0.2-0.3,0.4-0.6,0.7-0.8c0.6-0.5,1.3-0.5,1.9,0c0.5,0.4,0.9,0.9,1.1,1.5c0.2,0.3,0.3,0.7,0.4,1.1
			c0.1-0.2,0.2-0.3,0.3-0.5c-0.4-0.2-0.4-0.6-0.4-0.9c0-0.2,0-0.4,0-0.5c0-0.4,0.3-0.8,0.8-0.8c1.2,0,2.4,0,3.6,0
			c0.5,0,0.8,0.3,0.8,0.8c0,0.2,0,0.4,0,0.6c0,0.3-0.1,0.6-0.4,0.8c0.9,1.5,1.2,3.1,1.2,4.7c0.1,0,0.2,0,0.2,0
			c0.5,0.1,0.8,0.4,0.8,0.9c0,0.3,0,0.6,0,0.9c0,0.5-0.4,0.9-0.9,0.9s-0.5,0-0.6,0.5c-0.3,1.7-0.7,3.4-1,5.2c-0.2,1.1-1,1.8-2.2,1.8
			c-1.9,0-3.8,0-5.7,0c-0.2,0-0.4,0-0.6,0c0,0.4,0.1,0.8,0.1,1.2c0,0.3,0.1,0.6,0.1,0.9c0,0.1,0,0.3-0.1,0.4
			c-0.3,0.4-0.6,0.8-0.9,1.2c-0.1,0.2-0.3,0.2-0.5,0.2c-2.2,0-4.5,0-6.7,0c-0.8,0-1.6,0-2.4,0c-0.4,0-0.6-0.1-0.5-0.6
			c0.2-1.6,0.3-3.2,0.4-4.8c0.2-1.7,0.3-3.4,0.5-5.1c0-0.4,0.1-0.5,0.6-0.5C59.9,159,60.4,159,60.8,159z M59,167.3
			c2.8,0,5.6,0,8.3,0c-0.2-2.5-0.4-5.1-0.6-7.6c-0.6,0-1.1,0-1.6,0c0,0.2,0,0.3,0,0.5c0,0.1,0.1,0.2,0.1,0.3c0.3,0.3,0.3,0.8,0,1.1
			s-0.8,0.3-1.1,0c-0.3-0.3-0.3-0.8,0-1.1c0,0,0.1-0.1,0.1-0.2c0-0.2,0-0.4,0-0.6c-0.9,0-1.9,0-2.8,0c0,0.2,0,0.3,0,0.5
			c0,0.1,0,0.2,0.1,0.3c0.3,0.3,0.3,0.8,0,1.1s-0.8,0.3-1.1,0s-0.3-0.8,0.1-1.1c0,0,0.1-0.1,0.1-0.2c0-0.2,0-0.4,0-0.6
			c-0.4,0-0.8,0-1.2,0C59.4,162.3,59.2,164.8,59,167.3z M72.9,155.9L72.9,155.9c0.1-1.6-0.1-3.2-0.7-4.7c-0.2-0.5-0.4-0.9-0.7-1.3
			c-0.5-0.6-1.2-0.6-1.7,0c-0.3,0.3-0.5,0.7-0.7,1.1c-0.5,1.1-0.7,2.4-0.8,3.6c0,0.4,0,0.8,0,1.3C69.9,155.9,71.4,155.9,72.9,155.9z
			 M67.9,152.4c-0.1,0-0.2,0-0.2,0c-1,0-2,0-3,0c-0.4,0-0.5,0.1-0.5,0.5c0,0.9,0,1.9,0,2.8c0,0.1,0,0.1,0,0.2c1.1,0,2.2,0,3.4,0
			C67.6,154.7,67.7,153.5,67.9,152.4z M67.4,168.1c-2.8,0-5.6,0-8.5,0c0,0.4-0.1,0.8-0.1,1.1c2.9,0,5.8,0,8.7,0
			C67.4,168.8,67.4,168.4,67.4,168.1z M73.6,155.9c1.6,0,3.1,0,4.7,0c-0.1-0.6-0.1-1.2-0.2-1.8c-1.6,0-3.1,0-4.6,0
			C73.6,154.7,73.6,155.3,73.6,155.9z M78,153.3c-0.2-0.7-0.5-1.4-0.9-2c0,0-0.1-0.1-0.2-0.1c-0.8,0-1.6,0-2.5,0
			c-0.1,0-0.2,0-0.2,0.1c-0.3,0.5-0.5,1-0.7,1.5c-0.1,0.3,0,0.5,0.3,0.5c1,0,2,0,3,0C77.2,153.3,77.6,153.3,78,153.3z M73.8,150.6
			c1.2,0,2.4,0,3.6,0l0.1-0.1c0-0.3,0-0.5,0-0.8c-0.2,0-0.4,0-0.6,0c-0.9,0-1.9,0-2.8,0c-0.1,0-0.2,0-0.2,0.1
			C73.8,150,73.8,150.3,73.8,150.6z M61.6,159c0.9,0,1.8,0,2.7,0c0.1-0.7-0.6-1.4-1.3-1.4C62.2,157.6,61.5,158.2,61.6,159z
			 M68.1,168.6c0.3-0.2,0.3-0.5,0.3-0.8c-0.1-0.6-0.2-1.3-0.2-1.9c-0.2-1.7-0.4-3.5-0.6-5.2c0-0.3-0.1-0.6-0.1-0.8l0,0
			C67.6,162.7,67.9,165.6,68.1,168.6z M67.3,151.6c0-0.1,0-0.1,0-0.2c0-0.3,0-0.3-0.3-0.3c-0.4,0-0.9,0-1.3,0c-0.5,0-0.5,0-0.4,0.5
			c0,0,0,0,0,0.1C65.9,151.6,66.6,151.6,67.3,151.6z M66.5,149.2c-0.2,0-0.3,0-0.4,0c0,0.4,0,0.8,0,1.2c0.2,0,0.3,0,0.4,0
			C66.5,150,66.5,149.6,66.5,149.2z"/>
		<path class="st2" d="M76,160.4c-0.1,0.5-0.2,1-0.2,1.5c-0.1,0.5-0.2,1.1-0.3,1.6c-0.1,0.6-0.6,1-1.1,0.8c-0.5-0.1-0.7-0.6-0.6-1.1
			c0.1-0.4,0.2-0.9,0.2-1.3c0.1-0.5,0.2-1.1,0.3-1.6c0.1-0.5,0.4-0.8,0.9-0.8c0.4,0,0.8,0.3,0.9,0.7C76,160.2,76,160.3,76,160.4z
			 M74.5,163.4c0,0,0.1,0.1,0.2,0.2c0.1-0.1,0.2-0.1,0.2-0.2c0.2-1,0.3-2,0.5-3c0-0.1,0-0.2-0.1-0.3c-0.1,0-0.2,0.1-0.2,0.2
			c0,0.2-0.1,0.5-0.1,0.7C74.7,161.8,74.6,162.6,74.5,163.4z"/>
		<path class="st2" d="M71.3,163.3c0.1-1.1,0.2-2.1,0.2-3.1c0-0.5,0.5-0.8,0.9-0.8c0.5,0,0.8,0.5,0.8,0.9c-0.1,0.9-0.1,1.8-0.2,2.7
			c0,0.2,0,0.4,0,0.5c-0.1,0.5-0.5,0.8-0.9,0.8C71.6,164.3,71.3,163.9,71.3,163.3C71.3,163.4,71.3,163.3,71.3,163.3z M72.4,161.9
			c0-0.5,0.1-1,0.1-1.5c0-0.1-0.1-0.2-0.1-0.2c-0.1,0-0.2,0.1-0.2,0.2c-0.1,1-0.1,2-0.2,3c0,0.1,0,0.3,0.2,0.3s0.2-0.1,0.2-0.3
			C72.4,162.9,72.4,162.4,72.4,161.9z"/>
		<path class="st2" d="M68.6,160.3c0-0.5,0.3-0.9,0.8-0.9s0.9,0.3,0.9,0.9c0.1,1,0.1,2,0.2,2.9c0,0.2,0,0.4,0,0.5
			c-0.1,0.4-0.5,0.6-0.9,0.6s-0.8-0.4-0.8-0.8C68.7,162.5,68.6,161.4,68.6,160.3z M69.9,163.4L69.9,163.4c-0.1-0.7-0.1-1.3-0.2-2
			c0-0.4,0-0.7-0.1-1.1c0-0.1-0.1-0.2-0.2-0.2s-0.2,0.1-0.2,0.2v0.1c0.1,1,0.1,1.9,0.2,2.9c0,0.1,0,0.3,0.2,0.2
			C69.7,163.6,69.8,163.5,69.9,163.4z"/>
		<path class="st2" d="M70.5,153.9c-0.5,0-0.8-0.1-1.1-0.1c-0.2,0-0.4-0.2-0.3-0.4c0-0.2,0.2-0.3,0.4-0.3c0.8,0.1,1.6,0.1,2.4,0
			c0.2,0,0.4,0.1,0.4,0.3s-0.1,0.4-0.3,0.4C71.4,153.8,70.9,153.8,70.5,153.9z"/>
		<path class="st2" d="M70.6,155.7c-0.4,0-0.8-0.1-1.2-0.1c-0.2,0-0.4-0.2-0.3-0.4c0-0.2,0.2-0.3,0.4-0.3c0.8,0.1,1.5,0.1,2.3,0
			c0.3,0,0.6,0.2,0.4,0.5c-0.1,0.1-0.2,0.2-0.3,0.2C71.4,155.7,71,155.7,70.6,155.7z"/>
	</g>
	<circle class="st4" cx="97.5" cy="159.2" r="18.1"/>
	<g>
		<path class="st2" d="M103.4,164.9c0,0.9,0,1.8,0,2.8c0.3,0,0.5,0,0.8,0c0.4,0,0.8,0,1.2,0c0.1,0,0.2,0,0.2-0.2
			c0.3-0.6,0.8-0.9,1.5-0.8s1,0.7,1,1.3s-0.4,1.2-1,1.3s-1.2-0.2-1.5-0.8c0-0.1-0.1-0.1-0.2-0.1c-0.7,0-1.3,0-2,0c0,0.4,0,0.8,0,1.1
			c0,0.4-0.1,0.5-0.5,0.5c-3.6,0-7.2,0-10.8,0c-0.4,0-0.5-0.1-0.5-0.5s0-0.7,0-1.1c-0.7,0-1.4,0-2.1,0c-0.2,0.5-0.5,0.8-1,0.9
			c-0.7,0.1-1.3-0.3-1.5-0.9c-0.2-0.6,0.1-1.3,0.7-1.6s1.4-0.1,1.7,0.5c0.1,0.3,0.3,0.3,0.5,0.3c0.5,0,1.1,0,1.6,0c0,0,0,0,0.1,0
			c0-0.9,0-1.8,0-2.7c-0.1,0-0.1,0-0.2,0c-0.2,0-0.5,0-0.7,0c-0.6,0.1-1.1-0.1-1.5-0.6c-0.3-0.3-0.6-0.6-0.9-0.9l-0.2-0.1
			c-0.6,0.2-1.3,0-1.6-0.6c-0.3-0.5-0.2-1.2,0.3-1.6c0.5-0.4,1.1-0.5,1.6-0.1s0.7,1,0.4,1.6c-0.1,0.1-0.1,0.2,0.1,0.3
			c0.4,0.4,0.7,0.8,1.1,1.1c0.1,0.1,0.2,0.1,0.3,0.1c0.4,0,0.8,0,1.2,0c0-0.4,0-0.8,0-1.2c-0.3,0-0.6,0-0.8,0c-0.2,0-0.3,0-0.4-0.2
			s0-0.3,0.1-0.5c1.2-1.3,2.4-2.5,3.6-3.8c0.1-0.1,0.2-0.2,0.2-0.4c0-1.6,0-3.3,0-5c0-0.1,0-0.2,0-0.2c-0.1,0-0.2,0-0.2,0
			c-1.6,0-3.2,0-4.8,0c-0.1,0-0.2,0-0.3,0.2c-0.3,0.5-1,0.7-1.5,0.5c-0.6-0.2-0.9-0.8-0.8-1.4c0.1-0.6,0.6-1.1,1.2-1.1
			s1.1,0.4,1.3,1c0,0.1,0,0.1,0,0.2c0.1,0,0.2,0,0.3,0c1.7,0,3.4,0,5.1,0c0.4,0,0.5,0.1,0.5,0.5c0,1.5,0,3,0,4.5c0,0.1,0,0.2,0,0.3
			c0.2-0.2,0.4-0.4,0.6-0.6c0.6-0.6,1.1-1.2,1.7-1.8c0.3-0.3,0.4-0.3,0.7,0c0.8,0.8,1.5,1.6,2.3,2.4c0.1,0.1,0.1,0.1,0.2,0.2
			c0-0.3,0-0.5,0-0.7c0-0.5,0.1-0.5,0.5-0.5c0.6,0,1.3,0,1.9,0c0.3,0,0.5,0.1,0.5,0.5c0,1.2,0,2.5,0,3.7c0,0.2,0,0.3,0.2,0.4
			c0.4,0.4,0.8,0.8,1.1,1.2c0.1,0.1,0.2,0.3,0.1,0.4c-0.1,0.2-0.2,0.2-0.4,0.2c-0.3,0-0.6,0-0.9,0c0,0.4,0,0.8,0,1.2
			c0.4,0,0.8,0,1.3,0c0,0,0.1,0,0.1-0.1c0.4-0.5,0.9-0.9,1.3-1.4c-0.2-0.4-0.3-0.7-0.1-1.1c0.2-0.6,0.8-1,1.5-0.9s1.1,0.7,1,1.4
			c-0.1,0.6-0.6,1.2-1.3,1.2c-0.1,0-0.2,0-0.3,0c-0.2-0.1-0.3,0-0.5,0.1c-0.4,0.4-0.8,0.8-1.2,1.3c-0.1,0.1-0.3,0.2-0.5,0.2
			C104.3,164.9,103.9,164.9,103.4,164.9z M91.5,162.4c0.1,0,0.2,0,0.3,0c0.5,0,0.5,0.1,0.5,0.5c0,2.1,0,4.1,0,6.2c0,0.1,0,0.2,0,0.3
			c0.9,0,1.9,0,2.8,0c0-0.1,0-0.2,0-0.3c0-1.6,0-3.2,0-4.7c0-0.4,0.1-0.5,0.5-0.5c1.2,0,2.5,0,3.7,0c0.4,0,0.5,0.1,0.5,0.5
			c0,1.6,0,3.1,0,4.7c0,0.1,0,0.2,0,0.3c0.9,0,1.8,0,2.8,0c0-0.1,0-0.2,0-0.3c0-2.1,0-4.1,0-6.2c0-0.1,0-0.1,0-0.2
			c0-0.2,0.1-0.3,0.4-0.3c0.2,0,0.3,0,0.5,0c-0.3-0.3-0.5-0.6-0.8-0.8c-0.1-0.1-0.2-0.3-0.2-0.5c0-1.1,0-2.3,0-3.4
			c0-0.1,0-0.2,0-0.2c-0.5,0-1,0-1.5,0c0,0.5,0,0.9,0,1.4c0,0.1-0.1,0.2-0.1,0.3c-0.1,0.1-0.3,0.1-0.5-0.1c-0.8-0.8-1.5-1.6-2.3-2.4
			c-0.2-0.2-0.4-0.4-0.6-0.6C95.5,158.1,93.5,160.2,91.5,162.4z M95.9,164.5c0,1.6,0,3.2,0,4.8c1.1,0,2.2,0,3.3,0c0-1.6,0-3.2,0-4.8
			C98.1,164.5,97,164.5,95.9,164.5z M107.4,168.1c0-0.3-0.3-0.6-0.6-0.6c-0.3,0-0.6,0.3-0.6,0.6s0.3,0.6,0.6,0.6
			C107.1,168.7,107.4,168.4,107.4,168.1z M88.9,168c0-0.3-0.3-0.6-0.6-0.6c-0.3,0-0.6,0.3-0.6,0.6s0.3,0.6,0.6,0.6
			S88.9,168.4,88.9,168z M88.4,162.1c0-0.3-0.3-0.6-0.6-0.6c-0.3,0-0.6,0.3-0.6,0.6s0.3,0.6,0.6,0.6
			C88.2,162.7,88.4,162.5,88.4,162.1z M88.4,152.5c0-0.3-0.3-0.6-0.6-0.6c-0.3,0-0.6,0.3-0.6,0.6s0.3,0.6,0.6,0.6
			C88.2,153.1,88.4,152.8,88.4,152.5z M107.2,162.7c0.3,0,0.6-0.3,0.6-0.6s-0.3-0.6-0.6-0.6c-0.3,0-0.6,0.3-0.6,0.6
			C106.6,162.5,106.9,162.7,107.2,162.7z"/>
		<path class="st2" d="M100.5,148.4c3,0.1,5.6,2.4,6,5.4c0,0.3,0.1,0.6,0.1,0.9c0,0.3-0.1,0.4-0.3,0.4c-0.2,0-0.4-0.1-0.4-0.4
			c0-1.2-0.4-2.3-1.1-3.3c-1.1-1.4-2.6-2.2-4.4-2.3c-0.1,0-0.2,0-0.2,0c-0.2,0-0.3-0.2-0.3-0.4s0.1-0.3,0.3-0.3
			C100.3,148.4,100.4,148.4,100.5,148.4z"/>
		<path class="st2" d="M104.8,154.6L104.8,154.6c0,0.4-0.1,0.5-0.3,0.5c-0.2,0-0.3-0.1-0.4-0.4c-0.1-2-1.4-3.5-3.3-3.8
			c-0.2,0-0.4,0-0.5,0c-0.3,0-0.4-0.2-0.4-0.4s0.1-0.3,0.4-0.3c2.2,0,4.2,1.8,4.5,3.9C104.8,154.3,104.8,154.4,104.8,154.6
			L104.8,154.6z"/>
		<path class="st2" d="M100.2,153.5c0.7,0,1.2,0.6,1.2,1.2c0,0.7-0.5,1.2-1.2,1.2s-1.2-0.5-1.2-1.2C99,154.1,99.5,153.5,100.2,153.5
			z M100.2,154.2c-0.3,0-0.5,0.3-0.5,0.5c0,0.3,0.2,0.5,0.5,0.5s0.5-0.2,0.5-0.5C100.8,154.4,100.5,154.2,100.2,154.2z"/>
		<path class="st2" d="M100.4,151.9c1.4,0.1,2.6,1.2,2.7,2.7c0,0.1,0,0.2,0,0.2c0,0.2-0.2,0.3-0.3,0.3c-0.2,0-0.3-0.1-0.3-0.3
			s0-0.3-0.1-0.5c-0.2-1-1-1.7-2-1.7c-0.3,0-0.5-0.2-0.4-0.5C100,151.9,100.2,151.9,100.4,151.9z"/>
		<path class="st2" d="M97.5,158c0.8,0,1.4,0.6,1.4,1.4c0,0.7-0.6,1.4-1.4,1.4s-1.4-0.6-1.4-1.4C96.2,158.6,96.8,158,97.5,158z
			 M97.5,158.7c-0.4,0-0.7,0.3-0.7,0.7s0.3,0.7,0.7,0.7c0.4,0,0.7-0.3,0.7-0.7S97.9,158.7,97.5,158.7z"/>
	</g>
	<circle class="st5" cx="126" cy="159.2" r="18.1"/>
	<g>
		<path class="st2" d="M132,167.9c-0.8,0.4-1.5,0.8-2.3,1.1c-0.5,0.2-1.1,0.3-1.6,0.5c-0.1,0-0.2,0.1-0.2,0.2
			c-0.2,0.9-1,1.5-1.9,1.5s-1.7-0.6-1.9-1.5c0-0.1-0.1-0.2-0.2-0.2c-1.4-0.3-2.6-0.8-3.7-1.6c0,0,0,0-0.1,0
			c-0.3,0.3-0.7,0.4-1.2,0.4c-0.8,0-1.4-0.3-1.7-1c-0.4-0.7-0.3-1.3,0.1-2c0.1-0.1,0.1-0.2,0-0.3c-0.7-1.1-1.2-2.3-1.5-3.6
			c0-0.1-0.1-0.2-0.2-0.2c-0.9-0.2-1.5-1-1.5-1.9s0.6-1.7,1.5-1.9c0.1,0,0.2-0.1,0.2-0.2c0.6-2,0.6-2,1.6-3.8
			c-0.3-0.3-0.4-0.7-0.4-1.2c0-0.8,0.3-1.3,1-1.7c0.6-0.4,1.3-0.3,2,0.1c0.2,0.1,0.3,0.1,0.4,0c1.1-0.7,2.3-1.2,3.5-1.5
			c0.2,0,0.2-0.1,0.3-0.3c0.2-0.9,1-1.5,1.9-1.5s1.7,0.6,1.9,1.5c0,0.1,0.1,0.2,0.2,0.2c1.3,0.3,2.5,0.8,3.7,1.5
			c0.1,0.1,0.2,0.1,0.3,0c0.8-0.5,1.8-0.4,2.4,0.2c0.6,0.7,0.7,1.6,0.2,2.4c-0.1,0.1-0.1,0.2,0,0.3c0.7,1.1,1.2,2.3,1.5,3.7
			c0,0.1,0.1,0.2,0.2,0.2c0.9,0.2,1.5,1,1.5,1.9s-0.6,1.7-1.5,1.9c-0.1,0-0.2,0.1-0.2,0.2c-0.3,1.3-0.8,2.6-1.5,3.7
			c0,0.1,0,0.2,0,0.2c0.5,0.9,0.4,1.8-0.3,2.5C133.8,168.3,132.8,168.4,132,167.9C132,167.8,131.9,167.8,132,167.9z M126.5,161.5
			c-1.1-0.7-2.2-1.4-3.3-2.2c-0.5,0.4-1,0.6-1.6,0.6c-0.5,1.5-1,3.1-1.5,4.6c0,0,0,0.1,0,0.2c0.2,0.2,0.4,0.3,0.6,0.5
			c1.9-0.8,3.8-1.7,5.8-2.5C126.4,162.3,126.4,162,126.5,161.5z M126.7,163.4c-2,0.9-3.9,1.7-5.8,2.6c-0.1,0.5-0.2,0.8-0.2,1.3
			c1,0.7,2.2,1.2,3.5,1.4c0.4-1,1.1-1.4,2.1-1.4c0.4-1.1,0.7-2.2,1.1-3.3C127.1,163.8,126.9,163.6,126.7,163.4z M129.9,161.2
			c0.1,0,0.2-0.1,0.3-0.1c1.2-0.5,2.4-1,3.6-1.5c0.1,0,0.2-0.1,0.2-0.2c0-0.2,0-0.5,0-0.7c-1.6-0.7-3.3-1.5-4.9-2.2c0,0-0.1,0-0.2,0
			c-0.3,0.2-0.6,0.5-0.9,0.7c0.1,0.9,0.2,2,0.3,3c0,0.1,0.1,0.2,0.1,0.2C129.2,160.5,129.6,160.8,129.9,161.2z M120.9,152.5
			c1.6,0.6,3.3,1.2,5,1.8c0.1-0.2,0.2-0.3,0.4-0.4c0.5-0.2,0.4-0.6,0.3-1v-0.1c-0.1-0.6-0.3-1.2-0.4-1.8c-1,0-1.6-0.5-1.9-1.4
			c-1.3,0.3-2.5,0.7-3.5,1.4C120.7,151.6,120.8,152,120.9,152.5z M131.7,153.4c-0.8,0.4-1.5,0.9-2.3,1.3c0,0.4,0,0.7,0.1,1.1l0,0
			c1.6,0.7,3.3,1.5,4.9,2.2c0,0,0.1,0,0.2,0c0.3-0.2,0.6-0.5,0.9-0.7c-0.2-1.2-0.7-2.4-1.5-3.5C133.1,154.2,132.6,154.1,131.7,153.4
			z M134,164.6c0.7-1.1,1.2-2.3,1.5-3.5c-0.4-0.3-0.7-0.5-1.1-0.8c-1.3,0.5-2.6,1.1-4,1.6l-0.1,0.1c0,0.4,0,0.8-0.2,1.2
			c0.6,0.5,1.3,1.1,1.9,1.6C132.6,164.3,133.3,164.3,134,164.6z M119.3,164.3c0.5-1.5,1-3.1,1.5-4.5c-0.3-0.3-0.5-0.6-0.7-0.9
			c0,0-0.1-0.1-0.2-0.1c-0.6,0.1-1.3,0.3-1.9,0.4c-0.1,1-0.4,1.3-1.4,1.9c0.3,1.3,0.7,2.5,1.4,3.5
			C118.4,164.5,118.8,164.4,119.3,164.3z M131.4,165.4c-0.6-0.5-1.2-1-1.8-1.5h-0.2c-0.3,0.1-0.5,0.3-0.7,0.3
			c-0.6,0-0.7,0.3-0.8,0.7c-0.3,0.9-0.6,1.8-0.9,2.7c0.4,0.3,0.7,0.6,0.9,1.1c1.3-0.3,2.5-0.7,3.6-1.5
			C131.1,166.6,131.1,166,131.4,165.4z M127.5,153.4c0.6,0,1.1,0.2,1.5,0.6h0.2c0.7-0.4,1.4-0.8,2-1.2c0,0,0.1-0.1,0.1-0.2
			c-0.1-0.5-0.1-1,0.1-1.4c-1.1-0.7-2.3-1.2-3.6-1.5c-0.2,0.5-0.5,0.9-0.9,1.1c0,0-0.1,0.1-0.1,0.2
			C127.1,151.8,127.3,152.6,127.5,153.4z M116.5,157.3c0.7,0.4,0.7,0.4,1.2,1c0,0,0.1,0.1,0.2,0.1c0.6-0.1,1.3-0.3,2-0.4
			c0-0.6,0.3-1.2,0.8-1.5c-0.4-0.9-0.8-1.7-1.2-2.5c-0.5,0.1-1,0.1-1.4-0.2C117.3,154.9,116.8,156,116.5,157.3z M123.6,158.8
			c1.1,0.7,2.2,1.4,3.3,2.1c0.3-0.1,0.5-0.3,0.7-0.4c0.1,0,0.1-0.1,0.1-0.2c-0.1-1-0.2-1.9-0.3-2.9c0-0.1-0.1-0.2-0.1-0.2
			c-0.5-0.1-0.9-0.3-1.2-0.7c-0.8,0.4-1.5,0.7-2.3,1.1l-0.1,0.1C123.6,158,123.6,158.4,123.6,158.8z M125.6,155c0,0-0.1,0-0.2-0.1
			c-1.5-0.5-3-1.1-4.5-1.6c-0.3-0.1-0.6-0.2-0.8,0.2l-0.1,0.1c0.4,0.8,0.8,1.6,1.2,2.4c0,0,0.1,0.1,0.2,0.1c0.6-0.1,1.2,0.1,1.6,0.5
			c0.1,0.1,0.1,0.2,0.2,0.2c0.8-0.4,1.5-0.7,2.2-1c0.1,0,0.1-0.1,0.1-0.2C125.7,155.5,125.6,155.3,125.6,155z M118.9,167.5
			c0.6,0,1.2-0.5,1.2-1.2c0-0.6-0.5-1.2-1.2-1.2c-0.6,0-1.2,0.5-1.2,1.1C117.7,166.9,118.2,167.5,118.9,167.5z M134.3,166.3
			c0-0.6-0.5-1.2-1.2-1.2c-0.6,0-1.2,0.5-1.2,1.2c0,0.6,0.5,1.2,1.1,1.2C133.7,167.5,134.3,167,134.3,166.3z M127.2,149.1
			c0-0.6-0.5-1.2-1.2-1.2c-0.6,0-1.2,0.5-1.2,1.2s0.5,1.2,1.2,1.2C126.6,150.3,127.2,149.8,127.2,149.1z M118.9,150.9
			c-0.6,0-1.2,0.5-1.2,1.2c0,0.6,0.5,1.2,1.2,1.2c0.6,0,1.2-0.5,1.2-1.2S119.5,150.9,118.9,150.9z M128.7,155.3
			c0-0.6-0.5-1.2-1.2-1.2c-0.6,0-1.2,0.5-1.2,1.2c0,0.6,0.5,1.2,1.2,1.2S128.7,156,128.7,155.3z M122.9,158c0-0.6-0.5-1.2-1.1-1.2
			s-1.2,0.5-1.2,1.2c0,0.6,0.5,1.2,1.2,1.2C122.4,159.2,122.9,158.7,122.9,158z M115.9,160.4c0.6,0,1.2-0.5,1.2-1.1
			s-0.5-1.2-1.2-1.2c-0.6,0-1.2,0.5-1.2,1.1C114.8,159.8,115.3,160.4,115.9,160.4z M137.2,159.2c0-0.6-0.5-1.2-1.2-1.2
			c-0.6,0-1.2,0.5-1.2,1.2c0,0.6,0.5,1.2,1.2,1.2S137.2,159.8,137.2,159.2z M129.5,162.3c0-0.6-0.5-1.2-1.2-1.2
			c-0.6,0-1.2,0.5-1.2,1.2c0,0.6,0.5,1.2,1.2,1.2S129.5,162.9,129.5,162.3z M127.2,169.2c0-0.6-0.5-1.2-1.2-1.2
			c-0.6,0-1.2,0.5-1.2,1.2c0,0.6,0.5,1.2,1.2,1.2C126.6,170.4,127.2,169.9,127.2,169.2z M133.1,150.9c-0.6,0-1.2,0.5-1.2,1.1
			s0.5,1.2,1.2,1.2c0.6,0,1.2-0.5,1.2-1.2C134.3,151.4,133.8,150.9,133.1,150.9z"/>
	</g>
	<circle class="st6" cx="154.6" cy="159.2" r="18.1"/>
	<g>
		<path class="st2" d="M163.7,154.3c-0.6-0.6-1.2-0.8-2-0.8c-1.9,0-3.7,0.1-5.5,0.2c-2,0.1-4,0.1-6,0.2c-0.8,0-1.7,0-2.5,0.1
			c-0.7,0-1.3-0.3-1.7-0.9c-0.2-0.3-0.5-0.7-0.7-1c-0.1-0.2-0.3-0.3-0.5-0.3c-0.1,0-0.3,0-0.4,0c0.1,0.2,0.2,0.5,0.2,0.7
			c0.2,0.5,0.4,1.1,0.6,1.6c0.6,1.4,1.6,2,3.1,2.2c0.5,0,1,0,1.6,0c0.3,0,0.5,0.2,0.5,0.4s-0.2,0.4-0.4,0.4c-0.7,0-1.5,0-2.2-0.1
			c-1.5-0.3-2.5-1.2-3.1-2.6c-0.3-0.7-0.5-1.4-0.8-2.1c-0.2-0.6,0.1-1,0.7-1c0.2,0,0.4,0,0.6,0c0.3,0,0.5,0.1,0.7,0.3
			c0.3,0.4,0.6,0.8,0.9,1.3c0.3,0.4,0.6,0.6,1.1,0.5c2.6-0.1,5.2-0.1,7.8-0.2c0,0,0.1,0,0.2,0c-0.1-0.1-0.1-0.1-0.2-0.2
			c-1.4-1-2.8-2.1-4.2-3.1c-0.1-0.1-0.2-0.1-0.3-0.1c-0.3,0-0.5,0-0.8,0c0.1,0.1,0.1,0.2,0.1,0.2c0.4,0.6,0.9,1.3,1.3,1.9
			c0.2,0.2,0.2,0.5,0,0.6s-0.4,0.1-0.6-0.2c-0.5-0.7-0.9-1.4-1.4-2c-0.2-0.3-0.2-0.5-0.1-0.8c0.2-0.3,0.4-0.4,0.7-0.4
			c1.4,0,0.9-0.2,2.1,0.7c1.5,1.1,3,2.2,4.5,3.3c0.1,0.1,0.2,0.1,0.3,0.1c1.4,0,2.8-0.1,4.2-0.1c0.6,0,1.1,0,1.6,0.2
			c0.3,0.1,0.7,0.3,0.9,0.5c0.4,0.3,0.8,0.6,1.2,0.9c0.5,0.4,0.7,1,0.5,1.5s-0.7,0.9-1.3,0.9c-2.4,0-4.8,0-7.3,0
			c-0.1,0-0.3,0.1-0.4,0.1c-2,1.6-4,3.1-6,4.7c-0.2,0.2-0.4,0.2-0.7,0.2s-0.6,0-0.8,0c-0.3,0-0.6-0.1-0.7-0.4s-0.1-0.5,0.1-0.8
			c1.1-1.5,2.1-3.1,3.2-4.6c0.2-0.2,0.4-0.3,0.6-0.2s0.2,0.3,0,0.6c-1,1.5-2,2.9-3,4.4c0,0.1-0.1,0.2-0.2,0.3c0.3,0,0.6,0,0.9,0
			c0.1,0,0.1-0.1,0.2-0.1c2-1.6,4.1-3.3,6.2-4.9c0.1-0.1,0.3-0.1,0.4-0.1c2.5,0,4.9,0,7.4,0c0.1,0,0.2,0,0.3,0
			c0.5-0.1,0.7-0.5,0.4-0.9c-0.1-0.1-0.2-0.2-0.3-0.2c-0.6,0-1.2,0-1.8,0.1c-0.3,0-0.4-0.1-0.4-0.4c0-0.2,0.2-0.3,0.4-0.4
			c0.1,0,0.2,0,0.3,0C163.2,154.3,163.4,154.3,163.7,154.3z"/>
		<path class="st2" d="M153.2,168.9c0-0.3,0-0.6,0-0.9c0-1.5,0-2.9,0-4.4c0-0.4,0.1-0.5,0.5-0.5c1,0,1.9,0,2.9,0c0.1,0,0.2,0,0.3,0
			c0-0.1,0-0.2,0-0.3c0-1.2,0-2.4,0-3.6c0-0.4,0.1-0.5,0.5-0.5c1.4,0,2.8,0,4.1,0c0.4,0,0.5,0.1,0.5,0.5c0,1.2,0,2.4,0,3.6
			c0,0.1,0,0.2,0,0.3c0.1,0,0.2,0,0.3,0c1,0,1.9,0,2.9,0c0.4,0,0.5,0.1,0.5,0.5c0,1.9,0,3.7,0,5.6c0,0.4-0.1,0.5-0.5,0.5
			c-6.5,0-13,0-19.5,0c-0.1,0-0.1,0-0.2,0c-0.2,0-0.3-0.2-0.3-0.4s0.1-0.3,0.3-0.4c0.1,0,0.2,0,0.2,0c2.4,0,4.8,0,7.2,0
			C153,168.9,153.1,168.9,153.2,168.9z M156.8,163.8c0,0.4,0,0.7,0,1.1c0,0.2-0.2,0.4-0.4,0.4s-0.3-0.2-0.4-0.4c0-0.1,0-0.2,0-0.3
			c0-0.3,0-0.5,0-0.8c-0.8,0-1.5,0-2.2,0c0,1.7,0,3.4,0,5.1c1.7,0,3.4,0,5.1,0c0-1.7,0-3.4,0-5.1
			C158.3,163.8,157.6,163.8,156.8,163.8z M159.8,168.9c1.7,0,3.4,0,5.1,0c0-1.7,0-3.4,0-5.1c-0.7,0-1.4,0-2.2,0c0,0.3,0,0.7,0,1
			s-0.1,0.5-0.4,0.5s-0.4-0.2-0.4-0.5s0-0.6,0-1c-0.7,0-1.5,0-2.2,0C159.8,165.5,159.8,167.2,159.8,168.9z M157.6,163.1
			c1.2,0,2.4,0,3.6,0c0-1.2,0-2.4,0-3.6c-0.5,0-1,0-1.4,0c0,0.4,0,0.7,0,1.1c0,0.3-0.2,0.4-0.4,0.4s-0.3-0.2-0.3-0.4
			c0-0.3,0-0.7,0-1c-0.5,0-1,0-1.4,0C157.6,160.6,157.6,161.8,157.6,163.1z"/>
		<path class="st2" d="M146.2,149.5c-0.5,0-0.9,0-1.4,0c-0.3,0-0.5-0.2-0.4-0.4c0-0.2,0.2-0.4,0.4-0.4c0.9,0,1.8,0,2.8,0
			c0.3,0,0.5,0.2,0.5,0.4s-0.2,0.4-0.4,0.4C147.1,149.5,146.7,149.5,146.2,149.5z"/>
		<path class="st2" d="M145.5,161.2c0.5,0,0.9,0,1.4,0c0.3,0,0.4,0.1,0.4,0.4c0,0.2-0.2,0.4-0.5,0.4c-0.9,0-1.8,0-2.8,0
			c-0.3,0-0.4-0.1-0.4-0.4c0-0.2,0.2-0.4,0.4-0.4C144.6,161.2,145,161.2,145.5,161.2z"/>
		<path class="st2" d="M146.6,160.5c-0.3,0-0.7,0-1,0s-0.4-0.2-0.4-0.4s0.2-0.3,0.4-0.4c0.7,0,1.4,0,2.1,0c0.2,0,0.4,0.2,0.4,0.4
			s-0.2,0.4-0.4,0.4C147.3,160.5,146.9,160.5,146.6,160.5z"/>
		<path class="st2" d="M144,169.6c-0.2,0-0.4-0.2-0.4-0.4s0.2-0.4,0.4-0.4s0.4,0.1,0.4,0.4S144.2,169.6,144,169.6z"/>
	</g>
</g>
</svg>
