<?xml version="1.0" encoding="utf-8"?>
<!-- Generator: Adobe Illustrator 25.2.1, SVG Export Plug-In . SVG Version: 6.00 Build 0)  -->
<svg version="1.1" id="Layer_1" xmlns="http://www.w3.org/2000/svg" xmlns:xlink="http://www.w3.org/1999/xlink" x="0px" y="0px"
	 viewBox="0 0 195 203" style="enable-background:new 0 0 195 203;" xml:space="preserve">
<style type="text/css">
	.st0{stroke:#FFFFFF;stroke-width:0.8;stroke-miterlimit:10;}
	.st1{fill:#FFFFFF;}
	.st2{fill:#282727;stroke:#FFFFFF;stroke-width:0.8;stroke-miterlimit:10;}
	.st3{fill:#3C3C3B;stroke:#FFFFFF;stroke-width:0.8;stroke-miterlimit:10;}
	.st4{fill:#4A4A49;stroke:#FFFFFF;stroke-width:0.8;stroke-miterlimit:10;}
	.st5{fill:#575756;stroke:#FFFFFF;stroke-width:0.8;stroke-miterlimit:10;}
	.st6{fill:#020203;}
</style>
<g>
	<circle class="st0" cx="154.6" cy="159.2" r="18.1"/>
	<g>
		<path class="st1" d="M165.4,159.1c0.2,0,0.4,0.1,0.4,0.4s-0.1,0.4-0.4,0.4c-0.6,0-1.3,0-1.9,0c0,0-0.1,0-0.2,0c0,0.6,0,1.2,0,1.8
			c0.3,0,0.7,0,1,0c0.4,0,0.8,0,1.2,0c0.2,0,0.4,0.1,0.4,0.3s-0.2,0.4-0.4,0.4c-0.1,0-0.1,0-0.2,0c-0.6,0-1.2,0-1.8,0
			c0,0-0.1,0-0.2,0c0,0.6,0,1.2,0,1.8c0.1,0,0.1,0,0.2,0c0.6,0,1.3,0,1.9,0c0.2,0,0.4,0.1,0.4,0.4s-0.1,0.4-0.4,0.4
			c-0.6,0-1.3,0-1.9,0c-0.1,0-0.2,0-0.3,0c0,0.8,0,1.7,0,2.5c0,0.4-0.1,0.5-0.5,0.5c-0.5,0-1,0-1.5,0c-0.4,0-0.7,0-1.1,0
			c0,0.1,0,0.1,0,0.2c0,0.6,0,1.3,0,1.9c0,0.2-0.1,0.4-0.3,0.4c-0.3,0-0.4-0.1-0.4-0.4c0-0.6,0-1.2,0-1.8c0-0.1,0-0.3,0-0.4
			c-0.6,0-1.2,0-1.8,0c0,0.1,0,0.2,0,0.3c0,0.6,0,1.2,0,1.8c0,0.1,0,0.1,0,0.2c-0.1,0.2-0.2,0.3-0.4,0.3c-0.2,0-0.3-0.2-0.3-0.4
			c0-0.6,0-1.3,0-1.9c0-0.1,0-0.2,0-0.3c-0.6,0-1.2,0-1.8,0c0,0.7,0,1.5,0,2.2c0,0.2-0.1,0.4-0.3,0.4s-0.4-0.2-0.4-0.4
			c0-0.5,0-0.9,0-1.4c0-0.3,0-0.6,0-0.9c-0.6,0-1.2,0-1.8,0c0,0.1,0,0.2,0,0.3c0,0.6,0,1.3,0,1.9c0,0.2-0.2,0.4-0.4,0.4
			c-0.2,0-0.3-0.1-0.3-0.4c0-0.6,0-1.1,0-1.7c0-0.2,0-0.3,0-0.5c-0.6,0-1.2,0-1.8,0c0,0.1,0,0.2,0,0.3c0,0.6,0,1.3,0,1.9
			c0,0.2-0.2,0.4-0.4,0.4c-0.2,0-0.3-0.2-0.3-0.4s0-0.5,0-0.7c0-0.5,0-1,0-1.5c-0.1,0-0.2,0-0.3,0c-0.7,0-1.5,0-2.2,0
			c-0.4,0-0.5-0.1-0.5-0.6c0-0.7,0-1.5,0-2.2c0-0.1,0-0.2,0-0.3c-0.8,0-1.5,0-2.2,0c-0.2,0-0.4-0.2-0.4-0.4c0.1-0.3,0.2-0.4,0.5-0.4
			c0.6,0,1.3,0,1.9,0c0.1,0,0.1,0,0.2,0c0-0.6,0-1.2,0-1.8c-0.1,0-0.2,0-0.3,0c-0.7,0-1.3,0-1.9,0c-0.3,0-0.5-0.2-0.5-0.4
			s0.2-0.3,0.5-0.3c0.6,0,1.1,0,1.7,0c0.1,0,0.3,0,0.4,0c0-0.6,0-1.2,0-1.8c-0.8,0-1.5,0-2.2,0c-0.2,0-0.4-0.1-0.4-0.4
			s0.1-0.4,0.4-0.4c0.6,0,1.3,0,1.9,0c0,0,0.1,0,0.2,0c0-0.6,0-1.2,0-1.8c-0.4,0-0.9,0-1.3,0c-0.4,0-0.7,0-1,0
			c-0.2,0-0.3-0.1-0.3-0.3c0-0.1,0.1-0.3,0.3-0.3c0.1,0,0.1,0,0.2,0c0.6,0,1.2,0,1.8,0c0,0,0.1,0,0.2,0c0-0.6,0-1.2,0-1.8
			c-0.8,0-1.5,0-2.2,0c-0.2,0-0.4-0.1-0.4-0.4s0.1-0.4,0.4-0.4c0.6,0,1.3,0,1.9,0c0,0,0.1,0,0.2,0c0-0.9,0-1.8,0-2.6
			c0-0.4,0.2-0.5,0.5-0.5c0.8,0,1.5,0,2.3,0c0.1,0,0.2,0,0.3,0c0-0.1,0-0.1,0-0.2c0-0.6,0-1.3,0-1.9c0-0.2,0.2-0.4,0.4-0.4
			c0.3,0,0.4,0.1,0.4,0.4c0,0.6,0,1.3,0,1.9c0,0,0,0.1,0,0.2c0.6,0,1.2,0,1.8,0c0-0.1,0-0.2,0-0.3c0-0.7,0-1.3,0-1.9
			c0-0.1,0-0.2,0-0.3c0.1-0.1,0.2-0.2,0.4-0.2c0.2,0,0.3,0.2,0.3,0.4c0,0.7,0,1.3,0,2c0,0,0,0.1,0,0.2c0.6,0,1.2,0,1.8,0
			c0-0.1,0-0.2,0-0.3c0-0.6,0-1.3,0-1.9c0-0.2,0.1-0.4,0.3-0.4c0.3,0,0.4,0.1,0.4,0.4c0,0.5,0,1.1,0,1.6c0,0.2,0,0.4,0,0.6
			c0.6,0,1.2,0,1.8,0c0,0,0-0.1,0-0.2c0-0.6,0-1.2,0-1.8c0-0.1,0-0.1,0-0.2c0-0.2,0.2-0.4,0.4-0.4c0.2,0,0.3,0.1,0.3,0.4
			c0,0.6,0,1.2,0,1.8c0,0.1,0,0.3,0,0.4c0.6,0,1.2,0,1.8,0c0-0.1,0-0.2,0-0.3c0-0.6,0-1.3,0-1.9c0-0.2,0.2-0.4,0.4-0.4
			c0.2,0,0.3,0.2,0.3,0.4c0,0.3,0,0.7,0,1c0,0.4,0,0.8,0,1.2c0.1,0,0.2,0,0.3,0c0.7,0,1.5,0,2.2,0c0.4,0,0.5,0.1,0.5,0.6
			c0,0.7,0,1.5,0,2.2c0,0.1,0,0.2,0,0.3c0.8,0,1.5,0,2.2,0c0.2,0,0.4,0.1,0.4,0.4s-0.1,0.4-0.4,0.4c-0.6,0-1.3,0-1.9,0
			c0,0-0.1,0-0.2,0c0,0.6,0,1.2,0,1.8c0.1,0,0.2,0,0.3,0c0.5,0,1.1,0,1.7,0c0.4,0,0.6,0.1,0.6,0.4c0,0.3-0.2,0.4-0.6,0.4
			c-0.5,0-0.9,0-1.4,0c-0.2,0-0.4,0-0.6,0c0,0.6,0,1.2,0,1.8C163.7,158.9,164.4,158.9,165.4,159.1z M162.2,166.9
			c0-5.1,0-10.2,0-15.3c-5.1,0-10.2,0-15.3,0c0,5.1,0,10.2,0,15.3C152,166.9,157.1,166.9,162.2,166.9z"/>
		<path class="st1" d="M148.6,165.8c-0.4,0-0.5-0.1-0.5-0.5c0-4,0-8.1,0-12.1c0-0.4,0.1-0.5,0.5-0.5c4,0,8.1,0,12.1,0
			c0.4,0,0.5,0.1,0.5,0.5c0,4,0,8.1,0,12.1c0,0.4-0.1,0.5-0.5,0.5c-2.1,0-4.1,0-6.1,0S150.5,165.8,148.6,165.8z M160.4,153.4
			c-3.9,0-7.8,0-11.7,0c0,3.9,0,7.8,0,11.7c3.9,0,7.8,0,11.7,0C160.4,161.2,160.4,157.3,160.4,153.4z"/>
		<path class="st1" d="M151.8,159.9c-0.2-0.1-0.4,0-0.5,0.2c-0.4,0.6-1.2,0.7-1.7,0.1c-0.4-0.5-0.3-1.2,0.2-1.6
			c0.6-0.3,1.3-0.2,1.6,0.4c0.1,0.1,0.1,0.2,0.2,0.2c0.2,0,0.3,0,0.5,0c0-0.1,0-0.1,0-0.1c0-0.4,0-0.7,0-1.1c0-0.5,0.2-0.8,0.8-0.8
			c0.1,0,0.2-0.1,0.2-0.1c0-0.2,0-0.4,0-0.6c-0.5,0-0.5,0-0.8,0.3c-0.4,0.5-1.1,0.5-1.6,0.1c-0.4-0.5-0.4-1.2,0-1.6
			c0.5-0.4,1.2-0.4,1.6,0.1c0.2,0.3,0.5,0.3,0.8,0.3c0.1,0,0.2,0,0.3,0c0.4,0,0.5,0.1,0.5,0.5c0,0.3,0,0.7,0,1c0.5,0,0.9,0,1.4,0
			c0-0.3,0-0.6,0-1s0.2-0.5,0.5-0.5s0.5,0,0.7,0c0.2,0,0.2-0.1,0.3-0.2c0.3-0.6,1.2-0.8,1.7-0.2c0.3,0.3,0.4,0.7,0.2,1.1
			c-0.1,0.4-0.4,0.7-0.9,0.7c-0.4,0.1-0.8-0.1-1-0.5c-0.1-0.1-0.1-0.2-0.2-0.2c-0.1,0-0.3,0-0.5,0c0,0.2,0,0.3,0,0.5
			c-0.1,0.1,0,0.2,0.2,0.2c0.4,0,0.7,0.3,0.7,0.7c0,0.3,0,0.5,0,0.7c0,0.2,0,0.4,0,0.6c0.1,0,0.2,0,0.3,0c0.2,0.1,0.3,0,0.4-0.2
			c0.3-0.4,0.8-0.6,1.2-0.5c0.5,0.1,0.8,0.5,0.8,1s-0.3,0.9-0.8,1s-0.9-0.1-1.2-0.5c-0.1-0.1-0.1-0.2-0.2-0.2c-0.1,0-0.3,0-0.5,0
			c0,0.1,0,0.2,0,0.3c0,0.3,0,0.6,0,1s-0.2,0.7-0.6,0.7c-0.1,0-0.2,0-0.3,0c0,0.2,0,0.4,0,0.7c0.3,0,0.6,0.1,0.8-0.3
			c0.3-0.6,1-0.6,1.5-0.2c0.5,0.4,0.5,1.2,0.1,1.6c-0.5,0.4-1.2,0.4-1.6-0.1c-0.2-0.3-0.5-0.3-0.8-0.3c0,0-0.1,0-0.2,0
			c-0.4,0-0.5-0.1-0.5-0.5s0-0.7,0-1c-0.5,0-0.9,0-1.4,0c0,0.3,0,0.7,0,1c-0.1,0.3-0.2,0.4-0.5,0.4c-0.2,0-0.5,0-0.7,0
			s-0.2,0.1-0.3,0.2c-0.2,0.4-0.5,0.6-0.9,0.6c-0.5,0-1-0.4-1.1-0.9c-0.1-0.5,0.2-1,0.7-1.2s1,0,1.3,0.5c0.1,0.1,0.1,0.2,0.2,0.2
			c0.1,0,0.3,0,0.5,0c0-0.3,0-0.5,0-0.8h-0.1c-0.6,0-0.8-0.3-0.8-0.8c0-0.4,0-0.8,0-1.2C152.1,159.6,152.1,159.6,151.8,159.9z
			 M153,157.6c0,1.1,0,2.1,0,3.2c1.1,0,2.1,0,3.2,0c0-1.1,0-2.1,0-3.2C155.1,157.6,154,157.6,153,157.6z M157.2,155.8
			c0,0.2,0.2,0.4,0.4,0.4s0.4-0.2,0.4-0.4s-0.2-0.4-0.4-0.4S157.2,155.6,157.2,155.8z M151.6,156.2c0.2,0,0.4-0.2,0.4-0.4
			s-0.2-0.4-0.4-0.4c-0.2,0-0.4,0.2-0.4,0.4S151.4,156.1,151.6,156.2z M158.8,159.2c0-0.2-0.2-0.3-0.4-0.3s-0.3,0.2-0.3,0.4
			s0.2,0.3,0.4,0.3C158.8,159.6,158.9,159.4,158.8,159.2z M157.2,162.7c0,0.2,0.2,0.4,0.4,0.4s0.4-0.2,0.4-0.4s-0.2-0.4-0.4-0.4
			S157.2,162.5,157.2,162.7z M151.6,163.1c0.2,0,0.4-0.2,0.4-0.4s-0.2-0.4-0.4-0.4c-0.2,0-0.4,0.2-0.4,0.4S151.3,163,151.6,163.1z
			 M150.2,159.3c0,0.3,0.2,0.4,0.4,0.4c0.3,0,0.4-0.2,0.4-0.4c0-0.3-0.2-0.4-0.4-0.4S150.3,159,150.2,159.3z"/>
	</g>
	<circle class="st2" cx="126" cy="159.2" r="18.1"/>
	<g>
		<path class="st1" d="M135.4,159.4c0.5,0,0.6,0.1,0.6,0.5c0.2,1.7,0.3,3.4,0.5,5.1c0.1,1.6,0.2,3.2,0.4,4.8
			c0.1,0.5-0.1,0.6-0.5,0.6c-0.8,0-1.6,0-2.4,0c-2.2,0-4.5,0-6.7,0c-0.2,0-0.4,0-0.5-0.2c-0.3-0.4-0.6-0.8-0.9-1.2
			c-0.1-0.1-0.1-0.3-0.1-0.4c0-0.3,0.1-0.6,0.1-0.9c0-0.4,0.1-0.8,0.1-1.2c-0.2,0-0.4,0-0.6,0c-1.9,0-3.8,0-5.7,0
			c-1.2,0-2-0.7-2.2-1.8c-0.3-1.8-0.7-3.5-1-5.2c-0.1-0.5-0.1-0.5-0.6-0.5s-0.9-0.4-0.9-0.9c0-0.3,0-0.6,0-0.9
			c0-0.5,0.3-0.8,0.8-0.9c0,0,0.1,0,0.2,0c0-1.6,0.3-3.2,1.2-4.7c-0.3-0.2-0.4-0.5-0.4-0.8c0-0.2,0-0.4,0-0.6c0-0.5,0.3-0.8,0.8-0.8
			c1.2,0,2.4,0,3.6,0c0.5,0,0.8,0.4,0.8,0.8c0,0.1,0,0.3,0,0.5c0,0.3,0,0.7-0.4,0.9c0.1,0.2,0.2,0.3,0.3,0.5
			c0.1-0.4,0.2-0.8,0.4-1.1c0.2-0.6,0.6-1.1,1.1-1.5c0.6-0.5,1.3-0.5,1.9,0c0.3,0.2,0.5,0.5,0.7,0.8c0.3,0.5,0.6,1.1,0.8,1.6
			c0,0.1,0.1,0.1,0.1,0.2h0.1c0-0.7,0.1-1.2,0.8-1.3c0-0.5,0-0.9,0-1.4c0-0.4,0.1-0.5,0.5-0.5c0.9,0,1.7,0,2.6,0c0.1,0,0.1,0,0.2,0
			c0.2,0.1,0.3,0.2,0.3,0.4c0,0.1-0.1,0.3-0.3,0.3c-0.3,0-0.6,0-0.9,0c-0.2,0-0.3,0-0.5,0c0,0.4,0,0.8,0,1.2
			c0.7,0.1,0.9,0.6,0.8,1.2c0.8,0.2,1,0.5,1,1.3c0,0.9,0,1.8,0,2.7c0,0,0,0.1,0,0.2c0.1,0,0.2,0,0.2,0c0.2,0,0.5,0,0.7,0
			c0.2,0.1,0.3,0.3,0.3,0.4s-0.2,0.3-0.4,0.3c-0.1,0-0.2,0-0.3,0c-5.3,0-10.7,0-16,0c0,0-0.1,0-0.2,0s-0.2,0-0.2,0.2
			c0,0.2,0,0.4,0,0.6c0,0.4,0,0.4,0.4,0.4c4.4,0,8.8,0,13.2,0c0.1,0,0.2,0,0.3,0c0.2,0,0.3,0.1,0.3,0.3c0,0.1-0.1,0.3-0.3,0.3
			c-0.1,0-0.2,0-0.3,0c-4,0-7.9,0-11.9,0c-0.1,0-0.2,0-0.3,0c0,0.1,0,0.1,0,0.2c0.3,1.7,0.7,3.5,1,5.2c0.2,0.9,0.7,1.3,1.6,1.3
			c2.1,0,4.2,0,6.2,0c0.1,0,0.2,0,0.3,0c0.1-0.7,0.2-1.4,0.3-2.1c0.2-1.2,0.3-2.5,0.5-3.8c0.1-0.3,0.2-0.4,0.5-0.4
			c0.7,0,1.5,0,2.3,0c0.1,0,0.2,0,0.3,0c0-0.7,0.2-1.2,0.6-1.6c0.5-0.4,1-0.6,1.6-0.6c1.1,0,1.8,0.8,2,2.1
			C134.6,159,135.1,159,135.4,159.4z M135.6,159.7c-0.4,0-0.8,0-1.2,0c0,0.2,0,0.4,0,0.6c0,0.1,0.1,0.2,0.1,0.2
			c0.4,0.3,0.4,0.8,0.1,1.1s-0.8,0.3-1.1,0c-0.3-0.3-0.3-0.8,0-1.1c0.1-0.1,0.1-0.2,0.1-0.3c0-0.2,0-0.3,0-0.5c-0.9,0-1.9,0-2.8,0
			c0,0.2,0,0.4,0,0.6c0,0.1,0.1,0.2,0.1,0.2c0.3,0.3,0.3,0.8,0,1.1c-0.3,0.3-0.8,0.3-1.1,0s-0.3-0.8,0-1.1c0-0.1,0.1-0.2,0.1-0.3
			c0-0.2,0-0.3,0-0.5c-0.5,0-1,0-1.6,0c-0.2,2.5-0.4,5.1-0.6,7.6c2.7,0,5.5,0,8.3,0C135.8,164.8,135.6,162.3,135.6,159.7z
			 M126.7,155.9c0-0.5,0-0.9,0-1.3c-0.1-1.2-0.3-2.5-0.8-3.6c-0.2-0.4-0.4-0.8-0.7-1.1c-0.5-0.6-1.2-0.6-1.7,0
			c-0.3,0.4-0.5,0.8-0.7,1.3c-0.6,1.5-0.8,3.1-0.7,4.7l0,0C123.6,155.9,125.1,155.9,126.7,155.9z M127.4,155.9c1.2,0,2.3,0,3.4,0
			c0-0.1,0-0.1,0-0.2c0-0.9,0-1.9,0-2.8c0-0.4-0.1-0.5-0.5-0.5c-1,0-2,0-3,0c0,0-0.1,0-0.2,0C127.3,153.5,127.4,154.7,127.4,155.9z
			 M127.5,169.2c2.9,0,5.8,0,8.7,0c0-0.3-0.1-0.7-0.1-1.1c-2.9,0-5.7,0-8.5,0C127.6,168.4,127.6,168.8,127.5,169.2z M121.5,154.1
			c-1.5,0-3,0-4.6,0c-0.1,0.6-0.1,1.2-0.2,1.8c1.6,0,3.1,0,4.7,0C121.4,155.3,121.4,154.7,121.5,154.1z M118.2,153.3c1,0,2,0,3,0
			c0.3,0,0.4-0.2,0.3-0.5c-0.2-0.5-0.4-1-0.7-1.5c0-0.1-0.1-0.1-0.2-0.1c-0.9,0-1.7,0-2.5,0c-0.1,0-0.2,0.1-0.2,0.1
			c-0.4,0.6-0.7,1.3-0.9,2C117.4,153.3,117.8,153.3,118.2,153.3z M121.1,149.8c0-0.1-0.1-0.1-0.2-0.1c-0.9,0-1.9,0-2.8,0
			c-0.2,0-0.4,0-0.6,0c0,0.3,0,0.5,0,0.8l0.1,0.1c1.2,0,2.4,0,3.6,0C121.2,150.3,121.2,150,121.1,149.8z M132,157.6
			c-0.7,0-1.4,0.7-1.3,1.4c0.9,0,1.8,0,2.7,0C133.5,158.2,132.8,157.6,132,157.6z M127.5,159.9L127.5,159.9c0,0.2-0.1,0.5-0.1,0.8
			c-0.2,1.7-0.4,3.5-0.6,5.2c0,0.6-0.1,1.3-0.2,1.9c0,0.3,0,0.6,0.3,0.8C127.1,165.6,127.4,162.7,127.5,159.9z M129.7,151.7
			c0-0.1,0-0.1,0-0.1c0.1-0.5,0.1-0.5-0.4-0.5c-0.4,0-0.9,0-1.3,0c-0.3,0-0.3,0-0.3,0.3c0,0.1,0,0.1,0,0.2
			C128.4,151.6,129.1,151.6,129.7,151.7z M128.5,150.4c0.1,0,0.2,0,0.4,0c0-0.4,0-0.8,0-1.2c-0.1,0-0.2,0-0.4,0
			C128.5,149.6,128.5,150,128.5,150.4z"/>
		<path class="st1" d="M118.9,160.2c0.1-0.4,0.5-0.7,0.9-0.7c0.5,0,0.8,0.3,0.9,0.8c0.1,0.5,0.2,1.1,0.3,1.6c0,0.4,0.1,0.9,0.2,1.3
			c0.1,0.5-0.1,1-0.6,1.1c-0.5,0.2-1-0.2-1.1-0.8c-0.1-0.5-0.2-1.1-0.3-1.6c0-0.5-0.1-1-0.2-1.5C119,160.3,119,160.2,118.9,160.2z
			 M120,161c0-0.2-0.1-0.5-0.1-0.7c0-0.1-0.1-0.2-0.2-0.2c-0.1,0.1-0.1,0.2-0.1,0.3c0.2,1,0.3,2,0.5,3c0,0.1,0.1,0.1,0.2,0.2
			c0.1-0.1,0.2-0.2,0.2-0.2C120.4,162.6,120.3,161.8,120,161z"/>
		<path class="st1" d="M123.7,163.3c0,0.6-0.3,1-0.8,1c-0.4,0-0.8-0.3-0.9-0.8c0-0.1,0-0.3,0-0.5c-0.1-0.9-0.1-1.8-0.2-2.7
			c0-0.4,0.3-0.9,0.8-0.9c0.4,0,0.9,0.3,0.9,0.8C123.5,161.2,123.6,162.2,123.7,163.3C123.7,163.3,123.7,163.4,123.7,163.3z
			 M122.6,163.4c0,0.2,0,0.3,0.2,0.3s0.2-0.2,0.2-0.3c-0.1-1-0.1-2-0.2-3c0-0.1-0.1-0.2-0.2-0.2c0,0-0.1,0.1-0.1,0.2
			c0,0.5,0.1,1,0.1,1.5S122.6,162.9,122.6,163.4z"/>
		<path class="st1" d="M126.2,163.5c0,0.4-0.4,0.8-0.8,0.8s-0.8-0.2-0.9-0.6c0-0.1,0-0.3,0-0.5c0.1-0.9,0.1-1.9,0.2-2.9
			c0-0.6,0.4-0.9,0.9-0.9s0.8,0.4,0.8,0.9C126.4,161.4,126.3,162.5,126.2,163.5z M125.4,163.5c0.2,0.1,0.2-0.1,0.2-0.2
			c0.1-1,0.1-1.9,0.2-2.9v-0.1c0-0.1-0.1-0.2-0.2-0.2s-0.2,0.1-0.2,0.2c-0.1,0.4-0.1,0.7-0.1,1.1c-0.1,0.7-0.1,1.3-0.2,2l0,0
			C125.2,163.5,125.3,163.6,125.4,163.5z"/>
		<path class="st1" d="M123,153.8c-0.2,0-0.3-0.2-0.3-0.4s0.2-0.3,0.4-0.3c0.8,0.1,1.6,0.1,2.4,0c0.2,0,0.4,0.1,0.4,0.3
			c0.1,0.2-0.1,0.4-0.3,0.4c-0.3,0-0.6,0.1-1.1,0.1C124.1,153.8,123.6,153.8,123,153.8z"/>
		<path class="st1" d="M123.1,155.6c-0.1,0-0.2-0.1-0.3-0.2c-0.2-0.3,0.1-0.5,0.4-0.5c0.8,0.1,1.5,0.1,2.3,0c0.2,0,0.4,0.1,0.4,0.3
			c0.1,0.2-0.1,0.4-0.3,0.4c-0.4,0-0.8,0.1-1.2,0.1S123.6,155.7,123.1,155.6z"/>
	</g>
	<circle class="st3" cx="97.5" cy="159.2" r="18.1"/>
	<g>
		<path class="st1" d="M90.2,164.8c-0.2,0-0.4-0.1-0.5-0.2c-0.4-0.5-0.8-0.9-1.2-1.3c-0.2-0.1-0.3-0.2-0.5-0.1c-0.1,0-0.2,0-0.3,0
			c-0.7,0-1.2-0.6-1.3-1.2c-0.1-0.7,0.3-1.3,1-1.4s1.3,0.3,1.5,0.9c0.2,0.4,0.1,0.7-0.1,1.1c0.4,0.5,0.9,0.9,1.3,1.4
			c0,0.1,0.1,0.1,0.1,0.1c0.5,0,0.9,0,1.3,0c0-0.4,0-0.8,0-1.2c-0.3,0-0.6,0-0.9,0c-0.2,0-0.3,0-0.4-0.2c-0.1-0.1,0-0.3,0.1-0.4
			c0.3-0.4,0.7-0.8,1.1-1.2c0.2-0.1,0.2-0.2,0.2-0.4c0-1.2,0-2.5,0-3.7c0-0.4,0.2-0.5,0.5-0.5c0.6,0,1.3,0,1.9,0
			c0.4,0,0.5,0,0.5,0.5c0,0.2,0,0.4,0,0.7c0.1-0.1,0.1-0.1,0.2-0.2c0.8-0.8,1.5-1.6,2.3-2.4c0.3-0.3,0.4-0.3,0.7,0
			c0.6,0.6,1.1,1.2,1.7,1.8c0.2,0.2,0.4,0.4,0.6,0.6c0-0.1,0-0.2,0-0.3c0-1.5,0-3,0-4.5c0-0.4,0.1-0.5,0.5-0.5c1.7,0,3.4,0,5.1,0
			c0.1,0,0.2,0,0.3,0c0-0.1,0-0.1,0-0.2c0.2-0.6,0.7-1,1.3-1s1.1,0.5,1.2,1.1c0.1,0.6-0.2,1.2-0.8,1.4c-0.5,0.2-1.2,0-1.5-0.5
			c-0.1-0.2-0.2-0.2-0.3-0.2c-1.6,0-3.2,0-4.8,0c0,0-0.1,0-0.2,0c0,0,0,0.1,0,0.2c0,1.7,0,3.4,0,5c0,0.2,0.1,0.3,0.2,0.4
			c1.2,1.3,2.4,2.5,3.6,3.8c0.1,0.2,0.2,0.3,0.1,0.5s-0.2,0.2-0.4,0.2c-0.2,0-0.5,0-0.8,0c0,0.4,0,0.8,0,1.2c0.4,0,0.8,0,1.2,0
			c0.1,0,0.2,0,0.3-0.1c0.4-0.3,0.7-0.7,1.1-1.1c0.2-0.1,0.2-0.2,0.1-0.3c-0.3-0.6-0.1-1.2,0.4-1.6s1.1-0.3,1.6,0.1
			c0.5,0.4,0.6,1.1,0.3,1.6c-0.3,0.6-1,0.8-1.6,0.6l-0.2,0.1c-0.3,0.3-0.6,0.6-0.9,0.9c-0.4,0.5-0.9,0.7-1.5,0.6c-0.2,0-0.5,0-0.7,0
			c-0.1,0-0.1,0-0.2,0c0,0.9,0,1.8,0,2.7c0.1,0,0.1,0,0.1,0c0.5,0,1.1,0,1.6,0c0.2,0,0.4,0,0.5-0.3c0.3-0.6,1.1-0.8,1.7-0.5
			s0.9,1,0.7,1.6c-0.2,0.6-0.8,1-1.5,0.9c-0.5-0.1-0.8-0.4-1-0.9c-0.7,0-1.4,0-2.1,0c0,0.4,0,0.7,0,1.1s-0.1,0.5-0.5,0.5
			c-3.6,0-7.2,0-10.8,0c-0.4,0-0.5-0.1-0.5-0.5c0-0.3,0-0.7,0-1.1c-0.7,0-1.3,0-2,0c-0.1,0-0.2,0-0.2,0.1c-0.3,0.6-0.9,0.9-1.5,0.8
			s-1-0.7-1-1.3s0.3-1.2,1-1.3s1.2,0.2,1.5,0.8c0,0.2,0.1,0.2,0.2,0.2c0.4,0,0.8,0,1.2,0c0.3,0,0.5,0,0.8,0c0-1,0-1.9,0-2.8
			C91.1,164.9,90.7,164.9,90.2,164.8z M97.5,156.1c-0.2,0.2-0.4,0.4-0.6,0.6c-0.8,0.8-1.5,1.6-2.3,2.4c-0.2,0.2-0.4,0.2-0.5,0.1
			c0-0.1-0.1-0.2-0.1-0.3c0-0.5,0-0.9,0-1.4c-0.5,0-1,0-1.5,0c0,0,0,0.1,0,0.2c0,1.1,0,2.3,0,3.4c0,0.2-0.1,0.4-0.2,0.5
			c-0.3,0.2-0.5,0.5-0.8,0.8c0.2,0,0.3,0,0.5,0c0.3,0,0.4,0.1,0.4,0.3c0,0.1,0,0.1,0,0.2c0,2.1,0,4.1,0,6.2c0,0.1,0,0.2,0,0.3
			c1,0,1.9,0,2.8,0c0-0.1,0-0.2,0-0.3c0-1.6,0-3.1,0-4.7c0-0.4,0.1-0.5,0.5-0.5c1.2,0,2.5,0,3.7,0c0.4,0,0.5,0.1,0.5,0.5
			c0,1.5,0,3.1,0,4.7c0,0.1,0,0.2,0,0.3c0.9,0,1.9,0,2.8,0c0-0.1,0-0.2,0-0.3c0-2.1,0-4.1,0-6.2c0-0.4,0-0.5,0.5-0.5
			c0.1,0,0.2,0,0.3,0C101.5,160.2,99.5,158.1,97.5,156.1z M95.8,164.5c0,1.6,0,3.2,0,4.8c1.1,0,2.2,0,3.3,0c0-1.6,0-3.2,0-4.8
			C98,164.5,96.9,164.5,95.8,164.5z M88.2,168.7c0.3,0,0.6-0.3,0.6-0.6s-0.3-0.6-0.6-0.6c-0.3,0-0.6,0.3-0.6,0.6
			C87.6,168.4,87.9,168.7,88.2,168.7z M106.7,168.6c0.3,0,0.6-0.3,0.6-0.6s-0.3-0.6-0.6-0.6c-0.3,0-0.6,0.3-0.6,0.6
			C106.1,168.4,106.4,168.6,106.7,168.6z M107.2,162.7c0.3,0,0.6-0.3,0.6-0.6s-0.3-0.6-0.6-0.6c-0.3,0-0.6,0.3-0.6,0.6
			C106.6,162.5,106.8,162.7,107.2,162.7z M107.2,153.1c0.3,0,0.6-0.3,0.6-0.6s-0.3-0.6-0.6-0.6c-0.3,0-0.6,0.3-0.6,0.6
			S106.8,153.1,107.2,153.1z M88.4,162.1c0-0.3-0.3-0.6-0.6-0.6c-0.3,0-0.6,0.3-0.6,0.6s0.3,0.6,0.6,0.6
			C88.1,162.7,88.4,162.5,88.4,162.1z"/>
		<path class="st1" d="M94.8,148.4c0.2,0,0.3,0.1,0.3,0.3s-0.1,0.4-0.3,0.4c0,0-0.1,0-0.2,0c-1.8,0.1-3.3,0.9-4.4,2.3
			c-0.7,1-1.1,2.1-1.1,3.3c0,0.3-0.2,0.4-0.4,0.4c-0.2,0-0.3-0.1-0.3-0.4c0-0.3,0.1-0.6,0.1-0.9c0.4-3,3-5.3,6-5.4
			C94.6,148.4,94.7,148.4,94.8,148.4z"/>
		<path class="st1" d="M90.2,154.6c0-0.2,0-0.3,0-0.5c0.3-2.1,2.3-3.9,4.5-3.9c0.3,0,0.4,0.1,0.4,0.3s-0.1,0.4-0.4,0.4
			c-0.1,0-0.3,0-0.5,0c-1.9,0.3-3.2,1.8-3.3,3.8c-0.1,0.3-0.2,0.4-0.4,0.4C90.3,155.1,90.2,155,90.2,154.6L90.2,154.6L90.2,154.6z"
			/>
		<path class="st1" d="M96,154.7c0,0.7-0.5,1.2-1.2,1.2s-1.2-0.5-1.2-1.2c0-0.6,0.5-1.2,1.2-1.2S96,154.1,96,154.7z M94.3,154.7
			c0,0.3,0.2,0.5,0.5,0.5s0.5-0.2,0.5-0.5c0-0.2-0.2-0.5-0.5-0.5S94.2,154.4,94.3,154.7z"/>
		<path class="st1" d="M95,152.1c0.1,0.3-0.1,0.5-0.4,0.5c-1,0-1.8,0.7-2,1.7c-0.1,0.2-0.1,0.3-0.1,0.5s-0.1,0.3-0.3,0.3
			c-0.1,0-0.3-0.1-0.3-0.3c0,0,0-0.1,0-0.2c0.1-1.5,1.3-2.6,2.7-2.7C94.8,151.9,95,151.9,95,152.1z"/>
		<path class="st1" d="M98.9,159.4c0,0.8-0.6,1.4-1.4,1.4s-1.4-0.7-1.4-1.4c0-0.8,0.6-1.4,1.4-1.4C98.2,158,98.8,158.6,98.9,159.4z
			 M96.8,159.4c0,0.4,0.3,0.7,0.7,0.7c0.4,0,0.7-0.3,0.7-0.7s-0.3-0.7-0.7-0.7S96.8,159,96.8,159.4z"/>
	</g>
	<circle class="st4" cx="69" cy="159.2" r="18.1"/>
	<g>
		<path class="st1" d="M63,167.9c-0.8,0.5-1.8,0.4-2.5-0.2c-0.7-0.7-0.8-1.6-0.3-2.5c0,0,0-0.1,0-0.2c-0.7-1.1-1.2-2.4-1.5-3.7
			c0-0.1-0.1-0.2-0.2-0.2c-0.9-0.2-1.5-1-1.5-1.9s0.6-1.7,1.5-1.9c0.1,0,0.2-0.1,0.2-0.2c0.3-1.4,0.8-2.6,1.5-3.7
			c0.1-0.1,0.1-0.2,0-0.3c-0.5-0.8-0.4-1.7,0.2-2.4c0.6-0.6,1.6-0.7,2.4-0.2c0.1,0.1,0.2,0.1,0.3,0c1.2-0.7,2.4-1.2,3.7-1.5
			c0.1,0,0.2-0.1,0.2-0.2c0.2-0.9,1-1.5,1.9-1.5s1.7,0.6,1.9,1.5c0.1,0.2,0.1,0.3,0.3,0.3c1.2,0.3,2.4,0.8,3.5,1.5
			c0.1,0.1,0.2,0.1,0.4,0c0.7-0.4,1.4-0.5,2-0.1c0.7,0.4,1,0.9,1,1.7c0,0.5-0.1,0.9-0.4,1.2c1,1.8,1,1.8,1.6,3.8
			c0,0.1,0.1,0.2,0.2,0.2c0.9,0.2,1.5,1,1.5,1.9s-0.6,1.7-1.5,1.9c-0.1,0-0.2,0.1-0.2,0.2c-0.3,1.3-0.8,2.5-1.5,3.6
			c-0.1,0.1-0.1,0.2,0,0.3c0.4,0.7,0.5,1.3,0.1,2c-0.3,0.7-0.9,1-1.7,1c-0.5,0-0.9-0.1-1.2-0.4c-0.1,0-0.1,0-0.1,0
			c-1.1,0.8-2.3,1.3-3.7,1.6c-0.1,0-0.2,0.1-0.2,0.2c-0.2,0.9-1,1.5-1.9,1.5s-1.7-0.6-1.9-1.5c0-0.1-0.1-0.2-0.2-0.2
			c-0.5-0.2-1.1-0.3-1.6-0.5C64.5,168.7,63.8,168.3,63,167.9C63.1,167.8,63,167.8,63,167.9z M68.5,162.7c2,0.8,3.9,1.7,5.8,2.5
			c0.2-0.2,0.4-0.3,0.6-0.5c0-0.1,0-0.2,0-0.2c-0.5-1.5-1-3.1-1.5-4.6c-0.6,0-1.1-0.2-1.6-0.6c-1.1,0.8-2.2,1.5-3.3,2.2
			C68.6,162,68.6,162.3,68.5,162.7z M67.6,164c0.4,1.1,0.7,2.2,1.1,3.3c1,0,1.7,0.4,2.1,1.4c1.3-0.2,2.5-0.7,3.5-1.4
			c0-0.5-0.1-0.8-0.2-1.3c-1.9-0.9-3.8-1.7-5.8-2.6C68.1,163.6,67.9,163.8,67.6,164z M66.6,160.4c0,0,0.1-0.1,0.1-0.2
			c0.1-1,0.2-2.1,0.3-3c-0.3-0.2-0.6-0.5-0.9-0.7c-0.1,0-0.2,0-0.2,0c-1.6,0.7-3.3,1.5-4.9,2.2c0,0.2,0,0.5,0,0.7
			c0,0.1,0.1,0.2,0.2,0.2c1.2,0.5,2.4,1,3.6,1.5c0.1,0,0.2,0.1,0.3,0.1C65.4,160.8,65.8,160.5,66.6,160.4z M74.2,151
			c-1-0.7-2.2-1.1-3.5-1.4c-0.3,0.9-0.9,1.4-1.9,1.4c-0.1,0.6-0.3,1.2-0.4,1.8v0.1c-0.1,0.4-0.2,0.8,0.3,1c0.2,0.1,0.3,0.2,0.4,0.4
			c1.7-0.6,3.4-1.2,5-1.8C74.2,152,74.3,151.6,74.2,151z M61,153.8c-0.8,1.1-1.3,2.3-1.5,3.5c0.3,0.2,0.6,0.5,0.9,0.7
			c0.1,0,0.2,0,0.2,0c1.6-0.7,3.3-1.5,4.9-2.2l0,0c0.1-0.4,0.1-0.7,0.1-1.1c-0.8-0.4-1.5-0.9-2.3-1.3
			C62.4,154.1,61.9,154.2,61,153.8z M63,164.8c0.6-0.5,1.3-1.1,1.9-1.6c-0.2-0.4-0.2-0.8-0.2-1.2l-0.1-0.1c-1.4-0.5-2.7-1.1-4-1.6
			c-0.4,0.3-0.7,0.5-1.1,0.8c0.3,1.2,0.8,2.4,1.5,3.5C61.7,164.3,62.4,164.3,63,164.8z M77,164.6c0.7-1,1.1-2.2,1.4-3.5
			c-1-0.6-1.3-0.9-1.4-1.9c-0.6-0.1-1.3-0.3-1.9-0.4c-0.1,0-0.2,0.1-0.2,0.1c-0.2,0.3-0.4,0.6-0.7,0.9c0.5,1.4,1,3,1.5,4.5
			C76.2,164.4,76.6,164.5,77,164.6z M63.5,167.2c1.1,0.8,2.3,1.2,3.6,1.5c0.2-0.5,0.5-0.8,0.9-1.1c-0.3-0.9-0.6-1.8-0.9-2.7
			c-0.1-0.4-0.2-0.7-0.8-0.7c-0.2,0-0.4-0.2-0.7-0.3h-0.2c-0.6,0.5-1.2,1-1.8,1.5C63.9,166,63.9,166.6,63.5,167.2z M68.2,151
			c0-0.1-0.1-0.2-0.1-0.2c-0.4-0.2-0.7-0.6-0.9-1.1c-1.3,0.3-2.5,0.8-3.6,1.5c0.2,0.4,0.2,0.9,0.1,1.4c0,0.1,0.1,0.2,0.1,0.2
			c0.6,0.4,1.3,0.8,2,1.2H66c0.4-0.4,0.9-0.6,1.5-0.6C67.7,152.6,67.9,151.8,68.2,151z M76.9,153.8c-0.4,0.3-0.9,0.3-1.4,0.2
			c-0.4,0.8-0.8,1.6-1.2,2.5c0.5,0.3,0.8,0.9,0.8,1.5c0.7,0.1,1.4,0.3,2,0.4c0.1,0,0.2-0.1,0.2-0.1c0.5-0.6,0.5-0.6,1.2-1
			C78.2,156,77.7,154.9,76.9,153.8z M71.3,157.7l-0.1-0.1c-0.8-0.4-1.5-0.7-2.3-1.1c-0.3,0.4-0.7,0.6-1.2,0.7c0,0-0.1,0.1-0.1,0.2
			c-0.1,1-0.2,1.9-0.3,2.9c0,0.1,0,0.2,0.1,0.2c0.2,0.1,0.4,0.3,0.7,0.4c1.1-0.7,2.2-1.4,3.3-2.1C71.4,158.4,71.4,158,71.3,157.7z
			 M69.5,155.6c0,0.1,0,0.2,0.1,0.2c0.7,0.3,1.4,0.6,2.2,1c0.1,0,0.1-0.1,0.2-0.2c0.4-0.4,1-0.6,1.6-0.5c0.1,0,0.2-0.1,0.2-0.1
			c0.4-0.8,0.8-1.6,1.2-2.4l-0.1-0.1c-0.2-0.4-0.5-0.3-0.8-0.2c-1.5,0.5-3,1.1-4.5,1.6c-0.1,0.1-0.2,0.1-0.2,0.1
			C69.4,155.3,69.3,155.5,69.5,155.6z M77.3,166.2c0-0.6-0.6-1.1-1.2-1.1c-0.7,0-1.2,0.6-1.2,1.2c0,0.7,0.6,1.2,1.2,1.2
			C76.8,167.5,77.3,166.9,77.3,166.2z M62,167.5c0.6,0,1.1-0.6,1.1-1.2c0-0.7-0.6-1.2-1.2-1.2c-0.7,0-1.2,0.6-1.2,1.2
			C60.7,167,61.3,167.5,62,167.5z M69,150.3c0.7,0,1.2-0.5,1.2-1.2s-0.6-1.2-1.2-1.2c-0.7,0-1.2,0.6-1.2,1.2
			C67.8,149.8,68.4,150.3,69,150.3z M74.9,152.1c0,0.7,0.6,1.2,1.2,1.2c0.7,0,1.2-0.6,1.2-1.2c0-0.7-0.6-1.2-1.2-1.2
			S74.9,151.4,74.9,152.1z M67.5,156.5c0.7,0,1.2-0.6,1.2-1.2c0-0.7-0.6-1.2-1.2-1.2c-0.7,0-1.2,0.6-1.2,1.2
			C66.3,156,66.8,156.5,67.5,156.5z M73.2,159.2c0.7,0,1.2-0.6,1.2-1.2c0-0.7-0.6-1.2-1.2-1.2s-1.1,0.6-1.1,1.2
			C72.1,158.7,72.6,159.2,73.2,159.2z M80.3,159.2c0-0.6-0.6-1.1-1.2-1.1c-0.7,0-1.2,0.6-1.2,1.2s0.6,1.1,1.2,1.1
			S80.2,159.8,80.3,159.2z M59,160.4c0.7,0,1.2-0.6,1.2-1.2c0-0.7-0.6-1.2-1.2-1.2c-0.7,0-1.2,0.6-1.2,1.2S58.3,160.4,59,160.4z
			 M66.7,163.5c0.7,0,1.2-0.6,1.2-1.2c0-0.7-0.6-1.2-1.2-1.2c-0.7,0-1.2,0.6-1.2,1.2C65.5,162.9,66,163.5,66.7,163.5z M69,170.4
			c0.7,0,1.2-0.6,1.2-1.2c0-0.7-0.6-1.2-1.2-1.2c-0.7,0-1.2,0.6-1.2,1.2C67.8,169.9,68.4,170.4,69,170.4z M60.7,152
			c0,0.7,0.6,1.2,1.2,1.2c0.7,0,1.2-0.6,1.2-1.2s-0.6-1.1-1.2-1.1C61.2,150.9,60.7,151.4,60.7,152z"/>
	</g>
	<circle class="st5" cx="40.4" cy="159.2" r="18.1"/>
	<g>
		<path class="st1" d="M31.8,154.5c0.1,0,0.2,0,0.3,0c0.2,0.1,0.4,0.2,0.4,0.4c0,0.3-0.1,0.4-0.4,0.4c-0.6-0.1-1.2-0.1-1.8-0.1
			c-0.1,0-0.2,0.1-0.3,0.2c-0.3,0.4-0.1,0.8,0.4,0.9c0.1,0,0.2,0,0.3,0c2.5,0,4.9,0,7.4,0c0.1,0,0.3,0,0.4,0.1
			c2.1,1.6,4.2,3.3,6.2,4.9c0.1,0,0.1,0.1,0.2,0.1c0.3,0,0.6,0,0.9,0c-0.1-0.1-0.2-0.2-0.2-0.3c-1-1.5-2-2.9-3-4.4
			c-0.2-0.3-0.2-0.5,0-0.6s0.4,0,0.6,0.2c1.1,1.5,2.1,3.1,3.2,4.6c0.2,0.3,0.2,0.5,0.1,0.8s-0.4,0.4-0.7,0.4c-0.2,0-0.5,0-0.8,0
			s-0.5,0-0.7-0.2c-2-1.6-4-3.1-6-4.7c-0.1,0-0.3-0.1-0.4-0.1c-2.5,0-4.9,0-7.3,0c-0.6,0-1.1-0.4-1.3-0.9s0-1.1,0.5-1.5
			c0.4-0.3,0.8-0.6,1.2-0.9c0.2-0.2,0.6-0.4,0.9-0.5c0.5-0.2,1-0.2,1.6-0.2c1.4,0,2.8,0.1,4.2,0.1c0.1,0,0.2,0,0.3-0.1
			c1.5-1.1,3-2.2,4.5-3.3c1.2-0.9,0.7-0.7,2.1-0.7c0.3,0,0.5,0.1,0.7,0.4c0.1,0.3,0.1,0.5-0.1,0.8c-0.5,0.6-0.9,1.3-1.4,2
			c-0.2,0.3-0.4,0.3-0.6,0.2s-0.2-0.4,0-0.6c0.4-0.6,0.9-1.3,1.3-1.9c0,0,0-0.1,0.1-0.2c-0.3,0-0.5,0-0.8,0c-0.1,0-0.2,0-0.3,0.1
			c-1.4,1-2.8,2.1-4.2,3.1c-0.1,0.1-0.1,0.1-0.2,0.2c0.1,0,0.2,0,0.2,0c2.6,0.1,5.2,0.1,7.8,0.2c0.5,0.1,0.8-0.1,1.1-0.5
			c0.3-0.5,0.6-0.9,0.9-1.3c0.2-0.2,0.4-0.3,0.7-0.3c0.2,0,0.4,0,0.6,0c0.6,0,0.9,0.4,0.7,1c-0.3,0.7-0.5,1.4-0.8,2.1
			c-0.6,1.4-1.6,2.3-3.1,2.6c-0.7,0.1-1.5,0.1-2.2,0.1c-0.2,0-0.4-0.2-0.4-0.4s0.2-0.4,0.5-0.4c0.6,0,1.1,0,1.6,0
			c1.5-0.2,2.5-0.8,3.1-2.2c0.2-0.5,0.4-1.1,0.6-1.6c0-0.2,0.1-0.5,0.2-0.7c-0.1,0-0.3,0-0.4,0c-0.2,0-0.4,0.1-0.5,0.3
			c-0.2,0.3-0.5,0.7-0.7,1c-0.4,0.6-1,0.9-1.7,0.9c-0.8-0.1-1.7-0.1-2.5-0.1c-2-0.1-4-0.1-6-0.2c-1.8-0.1-3.6-0.2-5.5-0.2
			c-0.8,0-1.4,0.2-2,0.8C31.6,154.3,31.8,154.3,31.8,154.5z"/>
		<path class="st1" d="M42.1,168.9c2.4,0,4.8,0,7.2,0c0,0,0.1,0,0.2,0c0.2,0.1,0.3,0.2,0.3,0.4s-0.1,0.4-0.3,0.4c-0.1,0-0.1,0-0.2,0
			c-6.5,0-13,0-19.5,0c-0.4,0-0.5-0.1-0.5-0.5c0-1.9,0-3.7,0-5.6c0-0.4,0.1-0.5,0.5-0.5c1,0,1.9,0,2.9,0c0.1,0,0.2,0,0.3,0
			c0-0.1,0-0.2,0-0.3c0-1.2,0-2.4,0-3.6c0-0.4,0.1-0.5,0.5-0.5c1.3,0,2.7,0,4.1,0c0.4,0,0.5,0.1,0.5,0.5c0,1.2,0,2.4,0,3.6
			c0,0.1,0,0.2,0,0.3c0.1,0,0.2,0,0.3,0c1,0,1.9,0,2.9,0c0.4,0,0.5,0.1,0.5,0.5c0,1.5,0,2.9,0,4.4c0,0.3,0,0.6,0,0.9
			C41.9,168.9,42,168.9,42.1,168.9z M36.1,163.8c0,1.7,0,3.4,0,5.1c1.7,0,3.4,0,5.1,0c0-1.7,0-3.4,0-5.1c-0.7,0-1.4,0-2.2,0
			c0,0.3,0,0.5,0,0.8c0,0.1,0,0.2,0,0.3c-0.1,0.2-0.2,0.4-0.4,0.4s-0.4-0.2-0.4-0.4c0-0.4,0-0.7,0-1.1
			C37.4,163.8,36.7,163.8,36.1,163.8z M35.3,163.8c-0.7,0-1.5,0-2.2,0c0,0.4,0,0.7,0,1s-0.1,0.5-0.4,0.5s-0.4-0.2-0.4-0.5s0-0.7,0-1
			c-0.8,0-1.5,0-2.2,0c0,1.7,0,3.4,0,5.1c1.7,0,3.4,0,5.1,0C35.2,167.2,35.2,165.5,35.3,163.8z M37.3,159.6c-0.4,0-0.9,0-1.4,0
			c0,0.3,0,0.7,0,1c0,0.2-0.1,0.4-0.3,0.4s-0.4-0.1-0.4-0.4c0-0.4,0-0.7,0-1.1c-0.4,0-0.9,0-1.4,0c0,1.2,0,2.4,0,3.6
			c1.2,0,2.4,0,3.6,0C37.4,161.8,37.4,160.6,37.3,159.6z"/>
		<path class="st1" d="M47.3,149.5c-0.2,0-0.4-0.2-0.4-0.4s0.2-0.4,0.5-0.4c1,0,1.9,0,2.8,0c0.2,0,0.4,0.2,0.4,0.4
			c0.1,0.2-0.1,0.4-0.4,0.4c-0.5,0-0.9,0-1.4,0S47.9,149.5,47.3,149.5z"/>
		<path class="st1" d="M51,161.2c0.2,0,0.4,0.2,0.4,0.4c0,0.3-0.1,0.4-0.4,0.4c-1,0-1.9,0-2.8,0c-0.3,0-0.5-0.2-0.5-0.4
			c0-0.3,0.1-0.4,0.4-0.4c0.5,0,0.9,0,1.4,0S50.4,161.2,51,161.2z"/>
		<path class="st1" d="M47.3,160.5c-0.2,0-0.4-0.2-0.4-0.4s0.2-0.4,0.4-0.4c0.7,0,1.4,0,2.1,0c0.2,0.1,0.4,0.2,0.4,0.4
			s-0.1,0.4-0.4,0.4s-0.7,0-1,0C48.1,160.5,47.7,160.5,47.3,160.5z"/>
		<path class="st1" d="M50.6,169.2c0-0.3,0.2-0.4,0.4-0.4s0.4,0.2,0.4,0.4s-0.2,0.4-0.4,0.4S50.6,169.5,50.6,169.2z"/>
	</g>
</g>
<g>
	<g>
		<path class="st6" d="M73.3,98.6c0-0.3,0-0.6,0.1-0.9s0.1-0.7,0.2-1.1s0.3-0.8,0.5-1.2l1.5,0.5c-0.1,0.3-0.2,0.6-0.3,0.9
			c-0.1,0.3-0.2,0.5-0.2,0.8S75,98.2,75,98.4c0,0.6,0.1,1,0.4,1.4s0.7,0.7,1.2,0.9s1.1,0.3,1.7,0.3c0.8,0,1.5-0.1,2-0.4
			c0.5-0.2,0.9-0.6,1.2-1.1c0.3-0.5,0.5-1.1,0.5-1.8c0.1-0.7,0.1-1.5,0.1-2.5l-0.3-8.7h1.7l0.3,9c0,0.7,0,1.5-0.1,2.2
			s-0.2,1.4-0.5,2c-0.2,0.6-0.6,1.1-1,1.6s-1,0.8-1.6,1.1s-1.5,0.4-2.4,0.4c-0.6,0-1.3-0.1-1.9-0.2s-1.1-0.4-1.6-0.7
			c-0.5-0.3-0.8-0.7-1.1-1.3S73.3,99.3,73.3,98.6z"/>
		<path class="st6" d="M90,98.8c-1,0-1.7-0.1-2.2-0.3c-0.5-0.2-0.9-0.5-1.1-1s-0.3-1-0.3-1.7L86,86.5h1.7l0.4,8.6
			c0,0.5,0.1,1,0.2,1.2s0.3,0.5,0.6,0.6c0.3,0.1,0.7,0.2,1.3,0.2c0.3,0,0.5,0.1,0.6,0.2c0.1,0.2,0.2,0.3,0.2,0.6
			c0,0.2-0.1,0.4-0.3,0.6S90.3,98.8,90,98.8z"/>
		<path class="st6" d="M90,98.8l0.2-1.7c0.3,0,0.5-0.1,0.7-0.2s0.3-0.3,0.5-0.7c0.2-0.3,0.4-0.7,0.6-1.2c0.3-0.5,0.6-1,0.9-1.3
			c0.3-0.4,0.6-0.6,0.8-0.8c0.3-0.2,0.5-0.3,0.8-0.4s0.5-0.1,0.7-0.1c0.4,0,0.7,0.1,1.1,0.2c0.3,0.2,0.6,0.4,0.9,0.9s0.6,1,0.9,1.7
			c0.2,0.6,0.5,1,0.7,1.3s0.4,0.5,0.7,0.6c0.2,0.1,0.5,0.1,0.8,0.1s0.5,0.1,0.6,0.2c0.1,0.2,0.2,0.3,0.2,0.6c0,0.2-0.1,0.4-0.3,0.6
			c-0.2,0.2-0.4,0.3-0.7,0.3c-0.5,0-0.9-0.1-1.3-0.2c-0.4-0.2-0.7-0.4-1-0.7l0.3-0.4c-0.1,0.3-0.3,0.6-0.5,0.8
			c-0.2,0.2-0.4,0.4-0.7,0.5c-0.3,0.1-0.6,0.2-0.9,0.2s-0.7-0.1-1.1-0.2s-0.8-0.4-1.1-0.6s-0.7-0.6-1-1c-0.3,0.5-0.5,0.8-0.8,1.1
			s-0.5,0.4-0.9,0.5C90.7,98.8,90.4,98.8,90,98.8z M93.4,95.7c0.2,0.3,0.4,0.5,0.6,0.7s0.4,0.4,0.6,0.5s0.4,0.3,0.7,0.3
			s0.4,0.1,0.6,0.1c0.4,0,0.6-0.1,0.8-0.4c0.2-0.3,0.2-0.6,0-1.1c-0.1-0.2-0.2-0.5-0.3-0.7c-0.1-0.2-0.2-0.4-0.3-0.6
			s-0.3-0.4-0.4-0.5c-0.2,0-0.4,0-0.6,0s-0.3,0.1-0.5,0.2s-0.4,0.3-0.6,0.5C93.9,94.9,93.7,95.2,93.4,95.7z"/>
		<path class="st6" d="M100,98.8l0.2-1.7c0.7,0,1.2,0,1.5,0c0.4,0,0.6,0,0.8,0c0.2,0,0.3,0,0.4,0c-0.2-0.1-0.4-0.3-0.6-0.5
			s-0.5-0.5-0.6-0.9c-0.2-0.4-0.3-0.8-0.3-1.3c0-0.7,0.2-1.2,0.5-1.7s0.8-0.9,1.3-1.2c0.6-0.3,1.2-0.4,1.9-0.4c0.3,0,0.6,0,0.9,0.1
			c0.3,0,0.6,0.1,0.9,0.2l-0.3,1.6c-0.2-0.1-0.5-0.1-0.7-0.1s-0.5-0.1-0.7-0.1c-0.4,0-0.7,0.1-1.1,0.2c-0.3,0.1-0.5,0.3-0.7,0.6
			S103,94,103,94.4c0,0.3,0.1,0.5,0.2,0.7s0.2,0.4,0.4,0.6c0.2,0.2,0.4,0.3,0.6,0.4s0.4,0.2,0.6,0.3c0.2,0.1,0.4,0.1,0.6,0.1
			c0.2-0.1,0.3-0.1,0.5-0.1s0.3-0.1,0.5-0.1c0.2-0.1,0.3-0.1,0.6-0.2c0.2-0.1,0.5-0.2,0.8-0.4l0.6,1.5c-0.8,0.4-1.6,0.6-2.5,0.9
			c-0.8,0.2-1.7,0.4-2.6,0.6C102.3,98.8,101.2,98.8,100,98.8z"/>
		<path class="st6" d="M109.3,86.8l-0.2-1c0.3-0.1,0.6-0.1,0.8-0.2c0.2,0,0.4-0.1,0.6-0.2l-0.1,0.4c-0.3-0.1-0.6-0.3-0.8-0.6
			c-0.3-0.3-0.4-0.6-0.4-1s0.1-0.6,0.3-0.9c0.2-0.2,0.4-0.4,0.7-0.5c0.3-0.1,0.6-0.2,0.9-0.2c0.1,0,0.3,0,0.4,0s0.3,0.1,0.4,0.1
			l-0.1,1c-0.1,0-0.2,0-0.3-0.1c-0.1,0-0.2,0-0.3,0c-0.2,0-0.4,0.1-0.6,0.2c-0.1,0.1-0.2,0.2-0.2,0.4c0,0.2,0.1,0.4,0.2,0.6
			s0.3,0.3,0.5,0.4s0.4,0.1,0.5,0.1l-0.8,0.1c0.3-0.1,0.6-0.2,0.9-0.2c0.3-0.1,0.5-0.2,0.7-0.2l0.3,0.9c-0.3,0.1-0.6,0.2-1,0.3
			s-0.7,0.2-1.1,0.3C110,86.6,109.6,86.7,109.3,86.8z"/>
		<path class="st6" d="M110.3,98.8l-0.3-11h1.7l0.3,11H110.3z"/>
		<path class="st6" d="M124.7,92.1c-0.3,0-0.5-0.1-0.7-0.3c-0.2-0.2-0.3-0.4-0.3-0.7c0-0.3,0.1-0.5,0.3-0.7c0.2-0.2,0.4-0.3,0.7-0.3
			c0.2,0,0.5,0.1,0.6,0.3c0.2,0.2,0.3,0.4,0.3,0.7c0,0.2-0.1,0.5-0.3,0.7C125.2,92,125,92.1,124.7,92.1z M127.2,92.1
			c-0.3,0-0.5-0.1-0.7-0.3c-0.2-0.2-0.3-0.4-0.3-0.7c0-0.2,0.1-0.5,0.3-0.7c0.2-0.2,0.4-0.3,0.7-0.3c0.2,0,0.5,0.1,0.7,0.3
			c0.2,0.2,0.3,0.4,0.3,0.7c0,0.3-0.1,0.5-0.3,0.7C127.7,92,127.5,92.1,127.2,92.1z"/>
		<path class="st6" d="M124.3,99.1c-1.1,0-2-0.1-2.8-0.2s-1.4-0.4-2-0.7c-0.5-0.3-0.9-0.7-1.1-1.1s-0.4-1-0.4-1.6c0-0.3,0-0.6,0.1-1
			c0-0.3,0.1-0.6,0.2-1s0.2-0.6,0.2-0.9L120,93c0,0.2-0.1,0.4-0.2,0.6s-0.1,0.5-0.1,0.7s-0.1,0.4-0.1,0.6c0,0.5,0.1,1,0.5,1.3
			c0.3,0.3,0.8,0.6,1.5,0.8c0.7,0.2,1.7,0.3,3,0.3l0.3,1.1L124.3,99.1z M124.3,99.1l0.4-1.7c1.3,0,2.3,0,3.3-0.1
			c0.9-0.1,1.7-0.2,2.3-0.3s1-0.3,1.3-0.6s0.4-0.6,0.4-0.9c0-0.4-0.1-0.9-0.2-1.5c-0.2-0.6-0.3-1.2-0.6-1.8l1.6-0.5
			c0.1,0.4,0.3,0.8,0.4,1.2c0.1,0.4,0.2,0.9,0.3,1.3s0.1,0.8,0.1,1.2c0,0.7-0.2,1.3-0.5,1.7s-0.8,0.9-1.5,1.2
			c-0.7,0.3-1.7,0.5-2.9,0.7C127.5,99.2,126.1,99.1,124.3,99.1z"/>
		<path class="st6" d="M139.6,98.8c-1,0-1.7-0.1-2.2-0.3c-0.5-0.2-0.9-0.5-1.1-1c-0.2-0.4-0.3-1-0.3-1.7l-0.3-9.3h1.7l0.4,8.6
			c0,0.5,0.1,1,0.2,1.2s0.3,0.5,0.6,0.6s0.7,0.2,1.3,0.2c0.3,0,0.5,0.1,0.6,0.2c0.1,0.2,0.2,0.3,0.2,0.6c0,0.2-0.1,0.4-0.3,0.6
			C140.1,98.7,139.9,98.8,139.6,98.8z"/>
		<path class="st6" d="M139.6,98.8l0.2-1.7c0.7,0,1.2,0,1.5,0c0.4,0,0.6,0,0.8,0s0.3,0,0.4,0c-0.2-0.1-0.4-0.3-0.6-0.5
			c-0.2-0.2-0.5-0.5-0.6-0.9c-0.2-0.4-0.3-0.8-0.3-1.3c0-0.7,0.2-1.2,0.5-1.7s0.8-0.9,1.3-1.2c0.6-0.3,1.2-0.4,1.9-0.4
			c0.3,0,0.6,0,0.9,0.1c0.3,0,0.6,0.1,0.9,0.2l-0.3,1.6c-0.2-0.1-0.5-0.1-0.7-0.1s-0.5-0.1-0.7-0.1c-0.4,0-0.7,0.1-1.1,0.2
			c-0.3,0.1-0.5,0.3-0.7,0.6s-0.3,0.6-0.3,0.9s0.1,0.5,0.2,0.7c0.1,0.2,0.2,0.4,0.4,0.6s0.4,0.3,0.6,0.4c0.2,0.1,0.4,0.2,0.6,0.3
			c0.2,0.1,0.4,0.1,0.6,0.1c0.2-0.1,0.3-0.1,0.5-0.1c0.1,0,0.3-0.1,0.5-0.1c0.2-0.1,0.3-0.1,0.6-0.2c0.2-0.1,0.5-0.2,0.8-0.4
			l0.6,1.5c-0.8,0.4-1.6,0.6-2.5,0.9c-0.8,0.2-1.7,0.4-2.6,0.6C141.8,98.8,140.8,98.8,139.6,98.8z"/>
		<path class="st6" d="M153.5,98.8c-1,0-1.7-0.1-2.2-0.3c-0.5-0.2-0.9-0.5-1.1-1c-0.2-0.4-0.3-1-0.3-1.7l-0.3-9.3h1.7l0.4,8.6
			c0,0.5,0.1,1,0.2,1.2s0.3,0.5,0.6,0.6s0.7,0.2,1.3,0.2c0.3,0,0.5,0.1,0.6,0.2c0.1,0.2,0.2,0.3,0.2,0.6c0,0.2-0.1,0.4-0.3,0.6
			C154,98.7,153.8,98.8,153.5,98.8z"/>
		<path class="st6" d="M153.5,98.8l0.2-1.7h3.6c1,0,1.9,0,2.6-0.1s1.3-0.2,1.8-0.4c0.5-0.2,0.8-0.4,1-0.6s0.3-0.5,0.3-0.9
			c0-0.2-0.1-0.4-0.2-0.6c-0.1-0.2-0.3-0.4-0.5-0.6c-0.2-0.1-0.6-0.2-1-0.2c-0.5,0-1,0.1-1.5,0.4s-1,0.6-1.4,1
			c-0.5,0.4-0.9,0.8-1.2,1.2c-0.4,0.4-0.7,0.8-0.9,1.2l-1.8-0.1c0.4-0.6,0.9-1.3,1.4-1.9s1.1-1.2,1.7-1.7c0.6-0.5,1.3-0.9,1.9-1.2
			c0.7-0.3,1.3-0.5,2-0.5s1.2,0.1,1.7,0.4s0.8,0.6,1.1,1.1s0.4,1,0.4,1.6s-0.2,1.2-0.6,1.7c-0.4,0.5-1.1,1-2,1.3
			c-0.5,0.2-1,0.3-1.6,0.4s-1.2,0.2-2,0.2c-0.7,0-1.6,0.1-2.6,0.1h-2.4V98.8z M155.2,97.1l-0.4-10.6h1.7l0.3,9L155.2,97.1z
			 M165.8,98.8c-0.4,0-0.8,0-1.3-0.1s-0.9-0.2-1.4-0.4c-0.4-0.2-0.8-0.4-1.1-0.6l1.4-1c0.4,0.2,0.8,0.3,1.2,0.3s0.9,0.1,1.3,0.1
			c0.3,0,0.5,0.1,0.6,0.2c0.1,0.2,0.2,0.3,0.2,0.6c0,0.2-0.1,0.4-0.3,0.6C166.4,98.7,166.1,98.8,165.8,98.8z"/>
		<path class="st6" d="M168.6,88.6c-0.3,0-0.5-0.1-0.7-0.3c-0.2-0.2-0.3-0.4-0.3-0.7c0-0.3,0.1-0.5,0.3-0.7s0.4-0.3,0.7-0.3
			c0.2,0,0.5,0.1,0.6,0.3c0.2,0.2,0.3,0.4,0.3,0.7c0,0.2-0.1,0.5-0.3,0.7C169,88.5,168.8,88.6,168.6,88.6z M171.1,88.6
			c-0.3,0-0.5-0.1-0.7-0.3c-0.2-0.2-0.3-0.4-0.3-0.7c0-0.2,0.1-0.5,0.3-0.7s0.4-0.3,0.7-0.3c0.2,0,0.5,0.1,0.7,0.3
			c0.2,0.2,0.3,0.4,0.3,0.7c0,0.3-0.1,0.5-0.3,0.7C171.6,88.5,171.3,88.6,171.1,88.6z"/>
		<path class="st6" d="M165.8,98.8l0.2-1.7c0.5,0,0.9,0,1.3,0c0.4,0,0.8,0,1.1,0s0.6-0.1,0.9-0.1s0.5-0.1,0.7-0.2
			c0.3-0.1,0.6-0.3,0.8-0.5s0.3-0.5,0.4-0.8s0.1-0.8,0.1-1.3s-0.1-0.9-0.2-1.4s-0.3-0.7-0.5-1c-0.2-0.2-0.5-0.3-0.8-0.3
			c-0.2,0-0.5,0.1-0.6,0.3c-0.2,0.2-0.3,0.4-0.5,0.7c-0.1,0.3-0.2,0.6-0.2,0.9c0,0.2,0,0.4,0.1,0.5c0.1,0.2,0.2,0.3,0.5,0.4
			s0.5,0.1,0.8,0.1s0.6,0,0.9-0.1c0.3-0.1,0.6-0.2,0.8-0.3l0.1,1.4c-0.2,0.1-0.4,0.2-0.6,0.3s-0.5,0.1-0.7,0.2
			c-0.3,0-0.5,0.1-0.8,0.1c-0.6,0-1.1-0.1-1.5-0.3c-0.4-0.2-0.7-0.4-1-0.8c-0.2-0.3-0.3-0.7-0.3-1.2s0.1-0.9,0.2-1.4
			s0.4-0.9,0.6-1.2c0.3-0.4,0.6-0.7,1-0.9c0.4-0.2,0.8-0.3,1.2-0.3c0.7,0,1.2,0.2,1.6,0.6s0.8,0.9,1,1.6s0.3,1.4,0.3,2.2
			c0,0.8-0.1,1.5-0.4,2.2c-0.3,0.6-0.7,1.1-1.3,1.5c-0.3,0.2-0.6,0.4-0.9,0.5c-0.4,0.1-0.8,0.2-1.2,0.3c-0.5,0.1-1,0.1-1.5,0.1
			S166.5,98.8,165.8,98.8z"/>
		<path class="st6" d="M129.3,108.5c-0.3,0-0.5-0.1-0.7-0.3c-0.2-0.2-0.3-0.4-0.3-0.7c0-0.3,0.1-0.5,0.3-0.7
			c0.2-0.2,0.4-0.3,0.7-0.3c0.2,0,0.5,0.1,0.6,0.3c0.2,0.2,0.3,0.4,0.3,0.7c0,0.2-0.1,0.5-0.3,0.7
			C129.8,108.5,129.6,108.5,129.3,108.5z M131.8,108.5c-0.3,0-0.5-0.1-0.7-0.3c-0.2-0.2-0.3-0.4-0.3-0.7c0-0.2,0.1-0.5,0.3-0.7
			s0.4-0.3,0.7-0.3c0.2,0,0.5,0.1,0.7,0.3c0.2,0.2,0.3,0.4,0.3,0.7c0,0.3-0.1,0.5-0.3,0.7C132.3,108.5,132.1,108.5,131.8,108.5z"/>
		<path class="st6" d="M132.1,117.5c-0.7,0.2-1.3,0.3-2,0.3c-0.6,0-1.2-0.1-1.7-0.3s-0.9-0.5-1.2-0.9s-0.5-0.8-0.5-1.4
			c0-0.5,0.1-1,0.4-1.4c0.2-0.4,0.6-0.8,1-1.2c0.4-0.3,1-0.6,1.5-0.9c0.6-0.2,1.2-0.4,1.9-0.5l0.2,1.7c-0.5,0-1,0.1-1.5,0.2
			c-0.4,0.1-0.8,0.3-1.1,0.5s-0.5,0.4-0.7,0.6s-0.2,0.5-0.2,0.7s0.1,0.4,0.3,0.6c0.2,0.1,0.4,0.3,0.7,0.3s0.6,0.1,0.9,0.1
			c0.3,0,0.6,0,1,0s0.6-0.1,0.8-0.2L132.1,117.5z M134.8,119.2c-0.7,0-1.3-0.1-1.8-0.3c-0.5-0.2-0.9-0.5-1.2-0.9s-0.5-1-0.5-1.8
			L131,110h1.7l0.3,5.7c0,0.5,0.1,0.9,0.3,1.2c0.2,0.3,0.4,0.4,0.6,0.5c0.3,0.1,0.6,0.1,1,0.1c0.3,0,0.5,0.1,0.6,0.2
			c0.1,0.2,0.2,0.3,0.2,0.6c0,0.2-0.1,0.4-0.3,0.6C135.4,119.1,135.1,119.2,134.8,119.2z"/>
		<path class="st6" d="M134.8,119.2l0.2-1.7c0.7,0,1.2,0,1.5,0c0.4,0,0.6,0,0.8,0s0.3,0,0.4,0c-0.2-0.1-0.4-0.3-0.6-0.5
			c-0.2-0.2-0.5-0.5-0.6-0.9c-0.2-0.4-0.3-0.8-0.3-1.3c0-0.7,0.2-1.2,0.5-1.7s0.8-0.9,1.3-1.2c0.6-0.3,1.2-0.4,1.9-0.4
			c0.3,0,0.6,0,0.9,0.1c0.3,0,0.6,0.1,0.9,0.2l-0.3,1.6c-0.2-0.1-0.5-0.1-0.7-0.1s-0.5-0.1-0.7-0.1c-0.4,0-0.7,0.1-1.1,0.2
			c-0.3,0.1-0.5,0.3-0.7,0.6s-0.3,0.6-0.3,0.9s0.1,0.5,0.2,0.7c0.1,0.2,0.2,0.4,0.4,0.6s0.4,0.3,0.6,0.4s0.4,0.2,0.6,0.3
			c0.2,0.1,0.4,0.1,0.6,0.1c0.2-0.1,0.3-0.1,0.5-0.1s0.3-0.1,0.5-0.1c0.2-0.1,0.3-0.1,0.6-0.2c0.2-0.1,0.5-0.2,0.8-0.4l0.6,1.5
			c-0.8,0.4-1.6,0.6-2.5,0.9c-0.8,0.2-1.7,0.4-2.6,0.6C137.1,119.2,136,119.2,134.8,119.2z"/>
		<path class="st6" d="M144.6,123.1l-0.4-1.7c0.7-0.1,1.4-0.2,2-0.4c0.6-0.2,1.1-0.4,1.5-0.7c0.4-0.3,0.7-0.7,1-1.2
			c0.2-0.5,0.3-1.1,0.3-1.8c0-0.7-0.1-1.3-0.4-1.8c-0.3-0.5-0.6-0.7-1-0.7c-0.2,0-0.5,0.1-0.6,0.3c-0.2,0.2-0.3,0.4-0.5,0.7
			s-0.2,0.6-0.2,0.9c0,0.2,0,0.3,0.1,0.4s0.2,0.2,0.4,0.3c0.2,0.1,0.4,0.1,0.7,0.2c0.3,0,0.7,0,1.2,0h3.4c0.3,0,0.5,0.1,0.6,0.2
			c0.1,0.2,0.2,0.3,0.2,0.6c0,0.2-0.1,0.4-0.3,0.6s-0.4,0.3-0.7,0.3h-4.2c-0.6,0-1.1-0.1-1.5-0.2s-0.8-0.4-1.1-0.7
			c-0.3-0.3-0.4-0.8-0.4-1.3s0.1-1,0.2-1.4s0.4-0.9,0.6-1.2c0.3-0.4,0.6-0.7,1-0.9c0.4-0.2,0.8-0.3,1.2-0.3c0.6,0,1.1,0.2,1.5,0.5
			s0.8,0.8,1,1.5c0.2,0.6,0.4,1.4,0.4,2.3c0,1.1-0.2,2.1-0.7,2.9s-1.1,1.4-2,1.9C147,122.6,145.9,122.9,144.6,123.1z"/>
		<path class="st6" d="M154.7,112.7c-0.3,0-0.5-0.1-0.7-0.3c-0.2-0.2-0.3-0.4-0.3-0.7c0-0.3,0.1-0.5,0.3-0.7s0.4-0.3,0.7-0.3
			s0.5,0.1,0.7,0.3c0.2,0.2,0.3,0.4,0.3,0.7c0,0.3-0.1,0.5-0.3,0.7C155.2,112.6,155,112.7,154.7,112.7z"/>
		<path class="st6" d="M151.9,119.2l0.2-1.7c0.5,0,0.8,0,1.1-0.1s0.5-0.2,0.6-0.5c0.1-0.2,0.3-0.6,0.4-1.1c0.1-0.5,0.2-1.1,0.4-1.9
			l1.6,0.3c0,0.2-0.1,0.4-0.1,0.7c-0.1,0.2-0.1,0.5-0.1,0.7s-0.1,0.5-0.1,0.6c0,0.2,0.1,0.5,0.2,0.6s0.3,0.3,0.7,0.4
			c0.3,0.1,0.8,0.2,1.5,0.2c0.3,0,0.5,0.1,0.6,0.2c0.1,0.2,0.2,0.3,0.2,0.6c0,0.2-0.1,0.4-0.3,0.6s-0.4,0.3-0.7,0.3
			c-0.7,0-1.3-0.1-1.8-0.2c-0.4-0.1-0.8-0.3-1-0.6s-0.3-0.7-0.4-1.1h0.6c-0.2,0.4-0.4,0.8-0.6,1s-0.5,0.5-0.8,0.6s-0.6,0.2-0.9,0.3
			C152.7,119.2,152.4,119.2,151.9,119.2z"/>
		<path class="st6" d="M160.3,112.7c-0.3,0-0.5-0.1-0.7-0.3c-0.2-0.2-0.3-0.4-0.3-0.7c0-0.3,0.1-0.5,0.3-0.7s0.4-0.3,0.7-0.3
			c0.2,0,0.5,0.1,0.6,0.3c0.2,0.2,0.3,0.4,0.3,0.7c0,0.2-0.1,0.5-0.3,0.7C160.8,112.6,160.5,112.7,160.3,112.7z M162.8,112.7
			c-0.3,0-0.5-0.1-0.7-0.3c-0.2-0.2-0.3-0.4-0.3-0.7c0-0.2,0.1-0.5,0.3-0.7s0.4-0.3,0.7-0.3c0.2,0,0.5,0.1,0.7,0.3
			c0.2,0.2,0.3,0.4,0.3,0.7c0,0.3-0.1,0.5-0.3,0.7C163.3,112.6,163,112.7,162.8,112.7z"/>
		<path class="st6" d="M158,119.2l0.2-1.7c0.5,0,0.9,0,1.2-0.1s0.6-0.2,0.7-0.5c0.2-0.2,0.3-0.6,0.4-1.1c0.1-0.5,0.2-1.1,0.4-1.9
			l1.6,0.3c0,0.2-0.1,0.4-0.1,0.7c-0.1,0.2-0.1,0.5-0.1,0.7s-0.1,0.5-0.1,0.6c0,0.2,0,0.3,0.1,0.5c0,0.2,0.1,0.3,0.3,0.4
			s0.4,0.2,0.7,0.2s0.8,0.1,1.4,0.1c0.3,0,0.5,0.1,0.6,0.2c0.1,0.2,0.2,0.3,0.2,0.6c0,0.2-0.1,0.4-0.3,0.6s-0.4,0.3-0.7,0.3
			c-0.6,0-1.2,0-1.6-0.1s-0.7-0.2-1-0.3c-0.2-0.2-0.4-0.4-0.5-0.6s-0.2-0.5-0.2-0.9h0.6c-0.2,0.4-0.4,0.8-0.6,1
			c-0.2,0.3-0.5,0.5-0.8,0.6s-0.6,0.2-1,0.3C158.9,119.2,158.4,119.2,158,119.2z"/>
		<path class="st6" d="M164.5,119.2l0.2-1.7c0.3,0,0.6-0.1,0.8-0.2s0.4-0.4,0.6-0.7c0.2-0.3,0.4-0.7,0.7-1.3c0.3-0.7,0.7-1.2,1-1.6
			s0.7-0.6,1-0.8s0.7-0.2,1-0.2c0.4,0,0.8,0.1,1.2,0.3c0.4,0.2,0.7,0.5,0.9,0.8c0.3,0.3,0.5,0.7,0.6,1.1c0.2,0.4,0.2,0.8,0.2,1.2
			c0,0.7-0.1,1.2-0.4,1.6c-0.2,0.4-0.6,0.7-1,0.9c-0.4,0.2-0.8,0.3-1.3,0.3c-0.4,0-0.9-0.1-1.5-0.2s-1.3-0.5-2.1-1l0.7-1.4
			c0.5,0.4,1,0.6,1.5,0.7c0.4,0.1,0.8,0.2,1.1,0.2s0.5,0,0.7-0.1s0.3-0.2,0.4-0.4c0.1-0.2,0.1-0.3,0.1-0.6c0-0.3-0.1-0.6-0.2-0.9
			s-0.3-0.6-0.6-0.8c-0.2-0.2-0.5-0.3-0.7-0.3s-0.4,0.1-0.6,0.2c-0.2,0.1-0.4,0.4-0.6,0.7c-0.2,0.3-0.4,0.7-0.7,1.3
			c-0.3,0.6-0.5,1.1-0.8,1.4c-0.2,0.4-0.5,0.6-0.8,0.8c-0.3,0.2-0.5,0.3-0.8,0.4C165.2,119.2,164.9,119.2,164.5,119.2z"/>
	</g>
</g>
<g>
	<path class="st6" d="M172.7,52.1c0,1.2-0.1,2.4-0.3,3.6c-0.2,1.2-0.5,2.4-0.9,3.6c-0.4,1.1-0.9,2.2-1.4,3.2c-0.5,1-1.1,1.8-1.7,2.5
		c-0.4,0.5-1,0.9-1.6,1.4c-0.7,0.4-1.4,0.8-2.3,1.2c-0.8,0.4-1.7,0.6-2.6,0.9c-0.9,0.2-1.8,0.3-2.7,0.3c-1.8,0-3.4-0.2-4.8-0.6
		c-1.4-0.4-2.6-1-3.6-1.8c-1-0.8-1.8-1.8-2.3-3.1c-0.5-1.2-0.8-2.7-0.8-4.4c0-1.5,0.2-3.3,0.6-5.3c0.4-2.1,1.2-4.4,2.2-7
		c0.6-1.5,1.3-3,2.1-4.5s1.7-2.9,2.5-4.1c0.9-1.2,1.7-2.2,2.6-3c0.9-0.8,1.6-1.1,2.3-1.1c1.6,0,3,0.4,4.3,1.3
		c1.3,0.9,2.6,2.2,3.9,3.9c0.8,1,1.5,2.1,2.1,3.2c0.6,1.2,1,2.3,1.4,3.5c0.3,1.2,0.6,2.3,0.8,3.4C172.6,50.2,172.7,51.2,172.7,52.1z
		 M169.4,55.7c0-1.8-0.3-3.7-0.9-5.6c-0.6-1.8-1.4-3.5-2.4-5c-1-1.5-2.1-2.7-3.3-3.7c-1.2-0.9-2.4-1.4-3.6-1.4
		c-0.6,0-1.2,0.3-1.8,0.8c-0.6,0.5-1.2,1.2-1.8,2.1c-0.6,0.9-1.1,1.8-1.6,2.9c-0.5,1.1-1,2.1-1.3,3.2c-0.4,1.1-0.7,2.1-0.9,3.1
		c-0.2,1-0.3,1.8-0.3,2.5c0,1.1,0.1,2.1,0.4,3.1c0.3,0.9,0.7,1.7,1.4,2.4c0.7,0.7,1.6,1.2,2.7,1.6c1.1,0.4,2.5,0.6,4.2,0.6
		c1,0,2.1-0.2,3.2-0.5c1.1-0.3,2.1-0.8,3-1.4c0.9-0.6,1.6-1.3,2.2-2.1C169.1,57.5,169.4,56.6,169.4,55.7z"/>
</g>
</svg>
