<?xml version="1.0" encoding="utf-8"?>
<!-- Generator: Adobe Illustrator 25.2.1, SVG Export Plug-In . SVG Version: 6.00 Build 0)  -->
<svg version="1.1" id="Layer_1" xmlns="http://www.w3.org/2000/svg" xmlns:xlink="http://www.w3.org/1999/xlink" x="0px" y="0px"
	 viewBox="0 0 195 203" style="enable-background:new 0 0 195 203;" xml:space="preserve">
<style type="text/css">
	.st0{fill:#020203;}
	.st1{stroke:#FFFFFF;stroke-width:0.8;stroke-miterlimit:10;}
	.st2{fill:#FFFFFF;}
	.st3{fill:#282727;stroke:#FFFFFF;stroke-width:0.8;stroke-miterlimit:10;}
	.st4{fill-rule:evenodd;clip-rule:evenodd;fill:#FFFFFF;}
	.st5{fill:#3C3C3B;stroke:#FFFFFF;stroke-width:0.8;stroke-miterlimit:10;}
	.st6{fill:#4A4A49;stroke:#FFFFFF;stroke-width:0.8;stroke-miterlimit:10;}
	.st7{fill:#575756;stroke:#FFFFFF;stroke-width:0.8;stroke-miterlimit:10;}
</style>
<g>
	<defs>
		<path id="SVGID_1_" d="M185.7,203H9.3c-5.1,0-9.3-4.1-9.3-9.3V9.3C0,4.1,4.1,0,9.3,0h176.5c5.1,0,9.3,4.1,9.3,9.3v184.5
			C195,198.9,190.9,203,185.7,203z"/>
	</defs>
	<clipPath id="SVGID_2_">
		<use xlink:href="#SVGID_1_"  style="overflow:visible;"/>
	</clipPath>
	<image style="overflow:visible;clip-path:url(#SVGID_2_);" width="195" height="203" xlink:href="01.jpg" >
	</image>
</g>
<g>
	<path class="st0" d="M32.1,89.6c0,3.3-2.1,5.2-5.5,5.2h-3.1V84.4h3.1C30.1,84.4,32.1,86.3,32.1,89.6z M26.6,94c3,0,4.5-1.6,4.5-4.3
		c0-2.7-1.5-4.4-4.5-4.4h-2.1V94H26.6z"/>
	<path class="st0" d="M33.8,84.3c0-0.5,0.3-0.8,0.8-0.8s0.8,0.3,0.8,0.8s-0.3,0.8-0.8,0.8S33.8,84.8,33.8,84.3z M34.1,86.7h1v8.2h-1
		V86.7z"/>
	<path class="st0" d="M37.6,86.7l2.8,7.2l2.8-7.2h1.1L41,94.8h-1.2l-3.3-8.2H37.6z"/>
	<path class="st0" d="M49.2,95c-2.3,0-4-1.6-4-4.2c0-2.6,1.7-4.2,4-4.2c2.4,0,3.9,1.7,3.9,3.8c0,0.3,0,0.5,0,0.8h-6.8
		c0.1,1.9,1.4,2.9,3,2.9c1.4,0,2.3-0.7,2.6-1.8H53C52.6,93.8,51.3,95,49.2,95z M46.3,90.3H52c0-1.9-1.3-2.9-2.9-2.9
		C47.7,87.4,46.4,88.4,46.3,90.3z"/>
	<path class="st0" d="M56.1,94.8h-1v-8.2h1v1.5c0.5-1,1.4-1.6,2.8-1.6v1.1h-0.3c-1.4,0-2.5,0.6-2.5,2.7V94.8z"/>
	<path class="st0" d="M63.3,95c-1.9,0-3.2-0.9-3.3-2.4h1.1c0.1,0.9,0.9,1.5,2.2,1.5c1.2,0,1.8-0.6,1.8-1.4c0-2-4.9-0.8-4.9-3.9
		c0-1.2,1.2-2.2,2.9-2.2c1.8,0,2.9,0.9,3,2.5h-1c-0.1-0.9-0.7-1.6-2-1.6c-1.1,0-1.8,0.6-1.8,1.3c0,2.2,4.8,1,4.9,3.9
		C66.1,94,65,95,63.3,95z"/>
	<path class="st0" d="M67.9,84.3c0-0.5,0.3-0.8,0.8-0.8s0.8,0.3,0.8,0.8s-0.3,0.8-0.8,0.8S67.9,84.8,67.9,84.3z M68.1,86.7h1v8.2h-1
		V86.7z"/>
	<path class="st0" d="M71.8,87.5h-1.1v-0.9h1.1v-0.6c0-1.8,0.8-2.6,2.9-2.6v0.9c-1.4,0-1.8,0.5-1.8,1.7v0.6h4.6v8.2h-1v-7.3h-3.5
		v7.3h-1V87.5z M76.2,84.3c0-0.5,0.3-0.8,0.8-0.8s0.8,0.3,0.8,0.8s-0.3,0.8-0.8,0.8S76.2,84.8,76.2,84.3z"/>
	<path class="st0" d="M83.3,95c-2.3,0-4-1.6-4-4.2c0-2.6,1.7-4.2,4-4.2c2.4,0,3.9,1.7,3.9,3.8c0,0.3,0,0.5,0,0.8h-6.8
		c0.1,1.9,1.4,2.9,3,2.9c1.4,0,2.3-0.7,2.6-1.8H87C86.7,93.8,85.4,95,83.3,95z M80.3,90.3h5.8c0-1.9-1.3-2.9-2.9-2.9
		C81.8,87.4,80.5,88.4,80.3,90.3z"/>
	<path class="st0" d="M92.5,86.5c1.5,0,2.7,0.8,3.2,1.9v-4.7h1v11.1h-1V93c-0.5,1.1-1.6,2-3.2,2c-2.2,0-3.9-1.7-3.9-4.2
		C88.6,88.2,90.3,86.5,92.5,86.5z M92.7,87.5c-1.7,0-3,1.2-3,3.3c0,2.1,1.3,3.3,3,3.3c1.7,0,3-1.3,3-3.3S94.4,87.5,92.7,87.5z"/>
	<path class="st0" d="M106.9,94.8h-3.6V84.4h3.5c2.2,0,3.3,1.2,3.3,2.6c0,1.4-0.9,2.1-1.9,2.4c1.2,0.2,2.1,1.3,2.1,2.6
		C110.3,93.6,109.2,94.8,106.9,94.8z M106.8,85.2h-2.4V89h2.4c1.4,0,2.2-0.7,2.2-1.9C109,86,108.3,85.2,106.8,85.2z M106.8,89.9
		h-2.5V94h2.5c1.5,0,2.4-0.8,2.4-2S108.3,89.9,106.8,89.9z"/>
	<path class="st0" d="M119.4,94.8h-1v-1.4c-0.5,1-1.6,1.6-2.8,1.6c-1.9,0-3.3-1.1-3.3-3.5v-4.8h1v4.7c0,1.8,1,2.7,2.5,2.7
		c1.5,0,2.6-1,2.6-3v-4.5h1V94.8z"/>
	<path class="st0" d="M124.6,95c-1.9,0-3.2-0.9-3.3-2.4h1.1c0.1,0.9,0.9,1.5,2.2,1.5c1.2,0,1.8-0.6,1.8-1.4c0-2-4.9-0.8-4.9-3.9
		c0-1.2,1.2-2.2,2.9-2.2c1.8,0,2.9,0.9,3,2.5h-1.1c-0.1-0.9-0.7-1.6-2-1.6c-1.1,0-1.8,0.6-1.8,1.3c0,2.2,4.8,1,4.9,3.9
		C127.4,94,126.3,95,124.6,95z"/>
	<path class="st0" d="M129.2,84.3c0-0.5,0.3-0.8,0.8-0.8s0.8,0.3,0.8,0.8s-0.3,0.8-0.8,0.8S129.2,84.8,129.2,84.3z M129.4,86.7h1
		v8.2h-1V86.7z"/>
	<path class="st0" d="M139,90.2c0-1.8-1-2.7-2.5-2.7c-1.5,0-2.6,1-2.6,3v4.5h-1v-8.2h1v1.4c0.5-1,1.6-1.5,2.8-1.5
		c1.9,0,3.3,1.1,3.3,3.5v4.8h-1V90.2z"/>
	<path class="st0" d="M145.9,95c-2.3,0-4-1.6-4-4.2c0-2.6,1.7-4.2,4-4.2c2.4,0,3.9,1.7,3.9,3.8c0,0.3,0,0.5,0,0.8h-6.8
		c0.1,1.9,1.4,2.9,3,2.9c1.4,0,2.3-0.7,2.6-1.8h1.1C149.3,93.8,147.9,95,145.9,95z M142.9,90.3h5.8c0-1.9-1.3-2.9-2.8-2.9
		C144.4,87.4,143.1,88.4,142.9,90.3z"/>
	<path class="st0" d="M154.5,95c-1.9,0-3.2-0.9-3.3-2.4h1.1c0.1,0.9,0.9,1.5,2.2,1.5c1.2,0,1.8-0.6,1.8-1.4c0-2-4.9-0.8-4.9-3.9
		c0-1.2,1.2-2.2,2.9-2.2c1.8,0,2.9,0.9,3,2.5h-1c-0.1-0.9-0.7-1.6-2-1.6c-1.1,0-1.8,0.6-1.8,1.3c0,2.2,4.8,1,4.9,3.9
		C157.3,94,156.2,95,154.5,95z"/>
	<path class="st0" d="M162.1,95c-1.9,0-3.2-0.9-3.3-2.4h1.1c0.1,0.9,0.9,1.5,2.2,1.5c1.2,0,1.8-0.6,1.8-1.4c0-2-4.9-0.8-4.9-3.9
		c0-1.2,1.2-2.2,2.9-2.2c1.8,0,2.9,0.9,3,2.5h-1c-0.1-0.9-0.7-1.6-2-1.6c-1.1,0-1.8,0.6-1.8,1.3c0,2.2,4.8,1,4.9,3.9
		C165,94,163.8,95,162.1,95z"/>
	<path class="st0" d="M30.7,105.4h1.1l-4,10.5h-1.2l-4-10.5h1.1l3.4,9.3L30.7,105.4z"/>
	<path class="st0" d="M36.9,116c-2.3,0-4-1.6-4-4.2c0-2.6,1.7-4.2,4-4.2c2.4,0,3.9,1.7,3.9,3.8c0,0.3,0,0.5,0,0.8h-6.8
		c0.1,1.9,1.4,2.9,3,2.9c1.4,0,2.3-0.7,2.6-1.8h1.1C40.3,114.8,38.9,116,36.9,116z M33.9,111.3h5.8c0-1.9-1.3-2.9-2.9-2.9
		C35.4,108.4,34.1,109.4,33.9,111.3z"/>
	<path class="st0" d="M43.7,115.8h-1v-8.2h1v1.5c0.5-1,1.4-1.6,2.8-1.6v1.1h-0.3c-1.4,0-2.5,0.6-2.5,2.7V115.8z"/>
	<path class="st0" d="M48.4,108.5h-1.1v-0.9h1.1v-2.1h1.1v2.1h2.2v0.9h-2.2v5.1c0,1,0.3,1.3,1.3,1.3h1v0.9h-1.1
		c-1.4,0-2.2-0.6-2.2-2.2V108.5z"/>
	<path class="st0" d="M53.2,105.3c0-0.5,0.3-0.8,0.8-0.8s0.8,0.3,0.8,0.8s-0.3,0.8-0.8,0.8S53.2,105.8,53.2,105.3z M53.4,107.7h1
		v8.2h-1V107.7z"/>
	<path class="st0" d="M60.4,107.5c2.1,0,3.4,1.1,3.8,2.8H63c-0.3-1.2-1.3-1.9-2.6-1.9c-1.6,0-2.9,1.1-2.9,3.3s1.3,3.3,2.9,3.3
		c1.4,0,2.4-0.7,2.6-1.9h1.1c-0.4,1.6-1.7,2.8-3.8,2.8c-2.3,0-4-1.6-4-4.2S58.1,107.5,60.4,107.5z"/>
	<path class="st0" d="M69.5,107.5c1.7,0,2.8,0.9,3.2,1.9v-1.8h1v8.2h-1V114c-0.5,1-1.6,1.9-3.3,1.9c-2.2,0-3.9-1.7-3.9-4.2
		C65.6,109.2,67.3,107.5,69.5,107.5z M69.7,108.5c-1.7,0-3,1.2-3,3.3c0,2.1,1.3,3.3,3,3.3c1.7,0,3-1.3,3-3.3S71.4,108.5,69.7,108.5z
		"/>
	<path class="st0" d="M76.2,104.7h1v11.1h-1V104.7z"/>
	<path class="st0" d="M82.5,116c-1.9,0-3.2-0.9-3.3-2.4h1.1c0.1,0.9,0.9,1.5,2.2,1.5c1.2,0,1.8-0.6,1.8-1.4c0-2-4.9-0.8-4.9-3.9
		c0-1.2,1.2-2.2,2.9-2.2c1.8,0,2.9,0.9,3,2.5h-1c-0.1-0.9-0.7-1.6-2-1.6c-1.1,0-1.8,0.6-1.8,1.3c0,2.2,4.8,1,4.9,3.9
		C85.3,115,84.1,116,82.5,116z"/>
</g>
<g>
	<g>
		<circle class="st1" cx="40.4" cy="159.2" r="18.1"/>
		<g>
			<path class="st2" d="M40.4,170.2c-0.2,0-0.4-0.1-0.6-0.2c-0.3-0.3-0.3-0.8,0-1.2l2.2-2.2c0.1-0.1,0.2-0.2,0.4-0.2
				c-0.4-0.6-0.6-1.3-0.6-2c0-2,1.6-3.6,3.6-3.6c2,0,3.6,1.6,3.6,3.6c0,2-1.6,3.6-3.6,3.6c-0.7,0-1.4-0.2-2-0.6
				c0,0.1-0.1,0.3-0.2,0.4l-2.2,2.2C40.8,170.1,40.6,170.2,40.4,170.2z M45.5,162.3c-1.1,0-2,0.9-2,2s0.9,2,2,2s2-0.9,2-2
				S46.6,162.3,45.5,162.3z M33.1,170.2c-2,0-3.6-1.6-3.6-3.6c0-2,1.6-3.6,3.6-3.6c0.7,0,1.4,0.2,2,0.6c0-0.1,0.1-0.3,0.2-0.4l9-9
				c0.1-0.1,0.2-0.2,0.4-0.2c-0.4-0.6-0.6-1.3-0.6-2c0-2,1.6-3.6,3.6-3.6c2,0,3.6,1.6,3.6,3.6s-1.6,3.6-3.6,3.6
				c-0.7,0-1.4-0.2-2-0.6c0,0.1-0.1,0.3-0.2,0.4l-9,9c-0.1,0.1-0.2,0.2-0.4,0.2c0.4,0.6,0.6,1.3,0.6,2
				C36.7,168.5,35.1,170.2,33.1,170.2z M33.1,164.5c-1.1,0-2,0.9-2,2c0,1.1,0.9,2,2,2s2-0.9,2-2C35.1,165.4,34.2,164.5,33.1,164.5z
				 M47.7,149.9c-1.1,0-2,0.9-2,2c0,1.1,0.9,2,2,2s2-0.9,2-2C49.7,150.8,48.8,149.9,47.7,149.9z M35.4,157.8c-2,0-3.6-1.6-3.6-3.6
				s1.6-3.6,3.6-3.6c0.7,0,1.4,0.2,2,0.6c0-0.1,0.1-0.3,0.2-0.4l2.2-2.2c0.3-0.3,0.8-0.3,1.2,0c0.3,0.3,0.3,0.8,0,1.2l-2.2,2.2
				c-0.1,0.1-0.2,0.2-0.4,0.2c0.4,0.6,0.6,1.3,0.6,2C39,156.2,37.4,157.8,35.4,157.8z M35.4,152.2c-1.1,0-2,0.9-2,2c0,1.1,0.9,2,2,2
				s2-0.9,2-2C37.3,153.1,36.4,152.2,35.4,152.2z"/>
		</g>
	</g>
	<g>
		<circle class="st3" cx="69" cy="159.2" r="18.1"/>
		<g id="layer1_1_" transform="translate(-396,-196)">
			<path id="path39527_1_" class="st4" d="M454.8,344.3c-0.4,0-0.8,0.3-0.8,0.8c0,0.4,0.3,0.8,0.8,0.8h0.9l3,14.2
				c0.1,0.4,0.4,0.6,0.8,0.6h14.2c0.4,0,0.8-0.3,0.8-0.8c0-0.4-0.3-0.8-0.8-0.8h-13.6l-0.3-1.6H473c0.4,0,0.7-0.2,0.8-0.6l2.1-8.6
				c0.1-0.5-0.2-1-0.8-1h-5.5v-2.3c0-0.4-0.3-0.8-0.8-0.8h-3.1c-0.4,0-0.8,0.3-0.8,0.8v2.3h-0.1l-0.7-2.5c-0.1-0.3-0.4-0.6-0.7-0.6
				c-0.1,0-0.2,0-0.2,0l-3,0.8c-0.4,0.1-0.7,0.5-0.6,1l0.4,1.3h-2.3l-0.5-2.5c-0.1-0.4-0.4-0.6-0.8-0.6H454.8z M466.5,345.9h1.6v1.6
				h-1.6V345.9z M462.8,346.1l0.4,1.4h-1.6l-0.3-1L462.8,346.1z M458,349h16.1l-1.7,7l-12.9,0C459,353.8,458.5,351.3,458,349
				L458,349z"/>
			<path id="circle39529_1_" class="st4" d="M462.6,361.4c-1.3,0-2.3,1.1-2.3,2.3s1.1,2.3,2.3,2.3s2.3-1.1,2.3-2.3
				S463.9,361.4,462.6,361.4z M462.6,363c0.4,0,0.8,0.3,0.8,0.8s-0.3,0.8-0.8,0.8c-0.4,0-0.8-0.3-0.8-0.8S462.2,363,462.6,363z"/>
			<path id="circle39531_1_" class="st4" d="M470.4,361.4c-1.3,0-2.3,1.1-2.3,2.3s1.1,2.3,2.3,2.3s2.3-1.1,2.3-2.3
				S471.7,361.4,470.4,361.4z M470.4,363c0.4,0,0.8,0.3,0.8,0.8s-0.3,0.8-0.8,0.8c-0.4,0-0.8-0.3-0.8-0.8S469.9,363,470.4,363z"/>
		</g>
	</g>
	<g>
		<circle class="st5" cx="97.5" cy="159.2" r="18.1"/>
		<g>
			<path class="st2" d="M107.9,158.7c0,0.5,0,1.1,0,1.6c-0.4,0-0.8,0-1.2,0c0,0.3,0,0.5,0,0.7c0,0.5-0.1,0.9-0.3,1.3
				c-0.5,0.8-1.2,1.2-2.2,1.2c-2.2,0-4.4,0-6.7,0c-2.2,0-4.5,0-6.7,0c-1.2,0-2.1-0.7-2.4-1.9c-0.1-0.2-0.1-0.4-0.1-0.6
				c0-0.2,0-0.5,0-0.7c-0.4,0-0.8,0-1.2,0c0-0.5,0-1.1,0-1.6c0.5,0,0.9,0,1.4,0c0.5,0,0.9,0,1.4,0c0-2.9,0-5.8,0-8.7
				c5,0,10.1,0,15.1,0c0,2.9,0,5.8,0,8.7C106,158.7,106.9,158.7,107.9,158.7z M90,160.3c0,0.2,0,0.4,0,0.6c0,0.7,0.3,1,1,1
				c4.4,0,8.8,0,13.1,0c0.1,0,0.1,0,0.2,0c0.4,0,0.7-0.3,0.7-0.6c0-0.3,0-0.7,0-1C100,160.3,95,160.3,90,160.3z M99,154.9
				c-1,0-2,0-3,0c0,1.3,0,2.5,0,3.8c1,0,2,0,3,0C99,157.4,99,156.2,99,154.9z M94.4,158.7c0-1.3,0-2.5,0-3.8c-0.9,0-1.8,0-2.8,0
				c0,1.3,0,2.5,0,3.8C92.5,158.7,93.4,158.7,94.4,158.7z M100.6,154.9c0,1.3,0,2.5,0,3.8c0.9,0,1.8,0,2.8,0c0-1.3,0-2.5,0-3.8
				C102.5,154.9,101.6,154.9,100.6,154.9z M99,151.7c-1,0-2,0-3,0c0,0.5,0,1.1,0,1.6c1,0,2,0,3,0C99,152.7,99,152.2,99,151.7z
				 M94.4,151.7c-0.9,0-1.9,0-2.8,0c0,0.5,0,1.1,0,1.6c0.9,0,1.8,0,2.8,0C94.4,152.7,94.4,152.2,94.4,151.7z M103.4,151.7
				c-0.9,0-1.9,0-2.8,0c0,0.5,0,1.1,0,1.6c0.9,0,1.8,0,2.8,0C103.4,152.7,103.4,152.2,103.4,151.7z"/>
			<path class="st2" d="M87.1,165.2c0.6,0,1.1,0,1.6,0c0,0.5,0.2,0.9,0.7,1.2c0.3,0.2,0.6,0.3,1,0.3c0.8,0,1.3-0.5,1.5-1.5
				c0.5,0,1.1,0,1.7,0c0,0.5,0.2,0.9,0.7,1.2c0.3,0.2,0.7,0.3,1,0.3c0.8-0.1,1.3-0.6,1.4-1.5c0.5,0,1.1,0,1.6,0
				c0.3,1.1,0.8,1.5,1.6,1.5c0.8,0,1.3-0.5,1.5-1.5c0.5,0,1.1,0,1.7,0c0,0.5,0.2,0.9,0.7,1.2c0.3,0.2,0.7,0.3,1,0.3
				c0.8-0.1,1.3-0.6,1.4-1.5c0.5,0,1.1,0,1.6,0c0.1,1-0.6,2.2-1.7,2.8c-1.2,0.6-2.8,0.5-3.9-0.7c-0.6,0.7-1.4,1.1-2.4,1.1
				c-0.9,0-1.7-0.4-2.4-1c-0.7,0.7-1.5,1.1-2.4,1c-0.9,0-1.7-0.4-2.4-1.1c-1.2,1.2-2.6,1.5-4.1,0.6
				C87.6,167.3,87.2,166.4,87.1,165.2z"/>
		</g>
	</g>
	<g>
		<circle class="st6" cx="126" cy="159.2" r="18.1"/>
		<g>
			<path class="st2" d="M123,169.5c-0.3,0-0.5-0.1-0.7-0.2c-0.4-0.2-0.7-0.6-1.1-1.2l-1.5-2.3c0-0.1-0.1-0.1-0.1-0.1c0,0,0,0,0,0
				c0,0-0.1,0-0.1-0.1l-2.3-1.5c-0.6-0.4-1-0.6-1.2-1.1c-0.2-0.4-0.2-0.8-0.1-1.2c0.1-0.4,0.4-0.7,0.9-1.3l0.2-0.2
				c0.2-0.2,0.4-0.4,0.6-0.5c0.2-0.1,0.4-0.2,0.6-0.2c0.2,0,0.4,0,0.7,0l1.6,0.2c0.1,0,0.3,0,0.3,0c0,0,0.1,0,0.1,0
				c0,0,0.1-0.1,0.2-0.2l2.4-2.4l-4.6-1.5c-0.9-0.3-1.4-0.5-1.7-0.9c-0.3-0.4-0.4-0.8-0.3-1.3c0.1-0.5,0.5-0.9,1.1-1.6l0.4-0.4
				c0.3-0.3,0.4-0.4,0.6-0.5c0.2-0.1,0.4-0.2,0.7-0.2c0.3,0,0.5,0,0.8,0.1l7.1,1.6c0.2,0,0.3,0.1,0.4,0.1c0,0,0,0,0,0
				c0,0,0.1,0,0.1,0c0,0,0.2-0.1,0.3-0.3l2.6-2.7l0.5,0.5l-0.5-0.5c0.6-0.6,1.4-0.9,2.2-0.9c0,0,0,0,0,0c0.8,0,1.6,0.3,2.2,0.9
				c0.6,0.6,0.9,1.3,0.9,2.2c0,0.8-0.3,1.6-0.9,2.2l-2.7,2.8c-0.1,0.1-0.2,0.2-0.3,0.3c0,0,0,0.1,0,0.1c0,0,0,0.2,0.1,0.4l1.7,7.2
				c0.1,0.4,0.1,0.6,0.1,0.8c0,0.2-0.1,0.5-0.2,0.7c-0.1,0.2-0.3,0.4-0.5,0.6l-0.4,0.4c-0.7,0.7-1,1-1.6,1.1c-0.5,0.1-0.9,0-1.3-0.3
				c-0.4-0.3-0.6-0.8-0.9-1.7l-1.5-4.6l-2.4,2.4c-0.1,0.1-0.2,0.2-0.2,0.2c0,0,0,0,0,0.1c0,0,0,0.2,0,0.3l0.2,1.6
				c0,0.3,0.1,0.5,0,0.7c0,0.2-0.1,0.4-0.2,0.6c-0.1,0.2-0.3,0.3-0.5,0.6l-0.2,0.2c-0.5,0.5-0.8,0.8-1.3,0.9
				C123.2,169.5,123.1,169.5,123,169.5z M122.9,168c0,0,0.1,0,0.1,0c0.1,0,0.4-0.3,0.6-0.6l0.2-0.2c0.1-0.1,0.2-0.2,0.2-0.2
				c0,0,0,0,0-0.1c0,0,0-0.2,0-0.3l-0.2-1.6c0-0.3-0.1-0.5,0-0.7c0-0.2,0.1-0.4,0.2-0.6c0.1-0.2,0.3-0.3,0.5-0.6l3.2-3.2
				c0.2-0.2,0.4-0.3,0.7-0.2c0.2,0.1,0.4,0.2,0.5,0.5l1.9,5.8c0.1,0.4,0.3,0.9,0.4,1c0,0,0.1,0,0.1,0c0.1-0.1,0.5-0.4,0.8-0.7
				l0.4-0.4c0.1-0.1,0.2-0.2,0.3-0.3c0,0,0-0.1,0-0.1c0,0,0-0.2-0.1-0.4l-1.7-7.2c-0.1-0.3-0.1-0.5-0.1-0.8c0-0.2,0.1-0.4,0.2-0.6
				c0.1-0.2,0.3-0.4,0.5-0.6l2.7-2.8c0.6-0.6,0.6-1.7,0-2.3c-0.3-0.3-0.7-0.5-1.2-0.5c-0.4,0-0.9,0.2-1.2,0.5l0,0l-2.6,2.7
				c-0.2,0.3-0.4,0.4-0.6,0.5c-0.2,0.1-0.5,0.2-0.7,0.2c-0.3,0-0.5,0-0.8-0.1l-7.1-1.6c-0.2,0-0.3-0.1-0.4-0.1c0,0,0,0,0,0
				c0,0-0.1,0-0.1,0c0,0-0.2,0.1-0.3,0.3l-0.4,0.4c-0.3,0.3-0.7,0.7-0.7,0.8c0,0.1,0,0.1,0,0.1c0.1,0.1,0.6,0.2,1,0.4l5.8,1.9
				c0.2,0.1,0.4,0.3,0.5,0.5s0,0.5-0.2,0.7l-3.2,3.2c-0.2,0.2-0.4,0.4-0.6,0.5c-0.2,0.1-0.4,0.2-0.6,0.2c-0.2,0-0.4,0-0.7,0
				l-1.6-0.2c-0.1,0-0.3,0-0.3,0c0,0,0,0-0.1,0c0,0-0.1,0.1-0.2,0.2l-0.2,0.2c-0.3,0.3-0.5,0.5-0.6,0.6c0,0,0,0.1,0,0.1
				c0.1,0.1,0.4,0.3,0.7,0.5l2.3,1.5c0.1,0.1,0.2,0.1,0.3,0.2c0.1,0.1,0.1,0.1,0.2,0.2c0.1,0.1,0.1,0.1,0.2,0.3l1.5,2.3
				C122.6,167.6,122.8,167.9,122.9,168z M123,168C123,168,123,168,123,168C123,168,123,168,123,168z M117.3,162.5
				C117.3,162.5,117.3,162.5,117.3,162.5C117.3,162.5,117.3,162.5,117.3,162.5z M117.3,162.3C117.3,162.3,117.3,162.3,117.3,162.3
				C117.3,162.3,117.3,162.3,117.3,162.3z M118.3,154C118.3,154,118.3,154,118.3,154C118.3,154,118.3,154,118.3,154z"/>
		</g>
	</g>
	<g>
		<circle class="st7" cx="154.6" cy="159.2" r="18.1"/>
		<g>
			<path class="st2" d="M161,148.7c0.3,0.1,0.6,0.2,0.9,0.3c0.9,0.5,1.4,1.3,1.4,2.3c0,1,0,2,0,3c0,0.9-0.3,1.7-0.9,2.4
				c-0.1,0.1-0.1,0.2-0.1,0.3c0,0.4,0,0.8,0,1.2c0,0.4-0.3,0.7-0.7,0.7c-0.4,0-0.7-0.3-0.7-0.7c0-0.2,0-0.3,0-0.5
				c-1.7,0.5-3.1,0.1-4.3-1.3c-0.7,1-1.7,1.5-3,1.5c-1.2,0-2.2-0.5-3-1.5c-1.1,1.4-2.6,1.8-4.3,1.3c0,0.1,0,0.1,0,0.2
				c0,2.6,0,5.2,0,7.8c0,0.9,0.5,1.4,1.4,1.4c2.3,0,4.7,0,7,0c0.1,0,0.2,0,0.2,0c0.3,0.1,0.6,0.4,0.5,0.7c0,0.3-0.3,0.6-0.6,0.6
				c-0.1,0-0.1,0-0.2,0c-2.3,0-4.7,0-7,0c-1.6,0-2.8-1.1-2.8-2.8c0-2.9,0-5.8,0-8.7c0-0.1,0-0.3-0.1-0.4c-0.6-0.7-0.9-1.5-0.9-2.3
				c0-1,0-2,0-2.9c0-1.3,0.9-2.4,2.2-2.6c0,0,0.1,0,0.1,0C151.4,148.7,156.2,148.7,161,148.7z M153.8,150c-2.3,0-4.6,0-6.9,0
				c-0.8,0-1.4,0.5-1.4,1.3c0,1,0,2.1,0,3.1c0,1.7,2,2.8,3.5,1.9c0.7-0.5,1.1-1.1,1.1-2c0-0.4,0.3-0.6,0.6-0.7
				c0.3,0,0.6,0.2,0.7,0.5c0,0.1,0,0.2,0,0.2c0.1,1.7,2,2.8,3.5,1.9c0.7-0.4,1.1-1.1,1.1-2c0-0.4,0.3-0.6,0.6-0.7
				c0.3,0,0.6,0.2,0.7,0.5c0,0.1,0,0.2,0,0.2c0.1,1.2,1,2.2,2.2,2.2c1.3,0,2.4-1,2.4-2.3c0-1,0-1.9,0-2.9c0-0.9-0.5-1.4-1.4-1.4
				C158.3,150,156.1,150,153.8,150z"/>
			<path class="st2" d="M165.3,160.4c-0.1,0.5-0.2,1-0.3,1.5c-0.2,0.8-0.3,1.5-0.5,2.3c-0.2,0.9-1,1.6-2,1.6c-1.5,0-2.9,0-4.4,0
				c-1,0-1.8-0.7-2-1.6c-0.3-1.4-0.6-2.8-0.8-4.1c0-0.1,0-0.1,0-0.2c-0.3,0-0.6,0-0.8,0c-0.4,0-0.7-0.3-0.7-0.7
				c0-0.4,0.3-0.7,0.7-0.7c0.4,0,0.9,0,1.3,0c0.4,0,0.6,0.2,0.7,0.6c0,0.1,0.1,0.3,0.1,0.4c0.1,0,0.2,0,0.3,0c2.5,0,5.1,0,7.6,0
				c0.4,0,0.7,0.1,0.9,0.5C165.3,160.2,165.3,160.3,165.3,160.4z M163.9,160.9c-2.3,0-4.6,0-7,0c0,0.1,0,0.1,0,0.2
				c0.2,0.9,0.4,1.8,0.6,2.8c0.1,0.5,0.3,0.6,0.8,0.6c1.4,0,2.8,0,4.2,0c0.5,0,0.7-0.2,0.8-0.6c0.1-0.5,0.2-1,0.3-1.6
				C163.7,161.8,163.8,161.4,163.9,160.9z"/>
			<path class="st2" d="M156.4,168.1c0-0.9,0.7-1.6,1.7-1.6c0.9,0,1.6,0.8,1.6,1.7c0,0.9-0.7,1.6-1.6,1.6
				C157.2,169.8,156.4,169,156.4,168.1z M158.4,168.1c0-0.2-0.1-0.3-0.3-0.3c-0.2,0-0.3,0.1-0.3,0.3c0,0.2,0.1,0.3,0.3,0.3
				C158.3,168.5,158.4,168.3,158.4,168.1z"/>
			<path class="st2" d="M161,168.1c0-0.9,0.7-1.6,1.7-1.6c0.9,0,1.6,0.8,1.6,1.7c0,0.9-0.7,1.6-1.7,1.6
				C161.8,169.8,161,169,161,168.1z M163,168.1c0-0.2-0.2-0.3-0.3-0.3c-0.2,0-0.3,0.2-0.3,0.3c0,0.2,0.2,0.3,0.3,0.3
				C162.9,168.5,163,168.3,163,168.1z"/>
		</g>
	</g>
</g>
<g>
	<g>
		<path class="st0" d="M46.2,33.7v4.8H30.1V48c1.3-1.7,4.1-3.2,7.2-3.2c8.6,0,11.2,6.4,11.2,11.7c0,7-4,12.2-12.1,12.2
			c-7.2,0-11.4-4-12.2-9.5h5.3c0.7,3,3.2,4.9,6.9,4.9c4.7,0,6.8-3.2,6.8-7.5c0-4.6-2.3-7.2-6.8-7.2c-3.2,0-5.4,1.8-6.3,4.4H25V33.7
			H46.2z"/>
	</g>
</g>
</svg>
