<?xml version="1.0" encoding="utf-8"?>
<!-- Generator: Adobe Illustrator 25.2.1, SVG Export Plug-In . SVG Version: 6.00 Build 0)  -->
<svg version="1.1" id="Layer_1" xmlns="http://www.w3.org/2000/svg" xmlns:xlink="http://www.w3.org/1999/xlink" x="0px" y="0px"
	 viewBox="0 0 283.5 283.5" style="enable-background:new 0 0 283.5 283.5;" xml:space="preserve">
<style type="text/css">
	.st0{fill:#020203;}
	.st1{fill:#FFFFFF;}
</style>
<g>
	<circle class="st0" cx="141.7" cy="141.7" r="138.9"/>
	<g>
		<path class="st1" d="M118.1,220.3c-2,0-3.9-0.4-5.7-1.3c-3.2-1.5-5-4.3-8.1-8.9l-11.5-17.3c-0.3-0.4-0.5-0.8-0.6-0.9
			c-0.1-0.1-0.1-0.1-0.2-0.2c-0.1-0.1-0.5-0.3-0.9-0.6l-17.3-11.5c-4.6-3.1-7.4-4.9-8.9-8.1c-1.3-2.8-1.7-6-0.9-8.9
			c0.9-3.4,3.1-5.6,7.2-9.7l1.5-1.5c1.7-1.7,2.7-2.7,4.3-3.6c1.4-0.8,2.8-1.3,4.4-1.5c1.7-0.3,3.2-0.1,5.6,0.2l12.1,1.3
			c1.1,0.1,2.3,0.2,2.6,0.2c0.2,0,0.4-0.1,0.6-0.2c0.2-0.2,1.1-1,1.9-1.8l18.1-18.1l-35.6-11.9c-6.9-2.3-10.6-3.5-13.1-6.8
			c-2.1-2.9-3-6.5-2.4-10c0.7-4,3.5-6.8,8.6-11.9l2.7-2.7c2-2,3.1-3.1,4.9-4c1.6-0.8,3.3-1.3,5-1.4c2-0.2,3.6,0.2,6.3,0.8l54.7,12.6
			c1.2,0.3,2.5,0.6,2.9,0.6c0,0,0,0,0,0c0.2,0,0.5-0.1,0.7-0.2c0.3-0.2,1.2-1.1,2.1-2l19.9-20.5l4,3.9l-4-3.9
			c4.5-4.6,10.5-7.2,16.9-7.3c0.1,0,0.1,0,0.2,0c6.4,0,12.3,2.5,16.9,7c4.4,4.4,6.9,10.3,7,16.6c0.1,6.3-2.3,12.2-6.6,16.7
			l-20.4,21.3c-0.9,0.9-1.8,1.8-1.9,2.1c-0.1,0.2-0.2,0.4-0.2,0.6c0,0.3,0.3,1.6,0.6,2.8l12.7,54.9c0.6,2.7,1,4.3,0.8,6.3
			c-0.1,1.8-0.6,3.5-1.4,5c-0.9,1.8-2.1,2.9-4,4.9l-2.7,2.7c-5.1,5.1-7.9,7.9-11.9,8.6c-3.5,0.6-7.1-0.2-10-2.4
			c-3.3-2.4-4.5-6.2-6.8-13.1L156,161.9l-18.1,18.1c-0.8,0.8-1.6,1.6-1.8,1.9c-0.1,0.2-0.2,0.4-0.2,0.6c0,0.3,0.1,1.4,0.2,2.6
			l1.3,12.1c0.3,2.4,0.4,3.8,0.2,5.6c-0.2,1.5-0.8,3-1.5,4.4c-0.9,1.5-2,2.6-3.6,4.3l-1.4,1.4c-3.9,3.9-6.3,6.3-9.7,7.2
			C120.3,220.2,119.2,220.3,118.1,220.3z M117.4,208.9c0.3,0.2,0.7,0.2,1.1,0.1c0.7-0.3,2.7-2.3,4.6-4.2l1.5-1.5
			c0.8-0.8,1.6-1.6,1.8-1.9c0.1-0.2,0.2-0.4,0.2-0.6c0-0.3-0.1-1.4-0.2-2.6l-1.3-12.1c-0.3-2.4-0.4-3.8-0.2-5.6
			c0.2-1.5,0.8-3,1.5-4.4c0.9-1.5,2-2.6,3.6-4.3l24.5-24.5c1.4-1.4,3.4-1.9,5.3-1.5c1.9,0.4,3.4,1.8,4.1,3.7l14.7,44.2
			c1.1,3.3,2.3,6.8,2.9,7.6c0.3,0.2,0.7,0.3,1.1,0.3c1-0.4,3.5-3,6-5.5l2.7-2.7c0.9-0.9,1.9-1.9,2-2.1c0.1-0.2,0.2-0.4,0.2-0.6
			c0-0.3-0.3-1.6-0.6-2.9l-12.7-54.9c-0.6-2.5-1-4.2-0.8-6.1c0.1-1.7,0.6-3.4,1.3-4.9c0.9-1.7,2-2.9,3.8-4.9l20.4-21.3
			c4.7-4.9,4.6-12.8-0.2-17.6c-2.4-2.4-5.6-3.7-9-3.7c-3.4,0-6.6,1.4-8.9,3.8l0,0l-19.9,20.5c-1.9,1.9-3,3.1-4.7,4.1
			c-1.6,0.9-3.5,1.4-5.3,1.6c-1.9,0.1-3.5-0.2-6.2-0.8L96.1,91c-1.3-0.3-2.5-0.6-2.9-0.6c0,0,0,0,0,0c-0.2,0-0.4,0.1-0.6,0.2
			c-0.3,0.2-1.2,1.1-2.1,2l-2.7,2.7c-2.5,2.5-5.1,5.1-5.5,6c0,0.4,0,0.8,0.3,1.1c0.8,0.7,4.3,1.8,7.6,2.9l44.2,14.7
			c1.9,0.6,3.3,2.2,3.7,4.1s-0.1,3.9-1.5,5.3L112,154c-1.6,1.6-2.7,2.7-4.3,3.6c-1.4,0.8-2.8,1.3-4.4,1.5c-1.7,0.3-3.2,0.1-5.6-0.1
			l-12.1-1.3c-1.1-0.1-2.3-0.2-2.6-0.2c-0.2,0-0.4,0.1-0.6,0.2c-0.2,0.2-1.1,1-1.9,1.8l-1.4,1.4c-1.9,1.9-3.9,3.9-4.3,4.6
			c-0.1,0.4,0,0.7,0.1,1.1c0.5,0.6,2.8,2.2,5.1,3.7l17.3,11.5c0.8,0.6,1.4,0.9,2,1.4c0.5,0.4,1,0.9,1.5,1.5c0.5,0.6,0.9,1.1,1.4,1.9
			l11.5,17.3C115.2,206.1,116.8,208.4,117.4,208.9z M118.5,209C118.5,209,118.5,209,118.5,209C118.5,209,118.5,209,118.5,209z
			 M75.1,166.5C75.1,166.5,75.1,166.5,75.1,166.5C75.1,166.5,75.1,166.5,75.1,166.5z M75,165.5C75,165.5,75,165.5,75,165.5
			C75,165.5,75,165.5,75,165.5z M82.2,101.4C82.2,101.4,82.2,101.4,82.2,101.4C82.2,101.4,82.2,101.4,82.2,101.4z"/>
	</g>
</g>
</svg>










