<?xml version="1.0" encoding="utf-8"?>
<!-- Generator: Adobe Illustrator 25.2.1, SVG Export Plug-In . SVG Version: 6.00 Build 0)  -->
<svg version="1.1" id="Layer_1" xmlns="http://www.w3.org/2000/svg" xmlns:xlink="http://www.w3.org/1999/xlink" x="0px" y="0px"
	 viewBox="0 0 283.5 283.5" style="enable-background:new 0 0 283.5 283.5;" xml:space="preserve">
<style type="text/css">
	.st0{fill:none;stroke:#020203;stroke-width:5;stroke-miterlimit:10;}
</style>
<circle class="st0" cx="141.8" cy="141.8" r="137"/>
<path d="M144.9,232.1c0,2.2,0,4.1,0,6c0,2.3-1.2,3.6-3.2,3.6c-1.9,0-3.1-1.3-3.1-3.7c0-1.9,0-3.9,0-6c-23.6-1.2-44-9.8-60.6-26.5
	c-16.7-16.6-25.3-37-26.6-60.8c-1.9,0-3.9,0-5.8,0c-2.5,0-3.8-1.1-3.9-3.1c0-2,1.3-3.1,3.8-3.2c1.9,0,3.7,0,5.8,0
	c0.4-8.8,1.9-17.4,4.6-25.7c2.8-8.3,6.8-16.1,12-23.4c-3.8-3.8-7.6-7.5-11.3-11.2c-3.6-3.6-7.1-7.1-10.7-10.7
	c-1.2-1.1-1.8-2.4-1.3-3.9c0.6-1.5,1.9-1.9,3.4-2.1c3.7-0.3,7.4-0.7,11-1c1.4-0.1,1.9-0.6,2-2.1c0.1-3.7,0.4-7.4,0.9-11
	c0.2-1.1,1.1-2.6,2.1-3c0.9-0.4,2.5,0.2,3.4,0.9c1.8,1.4,3.2,3.2,4.8,4.8c5.7,5.8,11.5,11.7,17.2,17.5c14.9-10.3,31.1-15.8,49-16.7
	c0-2,0-3.8,0-5.6c0-2.5,1.2-3.8,3.2-3.8c1.9,0,3,1.4,3.1,3.7c0,1.8,0,3.6,0,5.6c23.7,1.2,44.1,9.9,60.7,26.6
	c16.7,16.7,25.2,37.2,26.5,60.9c2,0,4,0,5.9,0c2.5,0,3.8,1.2,3.8,3.2c0,1.9-1.4,3-3.7,3.1c-1.9,0-3.9,0-5.9,0
	c-1.2,23.7-9.8,44-26.5,60.7C189,222.2,168.7,230.9,144.9,232.1z M117.8,112.9c8.2,8,16.1,15.8,23.9,23.4c0-1.4,0-3.3,0-5.1
	c0-1.8,0-3.6,0-5.4c0.1-2,1.2-3.3,3-3.4c1.9-0.1,3.1,1.2,3.3,3.3c0,0.1,0,0.1,0,0.2c0,6.2,0.1,12.5,0.1,18.7c0,2.1-1.5,3.5-3.6,3.5
	c-5.9,0-11.8-0.1-17.7-0.1c-0.3,0-0.5,0-0.8,0c-2.3-0.1-3.6-1.4-3.5-3.3c0.1-1.8,1.4-3,3.6-3c2.1,0,4.2,0,6.2,0c1.6,0,3.1,0,5.2,0
	c-8.4-8.2-16.4-16-24.5-23.9c-4.2,3.9-8.6,14.5-8.4,20.7c0.8,0,1.7,0,2.6,0c2.7,0,4.3,1.2,4.2,3.2c0,1.9-1.6,3.1-4.1,3.1
	c-0.9,0-1.8,0-2.8,0c0.5,17.3,16.3,33.1,33.8,34.1c0.1-0.1,0.2-0.2,0.2-0.3c0-1.1,0-2.1,0.1-3.2c0.1-2,1.4-3.3,3.1-3.4
	c1.8-0.1,3.1,1.3,3.2,3.4c0.1,1.2,0,2.4,0,3.6c19.5-1.5,33.3-17.9,34.1-34.2c-1.1,0-2.3,0-3.4,0c-2.1-0.1-3.5-1.3-3.5-3.1
	c0-1.8,1.4-3.1,3.5-3.2c1.2,0,2.3,0,3.5,0c-1.8-20.8-19.4-33.6-34.1-34c0,0.6-0.1,1.2-0.1,1.8c0,0.6,0,1.2,0,1.8
	c-0.2,1.9-1.5,3.3-3.2,3.3c-1.7,0-3-1.4-3.1-3.3c-0.1-1.2,0-2.4,0-3.7C130.7,105.1,123.9,107.9,117.8,112.9z M145,75.7
	c36.9,5.2,57.7,26,62.8,62.8c5.8,0,11.8,0,17.8,0c-0.1-18.4-8.5-43.7-30-61.5C181,64.7,164.1,58.3,145,57.4
	C145,63.8,145,69.8,145,75.7z M138.5,207.8c-36.9-5.2-57.7-26.1-62.8-62.9c-2.8,0-5.8,0-8.8,0c-3,0-6,0-9,0
	c1.3,46.9,41.8,80.8,80.6,80.6C138.5,219.5,138.5,213.6,138.5,207.8z M145.1,207.8c0,5.8,0,11.8,0,17.8
	c46.4-1.3,80.6-41.5,80.4-80.6c-6,0-12,0-17.7,0C202.6,181.8,181.8,202.6,145.1,207.8z M82.6,145c0.7,31.1,28.7,55.8,55.8,55.7
	c0-5.1,0-10.1,0-15.1c-23.5-3.8-37-17.3-40.7-40.7C92.8,145,87.7,145,82.6,145z M145,98.1c10.9,1,20.1,5.2,27.7,12.8
	c7.6,7.6,11.7,16.9,12.7,27.6c5.3,0,10.4,0,15.5,0c-1.3-31.8-28.7-55.4-55.9-55.8C145,87.7,145,92.8,145,98.1z M185.4,145
	c-1,10.9-5.2,20.1-12.8,27.7c-7.6,7.6-16.9,11.7-27.6,12.7c0,5.2,0,10.4,0,15.5c31.3-1.2,55.3-28.3,55.8-55.9
	C195.8,145,190.7,145,185.4,145z M76.1,138.5c1-15.7,6.7-29.4,17.4-41.4c-1.5-1.4-2.9-2.8-4.4-4c-0.6-0.5-1.5-0.8-2.3-0.7
	c-4,0.4-8,1.1-12,1.3c-1.9,0.1-2.8,0.9-3.8,2.3c-6.8,10.4-11,21.9-12.7,34.2c-0.4,2.7-0.5,5.5-0.7,8.3C64,138.5,70,138.5,76.1,138.5
	z M138.5,57.3c-2.3,0.2-4.4,0.3-6.4,0.6c-13.5,1.6-25.9,6.3-37.2,13.8c-0.5,0.3-1,1.1-1,1.7c-0.4,4.3-0.7,8.7-1,13.1
	c0,0.6,0.1,1.4,0.5,1.8c1.3,1.6,2.8,3,4.3,4.6c11.8-10.4,25.3-15.9,40.8-16.9C138.5,69.9,138.5,63.8,138.5,57.3z M97.6,102
	c-9.2,10.4-14.3,22.5-15.1,36.5c5.4,0,10.4,0,15.6,0c0.8-9.7,4.4-18.2,10.7-25.6C105,109.3,101.4,105.7,97.6,102z M102.3,97.3
	c3.9,3.7,7.5,7.3,10.9,10.6c3.9-2.2,7.8-4.8,12-6.6c4.2-1.7,8.8-2.6,13.3-3.8c0-4.8,0-9.9,0-15.1C124.7,83.3,112.8,88.2,102.3,97.3z
	 M67.7,54.9c-0.2,2.1-0.4,4.1-0.5,6.2c0,0.5,0.1,1.1,0.4,1.4c2.4,2.5,4.9,4.9,7.5,7.6c0.6-2,1.1-3.7,1.6-5.5
	c0.1-0.4-0.1-1.1-0.4-1.4C73.5,60.5,70.7,57.8,67.7,54.9z M54.5,67.3c2.6,2.5,4.8,4.7,7,6.8c0.2,0.2,0.5,0.4,0.7,0.4
	c2.5-0.2,4.9-0.5,7.9-0.8c-2.5-2.5-4.5-4.5-6.6-6.5c-0.4-0.4-1.2-0.6-1.8-0.6C59.5,66.8,57.3,67,54.5,67.3z M82.2,86.6
	c0.1-0.2,0.2-0.4,0.3-0.6c-2.1-2-4.2-4.1-6.4-6c-0.3-0.3-0.8-0.6-1.2-0.5c-2.3,0.2-4.6,0.5-7.4,0.9c2.5,2.5,4.6,4.6,6.8,6.7
	c0.3,0.3,0.9,0.3,1.3,0.3C77.9,87.1,80,86.9,82.2,86.6z M82.2,68.4c-0.7,2.4-1.2,4.3-1.7,6.1c-0.1,0.3-0.1,0.8,0.1,0.9
	c2,2,4.1,4,6.4,6.2c0.2-2.4,0.4-4.4,0.5-6.5c0-0.5-0.1-1.2-0.5-1.6C85.5,71.9,84,70.3,82.2,68.4z"/>
</svg>
