<?xml version="1.0" encoding="utf-8"?>
<!-- Generator: Adobe Illustrator 25.2.1, SVG Export Plug-In . SVG Version: 6.00 Build 0)  -->
<svg version="1.1" id="Layer_1" xmlns="http://www.w3.org/2000/svg" xmlns:xlink="http://www.w3.org/1999/xlink" x="0px" y="0px"
	 viewBox="0 0 283.5 283.5" style="enable-background:new 0 0 283.5 283.5;" xml:space="preserve">
<style type="text/css">
	.st0{fill:#020203;}
	.st1{fill:#FFFFFF;}
</style>
<g>
	<circle class="st0" cx="141.7" cy="141.7" r="138.9"/>
	<g>
		<path class="st1" d="M221.3,137.9c0,4.2,0,8.2,0,12.4c-3,0-6,0-9.2,0c0,2,0,3.9,0,5.7c0,3.5-0.7,6.9-2.6,10
			c-3.8,6.1-9.3,9.2-16.5,9.2c-17,0-34,0-51,0c-17.1,0-34.2,0-51.4,0c-9,0-16.3-5.7-18.4-14.3c-0.4-1.6-0.4-3.3-0.5-4.9
			c-0.1-1.8,0-3.6,0-5.6c-3.1,0-6.1,0-9.2,0c0-4.2,0-8.2,0-12.5c3.6,0,7.2,0,10.7,0c3.5,0,7,0,10.8,0c0-22.2,0-44.3,0-66.4
			c38.6,0,77,0,115.6,0c0,22.1,0,44.2,0,66.4C206.9,137.9,214,137.9,221.3,137.9z M84,150.4c0,1.7,0,3.3,0,4.8
			c0,5.3,2.3,7.6,7.5,7.6c33.5,0,67,0,100.6,0c0.6,0,1.1,0,1.7,0c2.8-0.3,5.3-2.1,5.6-4.8c0.3-2.5,0.1-5,0.1-7.6
			C160.9,150.4,122.6,150.4,84,150.4z M153.2,108.8c-7.7,0-15.2,0-22.8,0c0,9.7,0,19.3,0,28.9c7.6,0,15.2,0,22.8,0
			C153.2,128,153.2,118.5,153.2,108.8z M117.7,137.8c0-9.8,0-19.4,0-29c-7.1,0-14.1,0-21.2,0c0,9.7,0,19.3,0,29
			C103.6,137.8,110.6,137.8,117.7,137.8z M165.8,108.8c0,9.7,0,19.3,0,29c7.1,0,14.2,0,21.2,0c0-9.7,0-19.4,0-29
			C179.9,108.8,172.9,108.8,165.8,108.8z M153.2,84c-7.7,0-15.2,0-22.8,0c0,4.1,0,8.1,0,12.2c7.6,0,15.2,0,22.8,0
			C153.2,92,153.2,88,153.2,84z M117.8,84c-7.2,0-14.2,0-21.3,0c0,4.1,0,8.1,0,12.2c7.1,0,14.2,0,21.3,0
			C117.8,92,117.8,88.1,117.8,84z M187.1,84c-7.2,0-14.2,0-21.3,0c0,4.1,0,8.1,0,12.2c7.1,0,14.1,0,21.3,0
			C187.1,92.1,187.1,88.1,187.1,84z"/>
		<path class="st1" d="M62.2,187.7c4.3,0,8.2,0,12.4,0c0.3,3.9,1.8,7.1,5,9.4c2.2,1.6,4.7,2.3,7.5,2.2c6.2-0.2,9.9-3.9,11.7-11.6
			c4.2,0,8.4,0,12.8,0c0.3,3.9,1.8,7.2,5.1,9.5c2.4,1.7,5.1,2.3,8,2.1c5.9-0.4,9.9-4.7,11-11.6c4,0,8.1,0,12.1,0
			c2.1,8.2,6,11.8,12.5,11.6c6.2-0.2,10.2-4,11.7-11.6c4.2,0,8.4,0,12.8,0c0.3,3.9,1.9,7.2,5.2,9.6c2.4,1.6,5,2.2,7.9,2
			c5.9-0.4,9.9-4.6,11-11.6c4,0,8.1,0,12.1,0c0.5,7.9-4.7,17-12.8,21.3c-8.9,4.7-21.1,3.9-29.9-5.5c-4.9,5.3-10.9,8.3-18.2,8.3
			c-7.2,0.1-13.3-2.7-18.4-8c-5,5.2-11.1,8.1-18.4,8c-7.2-0.1-13.3-3-18.2-8.3c-9.4,9-19.9,11.2-31.4,4.6
			C66.3,203.8,62.6,196.7,62.2,187.7z"/>
	</g>
</g>
</svg>
