<svg
  xmlns="http://www.w3.org/2000/svg"
  viewBox="0 0 496.971 496.971"
  fill="none"
>
  <g>
    <rect x="249.231" y="230.676" width="110.437" height="58.41" fill="CurrentColor"/>
    <polygon points="219.383,132.183 129.481,132.183 136.166,200.831 219.383,200.831" fill="CurrentColor"/>
    <polygon points="219.383,289.086 219.383,230.679 139.074,230.679 144.763,289.086" fill="CurrentColor"/>
    <polygon points="219.383,43.923 120.884,43.923 126.573,102.335 219.383,102.335" fill="CurrentColor"/>
    <polygon points="389.516,289.086 449.213,289.086 460.592,230.679 389.516,230.679" fill="CurrentColor"/>
    <rect x="249.231" y="43.923" width="110.437" height="58.41" fill="CurrentColor"/>
    <rect x="249.231" y="132.183" width="110.437" height="68.646" fill="CurrentColor"/>
    <polygon points="389.516,102.335 485.592,102.335 496.971,43.923 389.516,43.923" fill="CurrentColor"/>
    <polygon points="389.516,200.831 466.406,200.831 479.777,132.183 389.516,132.183" fill="CurrentColor"/>
    <polygon points="89.858,28.999 0,28.999 0,58.847 62.367,58.847 86.246,348.784 449.213,348.784 449.213,318.937 113.736,318.937" fill="CurrentColor"/>
    <circle cx="133.57" cy="422.453" r="45.519" fill="CurrentColor"/>
    <circle cx="394.74" cy="422.453" r="45.519" fill="CurrentColor"/>
  </g>
</svg>
