<?xml version="1.0" encoding="utf-8"?>
<!-- Generator: Adobe Illustrator 25.2.1, SVG Export Plug-In . SVG Version: 6.00 Build 0)  -->
<svg version="1.1" id="Layer_1" xmlns="http://www.w3.org/2000/svg" xmlns:xlink="http://www.w3.org/1999/xlink" x="0px" y="0px"
	 viewBox="0 0 283.5 283.5" style="enable-background:new 0 0 283.5 283.5;" xml:space="preserve">
<style type="text/css">
	.st0{fill:#020203;}
	.st1{fill-rule:evenodd;clip-rule:evenodd;fill:#FFFFFF;}
</style>
<g>
	<circle class="st0" cx="141.7" cy="141.7" r="138.9"/>
	<g id="layer1" transform="translate(-396,-196)">
		<path id="path39527" class="st1" d="M460.2,254.4c-3.3,0-6,2.7-6,6c0,3.3,2.7,6,6,6h7.1l22.8,108.4c0.6,2.8,3,4.7,5.8,4.7h109
			c3.3,0,6-2.7,6-6c0-3.3-2.7-6-6-6H500.8l-2.5-11.9H599c2.7,0,5.1-1.9,5.8-4.5l16.3-65.5c0.9-3.8-1.9-7.4-5.8-7.4h-41.9v-17.9
			c0-3.3-2.7-6-6-6h-23.8c-3.3,0-6,2.7-6,6v17.9h-1l-5.2-19.4c-0.7-2.5-2.9-4.3-5.4-4.4c-0.6,0-1.2,0-1.8,0.2l-23,6.2
			c-3.2,0.9-5.1,4.1-4.2,7.3l2.7,10.2H482l-4-19.1c-0.6-2.8-3-4.7-5.8-4.7H460.2z M549.6,266.3h11.9v11.9h-11.9V266.3z M521.5,267.6
			l2.8,10.6H512l-2-7.5L521.5,267.6z M484.5,290.1h123.1l-13.3,53.6l-98.5,0C492.2,326.6,488.2,307.8,484.5,290.1L484.5,290.1z"/>
		<path id="circle39529" class="st1" d="M519.8,385.4c-9.8,0-17.9,8.1-17.9,17.9c0,9.8,8.1,17.9,17.9,17.9c9.8,0,17.9-8.1,17.9-17.9
			C537.6,393.4,529.6,385.4,519.8,385.4z M519.8,397.3c3.4,0,6,2.6,6,6s-2.6,6-6,6s-6-2.6-6-6S516.4,397.3,519.8,397.3z"/>
		<path id="circle39531" class="st1" d="M579.3,385.4c-9.8,0-17.9,8.1-17.9,17.9c0,9.8,8.1,17.9,17.9,17.9s17.9-8.1,17.9-17.9
			C597.2,393.4,589.1,385.4,579.3,385.4z M579.3,397.3c3.4,0,6,2.6,6,6s-2.6,6-6,6s-6-2.6-6-6S576,397.3,579.3,397.3z"/>
	</g>
</g>
</svg>
