<?xml version="1.0" encoding="utf-8"?>
<!-- Generator: Adobe Illustrator 25.2.1, SVG Export Plug-In . SVG Version: 6.00 Build 0)  -->
<svg version="1.1" id="Layer_1" xmlns="http://www.w3.org/2000/svg" xmlns:xlink="http://www.w3.org/1999/xlink" x="0px" y="0px"
	 viewBox="0 0 283.5 283.5" style="enable-background:new 0 0 283.5 283.5;" xml:space="preserve">
<style type="text/css">
	.st0{fill:#FFFFFF;}
</style>
<g>
	<circle cx="141.7" cy="141.7" r="138.9"/>
	<g>
		<path class="st0" d="M141.7,225.5c-1.6,0-3.2-0.6-4.5-1.9c-2.5-2.5-2.5-6.5,0-9l17.2-17.2c0.8-0.8,1.8-1.3,2.8-1.6
			c-2.9-4.4-4.6-9.7-4.6-15.4c0-15.4,12.5-27.8,27.8-27.8c15.4,0,27.8,12.5,27.8,27.8c0,15.4-12.5,27.8-27.8,27.8
			c-5.7,0-11-1.7-15.4-4.6c-0.3,1-0.8,2-1.6,2.8l-17.2,17.2C145,224.8,143.4,225.5,141.7,225.5z M180.4,165.3
			c-8.4,0-15.2,6.8-15.2,15.2c0,8.4,6.8,15.2,15.2,15.2s15.2-6.8,15.2-15.2C195.6,172.1,188.8,165.3,180.4,165.3z M85.8,225.5
			C70.5,225.5,58,213,58,197.6c0-15.4,12.5-27.8,27.8-27.8c5.7,0,11,1.7,15.4,4.6c0.3-1,0.8-2,1.6-2.8l68.8-68.8
			c0.8-0.8,1.8-1.3,2.8-1.6c-2.9-4.4-4.6-9.7-4.6-15.4c0-15.4,12.5-27.8,27.8-27.8c15.4,0,27.8,12.5,27.8,27.8
			c0,15.4-12.5,27.8-27.8,27.8c-5.7,0-11-1.7-15.4-4.6c-0.3,1-0.8,2-1.6,2.8l-68.8,68.8c-0.8,0.8-1.8,1.3-2.8,1.6
			c2.9,4.4,4.6,9.7,4.6,15.4C113.7,213,101.2,225.5,85.8,225.5z M85.8,182.5c-8.4,0-15.2,6.8-15.2,15.2c0,8.4,6.8,15.2,15.2,15.2
			S101,206,101,197.6C101,189.3,94.2,182.5,85.8,182.5z M197.6,70.7c-8.4,0-15.2,6.8-15.2,15.2c0,8.4,6.8,15.2,15.2,15.2
			c8.4,0,15.2-6.8,15.2-15.2C212.8,77.5,206,70.7,197.6,70.7z M103,130.9c-15.4,0-27.8-12.5-27.8-27.8c0-15.4,12.5-27.8,27.8-27.8
			c5.7,0,11,1.7,15.4,4.6c0.3-1,0.8-2,1.6-2.8l17.2-17.2c2.5-2.5,6.5-2.5,9,0c2.5,2.5,2.5,6.5,0,9L129,86c-0.8,0.8-1.8,1.3-2.8,1.6
			c2.9,4.4,4.6,9.7,4.6,15.4C130.9,118.4,118.4,130.9,103,130.9z M103,87.9c-8.4,0-15.2,6.8-15.2,15.2c0,8.4,6.8,15.2,15.2,15.2
			s15.2-6.8,15.2-15.2C118.2,94.7,111.4,87.9,103,87.9z"/>
	</g>
</g>
</svg>
