<svg
  width="24"
  height="24"
  viewBox="0 0 24 24"
  fill="none"
  xmlns="http://www.w3.org/2000/svg"
>
  <path
    d="M12 3C12.4142 3 12.75 3.33579 12.75 3.75V13.1893L15.4697 10.4697C15.7626 10.1768 16.2374 10.1768 16.5303 10.4697C16.8232 10.7626 16.8232 11.2374 16.5303 11.5303L12.5303 15.5303C12.2374 15.8232 11.7626 15.8232 11.4697 15.5303L7.46967 11.5303C7.17678 11.2374 7.17678 10.7626 7.46967 10.4697C7.76256 10.1768 8.23744 10.1768 8.53033 10.4697L11.25 13.1893V3.75C11.25 3.33579 11.5858 3 12 3Z"
    fill="currentColor"
  />
  <path
    d="M5 17.25C5 16.8358 5.33579 16.5 5.75 16.5H18.25C18.6642 16.5 19 16.8358 19 17.25C19 17.6642 18.6642 18 18.25 18H5.75C5.33579 18 5 17.6642 5 17.25Z"
    fill="currentColor"
  />
</svg>









