<?xml version="1.0" encoding="utf-8"?>
<!-- Generator: Adobe Illustrator 25.2.1, SVG Export Plug-In . SVG Version: 6.00 Build 0)  -->
<svg version="1.1" id="Layer_1" xmlns="http://www.w3.org/2000/svg" xmlns:xlink="http://www.w3.org/1999/xlink" x="0px" y="0px"
	 viewBox="0 0 283.5 283.5" style="enable-background:new 0 0 283.5 283.5;" xml:space="preserve">
<style type="text/css">
	.st0{fill:none;stroke:#020203;stroke-width:5;stroke-miterlimit:10;}
</style>
<circle class="st0" cx="141.8" cy="141.8" r="137"/>
<g>
	<path d="M145.6,68.4c0,7.3,0,14.6,0,21.9c0,3.7-1.3,4.9-5,5c-22.9,0.4-42.1,17.8-44.9,40.6c-3,24.8,12.7,46.6,37.1,51.6
		c24.3,5,50-12.3,54.5-36.9c0.5-2.7,0.7-5.4,0.9-8.2c0.2-3,1.5-4.5,4.4-4.5c14.9,0,29.8,0,44.7,0c2.8,0,4.4,1.6,4.4,4
		c-0.1,2.3-1.7,3.7-4.4,3.7c-4.5,0-9,0.1-13.5,0c-2.1,0-3,0.8-3.1,2.9c-2.6,33.4-27.2,62.6-59.7,70.8c-2.9,0.7-4.9-0.2-5.4-2.7
		c-0.5-2.5,0.7-4.1,3.7-4.9c7.7-2,14.9-5.1,21.5-9.6c18.5-12.5,29.1-30,32.1-52.1c0.1-0.6,0.1-1.2,0.1-1.7c0.1-2.4-0.2-2.8-2.6-2.8
		c-4,0-8,0-11.9,0c-1.9,0-2.7,0.7-2.9,2.6c-3.4,24-19.7,41.7-43,46.8c-1.2,0.3-2.4,0.5-3.6,0.6c-3.2,0.4-3.3,0.5-3.3,3.8
		c0,12.3,0,24.6,0,36.9c0,3.8-1.3,5.6-3.9,5.6c-2.5-0.1-3.7-1.9-3.7-5.5c0-3.6,0-7.2,0-10.9c0-3.5-0.2-3.8-3.7-4.1
		c-9.6-0.9-18.8-3.5-27.3-8c-21.7-11.2-35.7-28.7-41.8-52.4c-0.7-2.7,0.2-4.7,2.4-5.3c2.4-0.7,4.2,0.6,5,3.5
		c5,19.4,16.1,34.4,33.2,44.8c9.2,5.6,19.2,8.6,29.8,9.8c1.7,0.2,2.4-0.6,2.5-2.2c0-4.5,0-9,0-13.5c0-1.9-1.2-2.2-2.7-2.4
		c-9.7-1.2-18.5-4.7-26.2-10.6c-11.6-8.9-18.5-20.7-20.8-35.1c-0.1-0.4-0.1-0.7-0.2-1.1c-0.5-3-0.7-3.1-3.8-3.1c-8.3,0-16.6,0-25,0
		c-4.3,0-8.7,0-13,0c-2.9,0-4.5-1.4-4.6-3.8c0-2.5,1.7-4,4.6-4c4.2,0,8.4,0,12.6,0c3.6,0,3.8-0.2,4-3.7c0.9-10.7,3.8-20.9,8.9-30.4
		c10.7-20.1,27.1-33.4,48.8-40c2.7-0.8,4.6-0.1,5.5,2c1.1,2.4-0.3,4.7-3.4,5.6c-6.5,1.8-12.7,4.5-18.4,8.1
		C84.2,92.5,73,111.1,70.6,135c-0.2,2.3,0.3,2.9,2.6,2.9c3.9,0,7.8,0,11.7,0c1.8,0,2.7-0.6,3-2.6c3.3-24.8,21.1-43.2,45.7-47.3
		c4.3-0.7,4.3-0.7,4.3-5.1c0-12,0-24,0-36c0-0.9,0-1.9,0.3-2.8c0.5-1.6,1.8-2.4,3.5-2.4c1.7,0,3,0.8,3.5,2.4
		c0.3,0.9,0.3,1.8,0.3,2.8C145.6,54,145.6,61.2,145.6,68.4z"/>
	<path d="M187.5,112.8c-2.6,0-5.2,0.1-7.8,0c-1.7-0.1-3,0.5-4.2,1.8c-10,10.1-20,20.1-29.9,30.2c-0.6,0.6-1.2,1.3-2,1.7
		c-1.6,0.9-3.3,0.7-4.6-0.7c-1.3-1.3-1.5-2.9-0.6-4.6c0.4-0.6,0.9-1.1,1.4-1.6c10.2-10.3,20.5-20.6,30.7-31c0.8-0.9,1.4-2.3,1.4-3.6
		c0.2-5.1,0.1-10.3,0-15.4c0-1.9,0.6-3.4,2-4.8c8.6-8.5,17.1-17,25.7-25.6c1.4-1.4,2.9-2.5,5-1.6c2.1,0.9,2.4,2.6,2.4,4.6
		c-0.1,4.1,0,8.2,0,12.4c0,2.7,0.6,3.3,3.3,3.3c4.3,0,8.5,0,12.8,0c1.9,0,3.5,0.6,4.2,2.4c0.7,1.8,0,3.2-1.4,4.6
		c-8.7,8.6-17.4,17.2-26,25.9c-1.4,1.4-2.9,2.2-5,2.1C192.4,112.7,189.9,112.8,187.5,112.8z M187.6,105.1c1.8,0,3.6,0.1,5.4,0
		c0.7,0,1.7-0.2,2.2-0.7c5.2-5.1,10.4-10.3,15.5-15.5c0.5-0.5,1-1.7,0.7-2.2c-0.3-0.7-1.4-1.2-2.1-1.3c-1.9-0.2-3.9,0-5.9-0.1
		c-2.7-0.1-4.1-1.5-4.2-4.2c0-1.7,0.1-3.3-0.1-5c-0.1-1-0.5-2.3-1.2-2.7c-0.6-0.3-2.1,0.3-2.7,0.9c-4.9,4.8-9.7,9.7-14.4,14.7
		c-0.6,0.7-1.1,1.7-1.1,2.6c-0.1,3.6,0,7.2-0.1,10.8c0,1.9,0.9,2.6,2.7,2.6C184,105.1,185.8,105.1,187.6,105.1z"/>
	<path d="M141.6,174.2c-16.9-0.3-31.1-13.7-31.9-30.4c-0.9-17.1,11.5-31.9,28.3-33.8c0.8-0.1,1.6-0.2,2.4-0.3c3-0.2,4.8,1.2,4.9,3.6
		c0.1,2.3-1.6,3.6-4.4,4.1c-3.4,0.6-6.9,1.1-10,2.6c-10.1,4.7-15.4,16.1-12.9,27.2c2.4,10.8,12.2,18.8,23.3,19
		c13.8,0.2,23.9-9.5,24.9-23.9c0.1-2.1,0.7-3.7,2.8-4.4c2.7-0.9,5,1.1,5,4.3c-0.1,14.4-10.3,27.5-24.4,30.8
		C146.9,173.6,144.2,173.8,141.6,174.2z"/>
</g>
</svg>
