<?xml version="1.0" encoding="utf-8"?>
<!-- Generator: Adobe Illustrator 25.2.1, SVG Export Plug-In . SVG Version: 6.00 Build 0)  -->
<svg version="1.1" id="Layer_1" xmlns="http://www.w3.org/2000/svg" xmlns:xlink="http://www.w3.org/1999/xlink" x="0px" y="0px"
	 viewBox="0 0 283.5 283.5" style="enable-background:new 0 0 283.5 283.5;" xml:space="preserve">
<style type="text/css">
	.st0{fill:none;stroke:#020203;stroke-width:5;stroke-miterlimit:10;}
</style>
<circle class="st0" cx="141.8" cy="141.8" r="137"/>
<g>
	<path d="M67.5,239.3c-2.7-2.1-2.7-3.8,0-5.9c19.8-15.2,39.5-30.4,59.3-45.6c0.8-0.6,1.6-1.6,2-2.6c3.5-8.3,6.8-16.7,10.2-25
		c1-2.3,2.1-4.6,3.2-6.8c-5.4,0-10.9,0-16.5,0c0,1.5,0.1,3,0,4.5c-0.5,4.4-4.1,8-8.7,8.9c-4.5,0.8-8.3-1-10.5-5.1
		c-1-1.8-0.7-3.4,0.8-4.3c1.5-0.9,3-0.5,4.2,1.2c1.7,2.4,2.8,3,5,2.3c2.2-0.7,3.7-2.5,3.7-4.8c0-2.3-1.3-3.9-3.8-4.7
		c-3.3-1.1-6.6-0.5-9.8,0.5c-5.1,1.6-10.1,3.5-15.3,5c-5.1,1.5-10.4,2.1-15.7,0.8c-6.9-1.6-12.4-5.5-17.1-10.6
		c-3.3-3.5-6.3-7.2-9.4-10.9c-3.6-4.3-2.9-9.3,1.7-12.6c5.1-3.6,10.7-4.2,16.6-2.5c3.8,1.2,4.9,1,6.9-0.5c-1.4-1.7-2.8-3.4-4.3-5.1
		c-0.3-0.3-1.2-0.3-1.6-0.1c-2.7,1.1-4.8,0.7-6.7-1.5c-1.1-1.3-2.2-2.6-3.3-3.9c-2.9-3.5-2.7-6.2,0.7-9.1C69.9,92,80.7,83,91.4,73.9
		c11.2-9.4,22.3-18.8,33.5-28.2c3.7-3.1,6.3-2.9,9.4,0.8c0.9,1.1,1.8,2.1,2.7,3.2c2.6,3.1,2.7,5.2,0.1,8.5c1.6,1.9,3.2,3.8,4.8,5.7
		c1.7-1.3,1.9-3,1.9-4.8c-0.1-2.7-0.3-5.4-0.1-8c0.5-4.3,2.7-7.9,5.9-10.7c3.2-2.8,8-2.9,10.9,0.2c5,5.5,10.1,11,13.7,17.6
		c5.2,9.3,5.2,18.7,0.6,28.2c-2.7,5.5-5.7,10.7-8.4,16.2c-1.4,2.7-2,5.7-1.2,8.8c0.6,2.4,2.4,3.7,4.9,3.6c2.2-0.1,4.2-1.8,4.6-3.9
		c0.3-1.6-0.2-2.9-1.5-4c-1.8-1.6-2.1-3.1-0.9-4.5c1.2-1.4,2.9-1.3,4.7,0.1c3.8,3.1,4.7,7.6,2.5,12.1c-2.2,4.4-7.2,6.8-12,5.7
		c-0.8-0.2-1.5-0.4-2.2-0.6c-1.3,6.7-2.6,13.4-3.8,19.8c2.4,0.7,4.9,1.5,7.8,2.4c3.1-3.1,7.1-4.8,11.9-3c4.7,1.8,6.7,5.5,6.9,10.6
		c6.1,1,9.6,4.6,10,10.9c8.3,2.1,11.1,6.1,9.8,13.9c3.6,1.1,6.2,3.4,7.4,7.2c0.9-0.5,1.7-1,2.6-1.3c2.6-0.9,5-0.3,7.1,1.6
		c2.9,2.6,5.8,5.1,8.7,7.7c4.1,3.6,4,8-0.2,11.5c-11.8,9.9-23.5,19.8-35.3,29.7c-1.9,1.6-3.7,3.2-5.6,4.6c-3.1,2.3-7.3,1.7-9.4-1.4
		c-2.6-3.9-5-8-7.4-12c-0.4-0.7-0.6-1.6-1-2.5c-5.5,0.4-11,0.7-16.6,1.2c-0.6,0-1.2,0.5-1.6,0.9c-1.1,1-2,2.1-3.1,3.1
		c-1.3,1.2-2.7,1.3-4.1,0.1c-1.2-1-1.3-2.7-0.2-4.1c1.6-1.8,3.2-3.4,5-5c0.5-0.5,1.4-0.7,2.2-0.7c4.6-0.4,9.1-1,13.7-1
		c5-0.1,9.2-1.7,13-5.3c-8.2-11.2-16.4-22.5-24.7-33.9c-0.9,1.3-1.6,2.6-2.4,3.7c-1.1,1.5-2.7,1.8-4.1,0.9c-1.4-0.9-1.7-2.6-0.7-4.2
		c2.2-3.1,3.1-6.5,3.1-10.3c0-0.8,0.6-1.9,1.3-2.5c3.2-2.8,7.9-2.7,11.1,0.2c1.6,1.5,3,3.1,4.5,4.7c1.9,2,3.8,1.9,6-0.1
		c2.6-2.4,3.1-4.3,1.2-6.4c-3.9-4.3-7.9-8.6-11.9-12.8c-2.6-2.7-6.5-2.9-9.4-0.4c-3.2,2.7-6.2,5.6-9.1,8.6c-1.3,1.4-2.2,3.2-3,5
		c-3.7,8.9-7.3,17.9-11,26.8c-0.6,1.5-1.7,3-3,3.9c-17.2,13.3-34.4,26.5-51.6,39.8c-0.6,0.4-1.1,0.9-2.1,1.7c1.2,0,1.8,0,2.5,0
		c18.3,0,36.7,0,55,0c1.6,0,2.8-0.3,3.7-1.6c0.5-0.6,1.1-1.2,1.7-1.6c1.3-1,2.7-1,3.9,0.1c1.2,1.2,1.3,2.7,0.2,3.9
		c-1.6,1.8-3.4,3.4-5.2,5.1C115.2,239.3,91.3,239.3,67.5,239.3z M132.8,61.7c-0.7,0.6-1,0.8-1.3,1c-8.9,7.4-17.7,14.9-26.6,22.4
		c-4.9,4.1-9.8,8.3-14.7,12.4c-1.7,1.4-3.4,1.3-4.5,0c-1.2-1.4-0.9-3,0.7-4.5c0.2-0.2,0.5-0.4,0.7-0.6c11.1-9.3,22.1-18.6,33.2-27.9
		c4.1-3.5,8.3-7,12.5-10.6c-1.2-1.4-2.3-2.8-3.5-4.2C107,68.5,84.8,87.2,62.5,106c1.2,1.4,2.3,2.8,3.5,4.2c3-2.5,5.9-5,8.8-7.4
		c1.8-1.5,3.6-1.4,4.7,0c1.1,1.3,0.8,3-0.9,4.5c-1.5,1.3-3.1,2.6-4.8,4.1c5.9,6.7,11.4,13.5,17.5,19.8c3.2,3.3,7.1,6,11.1,8.4
		c12.1,7.2,25.4,9.3,39.3,7.8c4.1-0.5,8.6,0,11.5-4.1c0.5-0.7,1.2-1.4,1.5-2.2c1-3,1.9-6,2.6-9c4.1-16.7,2.7-32.9-6.7-47.6
		C145.4,76.4,138.8,69.3,132.8,61.7z M188.6,231c0.6-0.4,1.1-0.7,1.5-1.1c13.2-11.1,26.5-22.2,39.7-33.3c1.1-0.9,1.3-1.6,0.1-2.6
		c-2.8-2.4-5.6-4.9-8.4-7.4c-1-0.9-1.7-0.9-2.7,0c-12.3,10.4-24.6,20.7-37,31.1c-0.8,0.7-1.1,1.4-0.5,2.3c2,3.3,4,6.6,6.1,9.9
		C187.7,230.3,188.1,230.6,188.6,231z M162.3,96.3c0.2,0,0.4,0,0.5,0c2.4-4.5,4.9-9,7.1-13.6c3.1-6.6,3.2-13.4,0-20.1
		c-3.3-6.8-8.6-12.1-13.4-17.8c-1-1.2-2.3-1-3.4,0.1c-3.2,3-4.3,6.8-3.8,11c0.4,3.4,0.5,6.8-1.5,9.8c-0.6,0.9-1.3,1.7-2.1,2.7
		C153.3,76.7,159.3,85.6,162.3,96.3z M78.3,125.5c-1.1,0.6-2.1,1.1-3.1,1.6c-3.3,1.5-6.7,0.8-10-0.2c-4-1.2-7.7-0.7-11.2,1.7
		c-1.7,1.2-2,2.4-0.6,3.9c3.7,4.3,7.3,8.7,11.3,12.7c5.1,5.1,11.3,7.9,18.8,7.2c6.7-0.7,12.9-3.5,19.7-5.8
		C92.8,141.7,85.1,134.2,78.3,125.5z M160.5,166.1c-0.2,0.3-0.4,0.5-0.6,0.8c9.3,12.7,18.6,25.4,27.9,38.2c1.2-1,2.1-1.8,3.1-2.6
		c-4.6-3.1-5.9-7.3-4.8-12.3c-5.2-1.8-7.8-5.3-8-10.7c-3.4-0.3-6.1-1.7-8.3-4.3c-2.1-2.6-4.3-5.1-6.5-7.5
		C162.7,166.8,161.5,166.5,160.5,166.1z M202.4,172c-0.1-2.6-0.9-4-2.4-4.8c-1.6-0.8-3.3-0.9-4.6,0.3c-3.5,3.1-6.9,6.2-10.2,9.5
		c-1.6,1.6-1.3,4.5,0.3,6.1c1.7,1.7,4.3,1.9,6.2,0.2c3-2.7,6-5.4,8.9-8.3C201.5,174,202,172.6,202.4,172z M191.6,192.6
		c0.2,2.5,1,3.9,2.7,4.7c1.6,0.8,2.7,0,3.8-1c3.3-2.9,6.7-5.6,10-8.5c2-1.7,2.3-4.3,0.7-6.2c-1.6-1.9-4.4-2.2-6.3-0.5
		c-3.1,2.8-6.2,5.6-9.2,8.5C192.4,190.6,191.9,192,191.6,192.6z M183.6,157.7c3.2,6.1,2.5,8.9-3.7,15.3c0.7-0.3,1.4-0.7,2-1.3
		c2.7-2.5,5.5-5,8.2-7.6c2.4-2.2,2.6-5.1,0.7-7.1C188.8,155,186.1,155.2,183.6,157.7z M179.5,153.3c1.8-1.6,3.1-3.2,2.5-5.5
		c-0.5-1.9-1.7-3.1-3.6-3.4c-2.2-0.4-3.7,0.6-5.1,2.3C175.4,148.9,177.3,151,179.5,153.3z"/>
	<path d="M141.7,98.3c-0.3,3.3-0.6,6.5-1,9.7c-0.2,1.3,0.2,2.2,1.2,3c2.4,1.9,4.7,4,7.1,5.9c1.4,1.1,2.2,2.4,1.8,4.2
		c-0.5,1.8-1.9,2.3-3.5,2.6c-3.1,0.7-6.1,1.2-9.2,2.1c-0.8,0.2-1.7,1-2,1.7c-1.4,3-2.5,6-3.7,9.1c-0.6,1.5-1.6,2.6-3.3,2.7
		c-1.6,0.1-2.7-0.8-3.4-2.2c-1.7-2.9-3.3-5.8-5.1-8.6c-0.4-0.6-1.2-1.2-1.9-1.2c-3.1-0.3-6.3-0.5-9.4-0.7c-1.8-0.1-3.5-0.4-4.2-2.3
		c-0.7-1.8,0.1-3.1,1.3-4.4c2.2-2.4,4.3-4.7,6.4-7.2c0.4-0.5,0.6-1.4,0.5-2c-0.7-3.2-1.5-6.3-2.3-9.5c-0.4-1.6-0.5-3.1,0.9-4.3
		c1.5-1.3,3-0.9,4.6-0.2c2.9,1.3,5.8,2.5,8.6,3.8c1,0.5,1.8,0.4,2.7-0.2c2.8-1.8,5.7-3.5,8.5-5.3c1.3-0.8,2.8-1.2,4-0.1
		c0.9,0.8,1.4,2.1,2,3.3C142,98.1,141.9,98.2,141.7,98.3z M135.5,102.3c-2.2,1.3-4.2,2.5-6,3.7c-1.8,1.3-3.6,1.3-5.5,0.4
		c-1.9-1-4-1.7-6.4-2.8c0.6,2.6,1.1,4.8,1.7,6.9c0.6,2,0.2,3.7-1.3,5.2c-1.6,1.6-3,3.3-4.7,5.3c2.3,0.2,4.2,0.6,6,0.5
		c3-0.1,4.9,1.1,6.1,3.8c0.8,1.7,1.9,3.3,3,5.2c1-2.5,2-4.5,2.7-6.6c0.7-2,2-3.1,4.1-3.4c2.2-0.4,4.4-0.9,7-1.5
		c-2-1.7-3.6-3.2-5.4-4.5c-1.8-1.3-2.4-3-2.1-5.1C135,107.1,135.2,104.8,135.5,102.3z"/>
</g>
</svg>
