<?xml version="1.0" encoding="utf-8"?>
<!-- Generator: Adobe Illustrator 25.2.1, SVG Export Plug-In . SVG Version: 6.00 Build 0)  -->
<svg version="1.1" id="Layer_1" xmlns="http://www.w3.org/2000/svg" xmlns:xlink="http://www.w3.org/1999/xlink" x="0px" y="0px"
	 viewBox="0 0 283.5 283.5" style="enable-background:new 0 0 283.5 283.5;" xml:space="preserve">
<style type="text/css">
	.st0{fill:#020203;}
	.st1{fill:#FFFFFF;}
</style>
<g>
	<circle class="st0" cx="141.7" cy="141.7" r="138.9"/>
	<g>
		<path class="st1" d="M191.1,60.9c2.2,0.7,4.6,1.2,6.7,2.3c7.1,3.7,10.8,9.7,11,17.7c0.2,7.6,0.1,15.3,0,22.9
			c0,6.8-2.3,12.9-6.6,18.1c-0.5,0.7-0.9,1.6-0.9,2.5c-0.1,3.2,0,6.3,0,9.5c0,3.1-2.2,5.3-5,5.3c-2.9,0-5-2.3-5.1-5.3
			c0-1.3,0-2.6,0-4c-13.2,4.1-24.1,0.8-32.9-9.9c-5.7,7.4-13.2,11.6-22.6,11.6c-9.5,0-17-4.1-22.8-11.6c-8.7,10.7-19.6,14-32.9,9.9
			c0,0.6,0,1.1,0,1.6c0,19.9,0,39.9,0,59.8c0,6.9,4.1,11,11,11c17.9,0,35.8,0,53.7,0c0.6,0,1.3,0,1.9,0.1c2.5,0.4,4.4,2.8,4.2,5.3
			c-0.2,2.5-2.2,4.5-4.7,4.7c-0.5,0-0.9,0-1.4,0c-17.8,0-35.7,0-53.5,0c-12.5,0-21.1-8.7-21.1-21.1c0-22.3,0-44.5,0-66.8
			c0-1.1-0.3-2-1-2.8c-4.4-5.2-6.6-11.2-6.6-18c0-7.5,0-14.9,0-22.4c0-10.2,6.9-18.3,17-20.1c0.2,0,0.5-0.2,0.7-0.3
			C117,60.9,154.1,60.9,191.1,60.9z M135.6,71c-17.6,0-35.1,0-52.7,0c-5.8,0-10.4,4.2-10.4,9.8c-0.1,7.9-0.2,15.8,0,23.7
			c0.3,13.4,15.4,21.5,26.8,14.4c5.6-3.4,8.3-8.6,8.5-15.1c0.1-2.7,2-4.8,4.6-5c2.5-0.2,4.9,1.5,5.4,4.1c0.1,0.6,0.1,1.3,0.1,1.9
			c0.7,13.3,15.5,21.1,26.8,14.2c5.6-3.4,8.3-8.6,8.6-15.1c0.1-2.8,2.1-4.9,4.7-5.1c2.5-0.2,4.8,1.5,5.3,4c0.1,0.6,0.1,1.3,0.1,1.9
			c0.5,9.1,7.9,16.5,16.9,16.8c10,0.3,18.2-7.4,18.4-17.4c0.1-7.4,0-14.7,0-22.1c0-6.8-4.2-11-11-11C170.3,71,153,71,135.6,71z"/>
		<path class="st1" d="M224,150.6c-0.8,3.9-1.7,7.9-2.5,11.8c-1.2,5.9-2.3,11.8-3.5,17.6c-1.5,7.3-7.5,12.2-15,12.2
			c-11.2,0-22.4,0-33.6,0c-7.6,0-13.6-5-15.1-12.4c-2.1-10.6-4.2-21.1-6.3-31.7c-0.1-0.4-0.2-0.8-0.3-1.3c-2.2,0-4.3,0-6.5,0
			c-3.2,0-5.5-2.1-5.5-5.1c0-2.9,2.3-5,5.5-5c3.4,0,6.7,0,10.1,0c3.2,0,4.9,1.4,5.6,4.6c0.2,1,0.4,1.9,0.7,3c0.7,0,1.3,0,2,0
			c19.4,0,38.7,0,58.1,0c3.1,0,5.3,0.9,6.5,3.8C224,148.9,224,149.7,224,150.6z M212.7,154.4c-17.8,0-35.5,0-53.2,0
			c0.1,0.6,0.2,1.1,0.3,1.6c1.4,7.1,2.8,14.1,4.2,21.2c0.7,3.5,2.4,4.9,6,4.9c10.7,0,21.5,0,32.2,0c3.6,0,5.3-1.4,6-4.9
			c0.8-4,1.6-8,2.4-12C211.3,161.6,212,158.1,212.7,154.4z"/>
		<path class="st1" d="M155.8,209.9c0-7,5.7-12.6,12.7-12.6c7,0,12.6,5.7,12.6,12.7c0,6.9-5.7,12.5-12.6,12.5
			C161.5,222.6,155.8,216.9,155.8,209.9z M170.9,210c0-1.4-1.1-2.5-2.5-2.5c-1.4,0-2.5,1.1-2.5,2.5c0,1.4,1.1,2.5,2.5,2.5
			C169.7,212.5,170.9,211.3,170.9,210z"/>
		<path class="st1" d="M191.1,209.9c0-7,5.7-12.6,12.7-12.6c7,0,12.6,5.8,12.5,12.8c-0.1,6.9-5.7,12.5-12.6,12.5
			C196.8,222.5,191.1,216.8,191.1,209.9z M206.3,209.9c0-1.4-1.2-2.5-2.5-2.5c-1.4,0-2.5,1.2-2.5,2.5c0,1.4,1.2,2.5,2.5,2.5
			C205.2,212.4,206.3,211.3,206.3,209.9z"/>
	</g>
</g>
</svg>










