<?xml version="1.0" encoding="utf-8"?>
<!-- Generator: Adobe Illustrator 25.2.1, SVG Export Plug-In . SVG Version: 6.00 Build 0)  -->
<svg version="1.1" id="Layer_1" xmlns="http://www.w3.org/2000/svg" xmlns:xlink="http://www.w3.org/1999/xlink" x="0px" y="0px"
	 viewBox="0 0 283.5 283.5" style="enable-background:new 0 0 283.5 283.5;" xml:space="preserve">
<style type="text/css">
	.st0{fill:none;stroke:#020203;stroke-width:5;stroke-miterlimit:10;}
	.st1{stroke:#000000;stroke-width:0.5;stroke-miterlimit:10;}
</style>
<circle class="st0" cx="141.8" cy="141.8" r="137"/>
<g>
	<path class="st1" d="M140.5,248.3c-1.5-1.1-1.9-2.7-1.9-4.5c0.1-9.1,0-18.2,0-27.3c0-0.8,0-1.5,0.2-2.3c0.4-1.4,1.5-2.4,2.9-2.1
		c1.1,0.3,2.1,1.2,2.9,2.1c0.4,0.5,0.2,1.5,0.2,2.2c0,9.1,0,18.2,0,27.3c0,1.8-0.4,3.4-1.9,4.5C142.2,248.3,141.3,248.3,140.5,248.3
		z"/>
	<path class="st1" d="M129.7,171.2c-0.6-1.2-1.1-2.3-1.7-3.5c-5.4-11.3-10.7-22.7-16-34c-0.6-1.3-1.3-1.8-2.8-1.8
		c-4.8,0.1-9.6,0-14.4,0c-0.6,0-1.2,0.1-2.2,0.1c3,3.2,5.6,6.1,8.3,8.9c2.3,2.5,2.6,4.2,1,5.7c-1.6,1.4-3.2,1-5.5-1.4
		c-4.2-4.5-8.4-9-12.6-13.5c-2.1-2.3-2.1-3.4-0.1-5.8c9.5-11,19-21.9,28.4-32.9c1.1-1.3,2.4-1.9,4.2-1.9c16.9,0,33.9,0,50.8,0
		c1.8,0,3.2,0.5,4.3,2c1.6,2,3.4,3.9,5,5.8c1.4,1.6,1.3,3.4,0,4.6c-1.4,1.2-3.3,1-4.8-0.6c-0.1-0.1-0.2-0.2-0.3-0.3
		c-2.6-4.5-6.5-6-11.6-5.4c-3.5,0.4-7.1,0.1-10.6,0.1c-0.1,0-0.2,0.1-0.5,0.3c2,2.5,4,4.9,6.1,7.3c5.3,6.4,10.6,12.8,15.9,19.2
		c0.5,0.6,1.4,1.3,2.2,1.3c5.8,0.1,11.7,0,17.5,0c0.2,0,0.4-0.1,0.8-0.3c-2.4-2.8-4.8-5.5-7.1-8.2c-0.8-0.9-1.6-1.8-2.3-2.7
		c-1.2-1.5-1-3.3,0.3-4.4c1.3-1.1,3-1,4.3,0.4c1.7,1.8,3.2,3.6,4.8,5.5c2.9,3.3,5.8,6.7,8.7,10.1c2,2.3,2,3.6,0,5.8
		c-18.4,19.7-36.7,39.3-55.1,59c-2.1,2.2-3.7,2.2-5.8,0c-10.3-11-20.5-22-30.8-33c-1.7-1.8-1.8-3.6-0.5-4.9c1.5-1.5,3.2-1.2,5,0.7
		c5.6,6,11.2,11.9,16.8,17.9C129.5,171.3,129.6,171.2,129.7,171.2z M141.7,181.9c7.9-16.8,15.5-33.3,23.3-49.8
		c-15.8,0-31.1,0-46.8,0C126,148.7,133.8,165.1,141.7,181.9z M141.6,99.2c-7.2,8.8-14.3,17.5-21.6,26.3c14.6,0,28.8,0,43.4,0
		C156,116.6,148.8,108,141.6,99.2z M92.3,125.5c1.1,0.1,1.8,0.1,2.5,0.1c4.8,0,9.6-0.1,14.3,0.1c2,0.1,3.2-0.6,4.3-2.1
		c5.1-6.4,10.4-12.7,15.5-19c1.9-2.3,3.7-4.6,5.9-7.2c-4.2,0-8,0.3-11.6-0.1c-4.8-0.6-8,1.1-11,4.9C106,110.1,99.2,117.5,92.3,125.5
		z M153.8,171.1c0.1,0.1,0.3,0.2,0.4,0.3c12.2-13,24.3-26,36.8-39.4c-6.1,0-11.6,0.1-17.1,0c-1.5,0-2.2,0.5-2.8,1.8
		c-5.6,12-11.2,24-16.8,35.9C154.1,170.1,154,170.6,153.8,171.1z"/>
	<path class="st1" d="M144.9,53.3c0,4.8,0,9.7,0,14.5c0,2.3-1.1,3.5-2.9,3.6c-2,0.1-3.3-1.2-3.3-3.6c-0.1-4.2,0-8.4,0-12.7
		c0-5.4,0-10.8,0-16.2c0-1.7,0.5-3,2.2-3.6c2.1-0.7,4,0.8,4,3.4C144.9,43.6,144.9,48.4,144.9,53.3z"/>
	<path class="st1" d="M205,108.5c-0.8-0.7-2.1-1.3-2.4-2.2c-0.3-0.9,0.1-2.2,0.5-3.2c0.1-0.4,0.8-0.7,1.3-1
		c7.4-4.3,14.7-8.6,22.1-12.7c1-0.6,2.6-0.8,3.6-0.3c2.4,1,2.1,4.1-0.4,5.6c-3.9,2.3-7.8,4.5-11.7,6.7c-3.4,2-6.8,3.9-10.3,5.9
		C207,107.7,206.2,107.9,205,108.5z"/>
	<path class="st1" d="M231.7,191.1c0,2.9-2.1,4.5-4.2,3.6c-1.1-0.4-2.1-1.1-3.1-1.7c-6.5-3.8-13.1-7.5-19.6-11.3
		c-0.4-0.2-0.7-0.4-1.1-0.6c-1.5-1.1-2-2.7-1.2-4.2c0.8-1.5,2.6-2.1,4.3-1.2c2.7,1.5,5.4,3.1,8.1,4.6c4.9,2.8,9.7,5.5,14.5,8.4
		C230.6,189.5,231.2,190.6,231.7,191.1z"/>
	<path class="st1" d="M54.5,88.2c1.2,0.5,1.9,0.7,2.5,1.1c7.4,4.2,14.8,8.5,22.1,12.7c2.1,1.2,2.7,3,1.7,4.6c-1,1.6-2.8,2-4.7,0.8
		c-7.5-4.3-15-8.6-22.5-13c-1.5-0.9-2.3-2.2-1.7-3.8C52.4,89.7,53.7,89,54.5,88.2z"/>
	<path class="st1" d="M81.3,179c-0.4,0.5-0.9,1.7-1.8,2.2c-7.6,4.5-15.3,8.9-23,13.3c-1.7,1-3.4,0.4-4.3-1.1
		c-0.9-1.5-0.5-3.3,1.2-4.3c7.6-4.5,15.3-8.9,23-13.3C78.7,174.6,81.3,176,81.3,179z"/>
	<path class="st1" d="M97.1,60.2c0.4,0.3,1.5,0.9,2.1,1.8c2.9,4.7,5.6,9.5,8.3,14.4c1,1.8,0.6,3.6-0.9,4.5c-1.6,0.9-3.3,0.5-4.4-1.3
		c-2.8-4.8-5.7-9.7-8.4-14.6C92.5,62.6,93.9,60.2,97.1,60.2z"/>
	<path class="st1" d="M186.5,60.1c2.9,0,4.5,2.4,3.3,4.4c-2.8,5.2-5.8,10.2-8.8,15.3c-0.9,1.6-2.7,1.9-4.2,1c-1.4-0.9-2-2.6-1.1-4.2
		c2.8-5.1,5.7-10.1,8.7-15.1C185,60.8,186.1,60.4,186.5,60.1z"/>
	<path class="st1" d="M108.5,204.9c-0.5,1.2-0.8,2-1.2,2.7c-2.6,4.5-5.2,9-7.8,13.5c-1.3,2.3-3,2.9-4.8,1.8c-1.6-1-1.9-2.8-0.7-4.9
		c2.7-4.7,5.4-9.4,8.1-14c0.8-1.4,2.1-2.3,3.6-1.5C106.9,202.9,107.6,204,108.5,204.9z"/>
	<path class="st1" d="M190.4,220.8c-0.7,0.7-1.4,1.9-2.4,2.4c-1.5,0.7-2.8-0.1-3.7-1.5c-1.8-3.1-3.6-6.2-5.4-9.3
		c-1-1.8-2.1-3.6-3.1-5.4c-0.9-1.7-0.4-3.5,1.1-4.3c1.5-0.8,3.2-0.5,4.1,1.1c2.9,4.9,5.8,9.9,8.6,14.9
		C190,219.1,190.1,219.7,190.4,220.8z"/>
	<path class="st1" d="M220.4,144.8c-1.7,0-3.5,0.1-5.2,0c-2-0.1-3.2-1.4-3.1-3.1c0-1.7,1.2-2.9,3.1-3c3.5-0.1,7.1-0.1,10.6,0
		c1.9,0,3,1.3,3,3c0,1.7-1.1,3-3,3.1C224,144.9,222.2,144.8,220.4,144.8C220.4,144.8,220.4,144.8,220.4,144.8z"/>
	<path class="st1" d="M63.3,144.8c-1.7,0-3.5,0.1-5.2,0c-2-0.1-3.3-1.4-3.3-3.1c0-1.7,1.3-3,3.2-3.1c3.5-0.1,6.9-0.1,10.4,0
		c2,0,3.2,1.4,3.1,3.2c-0.1,1.7-1.2,2.9-3.1,3C66.7,144.9,65,144.8,63.3,144.8C63.3,144.8,63.3,144.8,63.3,144.8z"/>
</g>
</svg>
