<?xml version="1.0" encoding="utf-8"?>
<!-- Generator: Adobe Illustrator 25.2.1, SVG Export Plug-In . SVG Version: 6.00 Build 0)  -->
<svg version="1.1" id="Layer_1" xmlns="http://www.w3.org/2000/svg" xmlns:xlink="http://www.w3.org/1999/xlink" x="0px" y="0px"
	 viewBox="0 0 283.5 283.5" style="enable-background:new 0 0 283.5 283.5;" xml:space="preserve">
<style type="text/css">
	.st0{fill:none;stroke:#020203;stroke-width:5;stroke-miterlimit:10;}
</style>
<circle class="st0" cx="141.8" cy="141.8" r="137"/>
<g>
	<path d="M140.6,241.8c-2.1-1.1-2.8-2.9-2.8-5.3c0.1-7.9,0-15.9,0-23.8c0-2.5,1.2-4.1,3.2-4.5c2.3-0.4,4.5,1.3,4.5,3.7
		c0.1,8.7,0,17.4,0,26.1c0,1.9-1.3,2.8-2.7,3.7C142.1,241.8,141.4,241.8,140.6,241.8z"/>
	<path d="M143.4,87c16.3,0.1,32.5,5.6,47.6,14.9c15.5,9.6,28.4,21.9,39.2,36.6c2,2.7,2,3.8,0,6.5c-14,18.7-31,33.9-52.5,43.5
		c-26.4,11.8-52.4,10.4-77.9-2.8c-18.8-9.8-34.1-23.8-46.7-40.8c-1.9-2.6-1.9-3.7,0-6.3c14.5-19.3,32.1-34.8,54.4-44.5
		C117.9,89.7,130.6,87,143.4,87z M141.3,188.7c11.5,0,22.2-2.4,32.4-6.9c19.6-8.6,35.2-22.3,48.4-38.8c0.8-1,0.6-1.6-0.1-2.5
		c-11.2-14.1-24.3-26.2-40.2-34.8c-23.4-12.7-47.4-14.6-72.1-3.8c-19.6,8.5-35.1,22.2-48.3,38.7c-0.9,1.1-0.5,1.8,0.2,2.7
		c9.8,12.3,21,23,34.3,31.3C110,183.2,125,188.6,141.3,188.7z"/>
	<path d="M145.7,58.6c0,4,0,8.1,0,12.1c0,2.8-1.6,4.6-3.9,4.6c-2.4,0-3.9-1.8-3.9-4.6c0-8.1,0-16.3,0-24.4c0-2.8,1.6-4.6,3.9-4.6
		c2.4,0,3.9,1.8,3.9,4.6C145.7,50.4,145.7,54.5,145.7,58.6z"/>
	<path d="M88.5,92.2c-0.8,1.1-1.4,2.5-2.4,3c-1,0.5-2.6,0.2-3.8,0.1c-0.5-0.1-1-0.7-1.5-1.2C75.6,89,70.5,83.9,65.5,78.7
		c-0.9-0.9-1.7-2.5-1.6-3.7c0.1-1.2,1.3-2.7,2.4-3.1c1.1-0.4,3.1-0.1,3.9,0.6C75.8,78,81.4,83.7,87,89.3C87.6,90,87.8,91,88.5,92.2z
		"/>
	<path d="M215.4,71.5c3.5,0.1,5.3,3.3,3.9,5.8c-0.3,0.5-0.7,1-1.1,1.4c-5.2,5.2-10.5,10.5-15.7,15.7c-1.4,1.4-2.9,2-4.8,1.2
		c-2.6-1.1-3-4.4-0.8-6.6c3.7-3.8,7.5-7.5,11.3-11.3c1.6-1.6,3.1-3.2,4.7-4.7C213.8,72.2,214.9,71.8,215.4,71.5z"/>
	<path d="M88.6,195.1c-0.8,1.4-1.2,2.6-2,3.4c-5.3,5.4-10.6,10.7-16,16c-1.9,1.8-4.1,1.9-5.7,0.3c-1.7-1.6-1.7-3.9,0.2-5.9
		c5.3-5.4,10.7-10.7,16-16c1.3-1.3,2.9-2,4.6-1C86.8,192.6,87.6,194,88.6,195.1z"/>
	<path d="M220.2,212.2c-0.8,1.1-1.4,2.5-2.4,3c-1,0.5-2.6,0.2-3.8,0.1c-0.5-0.1-1-0.7-1.5-1.2c-5.1-5.1-10.3-10.2-15.3-15.3
		c-0.9-0.9-1.7-2.5-1.6-3.7c0.1-1.2,1.3-2.7,2.4-3.1c1.1-0.4,3.1-0.1,3.9,0.6c5.7,5.5,11.3,11.1,16.9,16.8
		C219.4,210,219.6,211,220.2,212.2z"/>
	<path d="M142,106.6c18.3,0.1,33.5,14.3,34.9,32.7c1.4,17.9-11.5,34.3-29.3,37.3c-23.7,4-44.4-16.7-40.6-40.4
		c0.4-2.7,2.2-4.2,4.5-3.9c2.3,0.3,3.7,2.1,3.3,4.9c-0.7,4.7-0.4,9.3,1.2,13.9c4.5,12.8,18,20.4,31.2,17.7
		c13.6-2.8,23-15.2,21.9-28.9c-1.4-17.6-18.8-29.3-35.7-24c-0.6,0.2-1.2,0.5-1.9,0.6c-2.2,0.4-4.1-0.6-4.7-2.6
		c-0.6-2,0.3-3.9,2.3-4.8C132,107.6,137.7,106.5,142,106.6z"/>
	<path d="M141.7,157.4c-8.6,0-15.6-7.1-15.6-15.7c0-8.6,7.2-15.6,15.8-15.5c8.5,0.1,15.5,7.1,15.5,15.6
		C157.4,150.4,150.3,157.4,141.7,157.4z M141.8,149.6c4.3,0,7.8-3.6,7.7-7.9c0-4.3-3.6-7.8-7.9-7.7c-4.3,0-7.8,3.6-7.7,7.9
		C134,146.1,137.5,149.6,141.8,149.6z"/>
	<path d="M118.3,118.3c2.2,0,4,1.8,3.9,4c0,2.1-1.8,3.8-3.9,3.8c-2.2,0-4-1.8-3.9-4C114.4,120,116.2,118.3,118.3,118.3z"/>
</g>
</svg>
